<svg width="87" height="124" viewBox="0 0 87 124" fill="none" xmlns="http://www.w3.org/2000/svg">
<g filter="url(#filter0_d)">
<path d="M1 4C1 1.79086 2.79086 0 5 0H82C84.2091 0 86 1.79086 86 4V118C86 120.209 84.2091 122 82 122H5C2.79086 122 1 120.209 1 118V4Z" fill="white"/>
</g>
<path d="M21 24C21 21.7909 22.7909 20 25 20H62C64.2091 20 66 21.7909 66 24V98C66 100.209 64.2091 102 62 102H25C22.7909 102 21 100.209 21 98V24Z" fill="#EDF2F5"/>
<path d="M22.7334 31H18.5V14.6816L13.4463 16.249V12.8066L22.2793 9.64258H22.7334V31Z" fill="black"/>
<path d="M44.0322 22.1816C44.0322 25.1309 43.4219 27.3867 42.2012 28.9492C40.9805 30.5117 39.1934 31.293 36.8398 31.293C34.5156 31.293 32.7383 30.5264 31.5078 28.9932C30.2773 27.46 29.6475 25.2627 29.6182 22.4014V18.4756C29.6182 15.4971 30.2334 13.2363 31.4639 11.6934C32.7041 10.1504 34.4863 9.37891 36.8105 9.37891C39.1348 9.37891 40.9121 10.1455 42.1426 11.6787C43.373 13.2021 44.0029 15.3945 44.0322 18.2559V22.1816ZM39.7988 17.875C39.7988 16.1074 39.5547 14.8232 39.0664 14.0225C38.5879 13.2119 37.8359 12.8066 36.8105 12.8066C35.8145 12.8066 35.0771 13.1924 34.5986 13.9639C34.1299 14.7256 33.8809 15.9219 33.8516 17.5527V22.7383C33.8516 24.4766 34.0859 25.7705 34.5547 26.6201C35.0332 27.46 35.7949 27.8799 36.8398 27.8799C37.875 27.8799 38.6221 27.4746 39.0811 26.6641C39.54 25.8535 39.7793 24.6133 39.7988 22.9434V17.875Z" fill="black"/>
<path d="M22.6513 57.4188L24.1861 60.5132C24.3014 60.7434 24.1069 60.9997 23.8284 60.9997L18.175 61C17.8824 61 17.6965 60.7273 17.8239 60.4993L19.3527 57.4176C18.5228 57.7816 17.6614 57.9699 16.7338 57.9699C15.1261 57.9699 13.6702 57.3916 12.6177 56.4578C7.61723 52.0244 15.5027 45.9863 18.8177 42.9047C19.5677 42.208 20.2349 41.5877 20.7102 41.1156C20.8766 40.968 21.129 40.955 21.2912 41.1156C21.7665 41.5877 22.4338 42.208 23.1835 42.9049C26.4981 45.9869 34.3823 52.0247 29.3824 56.4578C28.33 57.3916 26.874 57.9699 25.2664 57.9699C24.3398 57.9699 23.4799 57.7821 22.6513 57.4188Z" fill="black"/>
<path d="M59.3026 104.838L62.3723 111.026C62.6029 111.487 62.2138 111.999 61.6568 111.999L50.35 112C49.7648 112 49.393 111.455 49.6479 110.999L52.7054 104.835C51.0457 105.563 49.3227 105.94 47.4675 105.94C44.2523 105.94 41.3404 104.783 39.2355 102.916C29.2345 94.0488 45.0055 81.9726 51.6353 75.8093C53.1353 74.4159 54.4698 73.1754 55.4204 72.2312C55.7533 71.9361 56.2579 71.91 56.5825 72.2312C57.5331 73.1754 58.8676 74.4159 60.3669 75.8099C66.9962 81.9737 82.7646 94.0494 72.7649 102.916C70.6599 104.783 67.7481 105.94 64.5328 105.94C62.6795 105.94 60.9598 105.564 59.3026 104.838Z" fill="black"/>

</svg>
