<svg width="87" height="124" viewBox="0 0 87 124" fill="none" xmlns="http://www.w3.org/2000/svg">
<g filter="url(#filter0_d)">
<path d="M1 4C1 1.79086 2.79086 0 5 0H82C84.2091 0 86 1.79086 86 4V118C86 120.209 84.2091 122 82 122H5C2.79086 122 1 120.209 1 118V4Z" fill="white"/>
</g>
<path d="M21 24C21 21.7909 22.7909 20 25 20H62C64.2091 20 66 21.7909 66 24V98C66 100.209 64.2091 102 62 102H25C22.7909 102 21 100.209 21 98V24Z" fill="#EDF2F5"/>
<path d="M22.7393 22.4746C21.6357 23.5586 20.3467 24.1006 18.8721 24.1006C16.9873 24.1006 15.4785 23.4561 14.3457 22.167C13.2129 20.8682 12.6465 19.1201 12.6465 16.9229C12.6465 15.5264 12.9492 14.2471 13.5547 13.085C14.1699 11.9131 15.0244 11.0049 16.1182 10.3604C17.2119 9.70605 18.4424 9.37891 19.8096 9.37891C21.2158 9.37891 22.4658 9.73047 23.5596 10.4336C24.6533 11.1367 25.5029 12.1475 26.1084 13.4658C26.7139 14.7842 27.0215 16.293 27.0312 17.9922V19.5596C27.0312 23.1143 26.1475 25.9072 24.3799 27.9385C22.6123 29.9697 20.1074 31.0537 16.8652 31.1904L15.8252 31.2051V27.6748L16.7627 27.6602C20.4443 27.4941 22.4365 25.7656 22.7393 22.4746ZM19.9121 20.8633C20.5957 20.8633 21.1816 20.6875 21.6699 20.3359C22.168 19.9844 22.5439 19.5596 22.7979 19.0615V17.3184C22.7979 15.8828 22.5244 14.7695 21.9775 13.9785C21.4307 13.1875 20.6982 12.792 19.7803 12.792C18.9307 12.792 18.2324 13.1826 17.6855 13.9639C17.1387 14.7354 16.8652 15.707 16.8652 16.8789C16.8652 18.041 17.1289 18.998 17.6562 19.75C18.1934 20.4922 18.9453 20.8633 19.9121 20.8633Z" fill="black"/>
<path d="M22.6513 57.4188L24.1861 60.5132C24.3014 60.7434 24.1069 60.9997 23.8284 60.9997L18.175 61C17.8824 61 17.6965 60.7273 17.8239 60.4993L19.3527 57.4176C18.5228 57.7816 17.6614 57.9699 16.7338 57.9699C15.1261 57.9699 13.6702 57.3916 12.6177 56.4578C7.61723 52.0244 15.5027 45.9863 18.8177 42.9047C19.5677 42.208 20.2349 41.5877 20.7102 41.1156C20.8766 40.968 21.129 40.955 21.2912 41.1156C21.7665 41.5877 22.4338 42.208 23.1835 42.9049C26.4981 45.9869 34.3823 52.0247 29.3824 56.4578C28.33 57.3916 26.874 57.9699 25.2664 57.9699C24.3398 57.9699 23.4799 57.7821 22.6513 57.4188Z" fill="black"/>
<path d="M59.3026 104.838L62.3723 111.026C62.6029 111.487 62.2138 111.999 61.6568 111.999L50.35 112C49.7648 112 49.393 111.455 49.6479 110.999L52.7054 104.835C51.0457 105.563 49.3227 105.94 47.4675 105.94C44.2523 105.94 41.3404 104.783 39.2355 102.916C29.2345 94.0488 45.0055 81.9726 51.6353 75.8093C53.1353 74.4159 54.4698 73.1754 55.4204 72.2312C55.7533 71.9361 56.2579 71.91 56.5825 72.2312C57.5331 73.1754 58.8676 74.4159 60.3669 75.8099C66.9962 81.9737 82.7646 94.0494 72.7649 102.916C70.6599 104.783 67.7481 105.94 64.5328 105.94C62.6795 105.94 60.9598 105.564 59.3026 104.838Z" fill="black"/>

</svg>
