<svg width="87" height="124" viewBox="0 0 87 124" fill="none" xmlns="http://www.w3.org/2000/svg">
<g filter="url(#filter0_d)">
<path d="M1 4C1 1.79086 2.79086 0 5 0H82C84.2091 0 86 1.79086 86 4V118C86 120.209 84.2091 122 82 122H5C2.79086 122 1 120.209 1 118V4Z" fill="white"/>
</g>
<path d="M21 24C21 21.7909 22.7909 20 25 20H62C64.2091 20 66 21.7909 66 24V98C66 100.209 64.2091 102 62 102H25C22.7909 102 21 100.209 21 98V24Z" fill="#EDF2F5"/>
<path d="M29.0381 20.8193C29.0381 22.8115 28.7158 24.5449 28.0713 26.0195C27.4268 27.4844 26.5332 28.6611 25.3906 29.5498L28.9355 32.333L26.1377 34.8086L21.5967 31.1611C21.0791 31.249 20.542 31.293 19.9854 31.293C18.2178 31.293 16.6406 30.8682 15.2539 30.0186C13.8672 29.1689 12.793 27.958 12.0312 26.3857C11.2695 24.8037 10.8838 22.9873 10.874 20.9365V19.8818C10.874 17.7822 11.25 15.9365 12.002 14.3447C12.7637 12.7432 13.833 11.5176 15.21 10.668C16.5967 9.80859 18.1787 9.37891 19.9561 9.37891C21.7334 9.37891 23.3105 9.80859 24.6875 10.668C26.0742 11.5176 27.1436 12.7432 27.8955 14.3447C28.6572 15.9365 29.0381 17.7773 29.0381 19.8672V20.8193ZM24.585 19.8525C24.585 17.6162 24.1846 15.917 23.3838 14.7549C22.583 13.5928 21.4404 13.0117 19.9561 13.0117C18.4814 13.0117 17.3438 13.5879 16.543 14.7402C15.7422 15.8828 15.3369 17.5625 15.3271 19.7793V20.8193C15.3271 22.9971 15.7275 24.6865 16.5283 25.8877C17.3291 27.0889 18.4814 27.6895 19.9854 27.6895C21.46 27.6895 22.5928 27.1133 23.3838 25.9609C24.1748 24.7988 24.5752 23.1094 24.585 20.8926V19.8525Z" fill="black"/>
<path d="M22.6513 57.4188L24.1861 60.5132C24.3014 60.7434 24.1069 60.9997 23.8284 60.9997L18.175 61C17.8824 61 17.6965 60.7273 17.8239 60.4993L19.3527 57.4176C18.5228 57.7816 17.6614 57.9699 16.7338 57.9699C15.1261 57.9699 13.6702 57.3916 12.6177 56.4578C7.61723 52.0244 15.5027 45.9863 18.8177 42.9047C19.5677 42.208 20.2349 41.5877 20.7102 41.1156C20.8766 40.968 21.129 40.955 21.2912 41.1156C21.7665 41.5877 22.4338 42.208 23.1835 42.9049C26.4981 45.9869 34.3823 52.0247 29.3824 56.4578C28.33 57.3916 26.874 57.9699 25.2664 57.9699C24.3398 57.9699 23.4799 57.7821 22.6513 57.4188Z" fill="black"/>
<g clip-path="url(#clip0)">
<path d="M20.3042 88.2961V102.257C20.3042 102.257 21.9777 105.608 29.1322 105.06C36.2868 104.513 41.4854 101.981 46.7448 101.705C52.0042 101.429 60.2715 102.136 63.475 103.154C66.6785 104.172 76.8105 112 76.8105 112V97.7673C76.8105 97.7673 75.3326 92.7384 65.5092 93.3423C55.6858 93.9461 39.7076 97.6983 31.9575 93.9418C24.2075 90.1852 20.3042 88.2961 20.3042 88.2961Z" fill="#006790"/>
<path d="M20.3042 88.2961V102.257C20.3042 102.257 21.9777 105.608 29.1322 105.06C36.2868 104.513 41.4854 101.981 46.7448 101.705C52.0042 101.429 60.2715 102.136 63.475 103.154C66.6785 104.172 76.8105 112 76.8105 112V97.7673C76.8105 97.7673 75.3326 92.7384 65.5092 93.3423C55.6858 93.9461 39.7076 97.6983 31.9575 93.9418C24.2075 90.1852 20.3042 88.2961 20.3042 88.2961Z" fill="#006790"/>
<path d="M23.4515 96.3268C22.9113 95.8645 22.3291 95.453 21.7123 95.0976C21.1825 94.7293 20.7031 94.2943 20.2861 93.8037V94.0107C20.6803 94.6461 21.1853 95.2069 21.7775 95.6669C21.803 95.6881 21.82 95.7177 21.8254 95.7503C21.8307 95.7829 21.8241 95.8164 21.8068 95.8446C21.7894 95.8728 21.7624 95.8938 21.7307 95.904C21.699 95.9141 21.6647 95.9126 21.634 95.8998C21.3198 95.9209 21.0267 96.064 20.8183 96.2982C20.6099 96.5324 20.503 96.8387 20.5209 97.1505C20.5279 97.1715 20.5279 97.1942 20.5209 97.2152C20.824 97.5837 21.1492 97.9337 21.4949 98.2633C21.4115 97.9799 21.4221 97.6775 21.5253 97.4007C21.5727 97.1696 21.7082 96.9657 21.9036 96.8314C21.9963 96.7427 22.0951 96.6606 22.1992 96.5855C22.2154 96.5767 22.2332 96.5713 22.2515 96.5696C22.2699 96.5679 22.2884 96.5699 22.3059 96.5756C22.3234 96.5812 22.3396 96.5904 22.3534 96.6025C22.3672 96.6146 22.3784 96.6294 22.3862 96.6459C22.5097 96.6224 22.6366 96.6224 22.7601 96.6459C22.9558 96.6934 22.821 96.9392 22.6558 96.9176C22.5363 96.8977 22.4144 96.8977 22.2949 96.9176C22.1022 97.0682 21.9524 97.2659 21.8601 97.4912C21.8586 97.6228 21.8867 97.753 21.9424 97.8723C21.998 97.9917 22.0799 98.0973 22.1819 98.1813C22.7254 98.6126 23.2775 98.466 23.8384 97.75C23.9054 97.5 23.905 97.2368 23.837 96.987C23.7691 96.7372 23.6361 96.5095 23.4515 96.3268Z" fill="white"/>
<path d="M30.0553 99.8767C29.4258 99.5621 28.7252 99.4136 28.0211 99.4454C26.6345 99.4713 25.2566 99.7516 23.8701 99.6438C23.625 99.6244 23.3812 99.5913 23.1398 99.5446C23.4093 99.7171 23.6919 99.8724 23.9744 100.023C23.9971 100.017 24.0212 100.017 24.0439 100.023C25.3503 100.274 26.693 100.274 27.9994 100.023C28.0309 100.021 28.0625 100.026 28.0914 100.038C28.1203 100.051 28.1455 100.071 28.1646 100.096C28.1837 100.121 28.1961 100.15 28.2007 100.181C28.2052 100.212 28.2018 100.244 28.1906 100.273C28.0776 100.588 27.9124 101.041 28.1906 101.343C28.3775 101.369 28.5601 101.399 28.747 101.421C28.2384 100.86 28.5079 99.9026 29.3642 100.166C29.5642 100.222 29.3642 100.455 29.2295 100.437C28.4123 100.33 28.9252 101.529 29.6641 101.425C30.9812 101.231 30.5552 100.157 30.0553 99.8767Z" fill="white"/>
<path d="M24.7309 98.5435C25.4787 98.5047 26.4179 98.2977 26.7484 97.6507C26.0962 97.2626 25.4585 96.8514 24.8352 96.4172C25.01 96.7489 25.0924 97.1207 25.0741 97.4944C25.0557 97.8682 24.9373 98.2303 24.7309 98.5435Z" fill="white"/>
<path d="M32.8485 100.355C32.8252 100.321 32.813 100.28 32.8137 100.239L32.105 100.066L31.7963 99.9756C31.9551 100.223 32.0452 100.508 32.0574 100.801C32.0696 101.094 32.0035 101.385 31.8658 101.645H32.8572C32.9947 101.457 33.068 101.231 33.0665 100.998C33.0649 100.766 32.9885 100.541 32.8485 100.355Z" fill="white"/>
<path d="M34.3657 101.563C35.5116 101.467 36.6457 101.263 37.7528 100.954C36.6615 100.821 35.5788 100.709 34.4701 100.523C34.5676 100.87 34.5304 101.241 34.3657 101.563Z" fill="white"/>
<path d="M76.128 103.18C76.169 103.019 76.2548 102.873 76.3754 102.757C76.4961 102.642 76.6468 102.563 76.8106 102.529V102.184C76.241 102.093 75.628 102.24 75.5062 102.861C75.4483 103.122 75.4782 103.394 75.5913 103.636C75.7044 103.878 75.8944 104.077 76.1323 104.202C76.349 104.283 76.5733 104.342 76.8019 104.379V103.948C76.4019 103.874 76.028 103.654 76.128 103.18Z" fill="white"/>
<path d="M65.5096 99.3801C65.6097 99.0705 65.8112 98.803 66.0822 98.6202C66.3531 98.4373 66.6778 98.3495 67.0048 98.3709C67.167 98.3783 67.3242 98.4291 67.4596 98.5179C67.595 98.6068 67.7037 98.7303 67.7742 98.8755C67.8611 99.1731 67.4916 99.4275 67.2178 99.4534C67.0179 99.4534 66.2876 99.2248 66.731 99.0221C66.8396 98.9747 66.97 99.0221 67.0787 98.9315C67.3525 98.7461 66.97 98.6555 66.8223 98.6641C66.61 98.6992 66.4082 98.7802 66.2311 98.9013C65.9008 99.1127 65.6269 99.5569 66.0486 99.8329C66.3391 100.015 66.6708 100.121 67.0135 100.143C67.8332 100.158 68.6453 99.9858 69.3868 99.6389C70.3565 99.2615 71.3878 99.0641 72.4294 99.0566C70.9528 98.6308 69.4394 98.342 67.9089 98.194C67.3307 98.1452 66.7502 98.1308 66.1703 98.1509C66.1628 98.1679 66.1514 98.183 66.1371 98.195C66.1228 98.207 66.1059 98.2155 66.0877 98.2199C65.3835 98.3924 64.0448 98.7288 64.3099 99.6949C64.3123 99.7048 64.3123 99.7152 64.3099 99.7251C64.8793 99.8631 65.44 100.018 66.0007 100.191C65.833 100.139 65.6903 100.028 65.5997 99.8782C65.5092 99.7287 65.4771 99.5515 65.5096 99.3801Z" fill="white"/>
<path d="M71.3112 101.451C71.6261 101.358 71.9471 101.288 72.2718 101.239C72.8021 101.149 73.8062 100.765 74.1408 101.412C74.2365 101.597 74.1843 101.929 73.9279 101.968C73.5975 102.02 73.8974 101.602 73.7496 101.464C73.5097 101.363 73.2465 101.33 72.989 101.369C72.2979 101.735 72.6413 102.516 73.1063 102.788C73.3437 102.947 73.6247 103.029 73.9109 103.024C74.1972 103.018 74.4748 102.925 74.7059 102.757C75.6274 101.934 74.6537 100.657 73.6975 100.485C72.8139 100.355 71.9114 100.47 71.0895 100.817C70.4773 101.114 69.819 101.306 69.1422 101.386C69.4378 101.52 69.729 101.662 70.0115 101.817C70.3663 101.767 70.7127 101.669 71.0417 101.528L71.3112 101.451Z" fill="white"/>
<path d="M65.0485 98.2288C64.3921 98.2762 63.7445 98.3409 63.0751 98.4013C62.0547 98.4235 61.0417 98.5801 60.0629 98.8671C60.5671 98.9576 61.0669 99.0482 61.5712 99.1474C62.1014 99.0612 62.6187 98.9102 63.1577 98.8671C63.2794 98.8671 63.4054 99.031 63.3185 99.1345C63.2236 99.2293 63.1404 99.335 63.0707 99.4493L63.9922 99.6606C63.7705 98.949 64.3747 98.5177 65.0485 98.2288Z" fill="white"/>
<path d="M68.8692 98.0478C70.3419 98.2409 71.7958 98.5554 73.2158 98.988C74.4553 99.4235 75.6598 99.9512 76.8192 100.567V99.5055C75.024 98.2117 72.6551 97.6467 70.4731 97.4354C66.2829 97.0041 62.2145 97.6898 58.1243 98.5783C55.5203 99.2056 52.8685 99.6182 50.196 99.8118C47.5881 99.9455 45.0018 100.071 42.4069 100.006C39.7874 99.9869 37.1775 99.689 34.622 99.1174C32.0742 98.4778 29.6135 97.5351 27.2936 96.3097C24.8508 95.0676 21.756 93.2863 20.3042 90.7288V92.0226C22.3082 94.2715 24.6817 96.1673 27.324 97.6294C29.0945 98.7124 31.0309 99.5019 33.0572 99.967C34.8567 100.329 36.6823 100.463 38.4992 100.709C38.6383 100.709 38.7818 100.963 38.5905 101.028C35.2513 102.046 31.7167 102.264 28.2759 101.666C28.2594 101.673 28.2417 101.677 28.2238 101.677C28.2059 101.677 28.1881 101.673 28.1716 101.666C27.5022 101.55 26.8676 101.408 26.2113 101.235C23.8857 100.618 21.8175 99.2844 20.3042 97.4267L20.3042 98.7637C21.0996 100.347 23.06 101.351 24.603 101.985C29.4365 103.948 34.2917 102.848 39.1947 101.826C44.3672 100.73 49.6266 99.7643 54.9469 99.829C59.9238 99.8851 64.9442 100.821 69.4038 103.068C72.2118 104.483 74.8893 106.423 76.7931 108.934V107.575C75.0079 105.46 72.8465 103.688 70.4166 102.348C68.0716 101.11 65.5554 100.222 62.9491 99.7126C62.9218 99.721 62.8929 99.7227 62.8649 99.7174C62.8368 99.7122 62.8105 99.7001 62.7882 99.6824C62.4144 99.6004 62.0363 99.5228 61.6581 99.4495H61.632C61.6091 99.4548 61.5852 99.4544 61.5625 99.4484C61.5398 99.4424 61.5189 99.4309 61.5016 99.415C60.841 99.2899 60.1977 99.1691 59.5152 99.0527C59.3935 99.0527 59.3022 98.85 59.437 98.781C60.6932 98.1513 62.171 98.2117 63.5402 98.0392C65.3086 97.8001 67.1016 97.803 68.8692 98.0478Z" fill="black"/>
<path d="M68.8692 98.3621C70.3416 98.5587 71.7954 98.8746 73.2158 99.3066C74.4544 99.7425 75.6588 100.269 76.8192 100.881V99.8112C75.024 98.5173 72.6551 97.9523 70.4731 97.7367C66.2829 97.3313 62.2145 97.9955 58.1243 98.8839C55.5272 99.5095 52.8829 99.9234 50.2178 100.122C47.6098 100.255 45.0235 100.381 42.4286 100.316C39.8092 100.295 37.1996 99.9969 34.6438 99.4274C32.0965 98.7859 29.6361 97.8432 27.3153 96.6197C24.8725 95.3603 21.7777 93.6006 20.3259 91.0344V92.3283C22.328 94.5863 24.7016 96.4908 27.3458 97.961C29.1181 99.0403 31.0539 99.8296 33.079 100.299C34.8785 100.657 36.7041 100.795 38.521 101.036C38.6601 101.036 38.8035 101.295 38.6122 101.355C35.2733 102.374 31.7388 102.594 28.2977 101.998C28.2642 102.011 28.2268 102.011 28.1933 101.998C27.524 101.881 26.8894 101.743 26.233 101.567C23.8975 100.948 21.821 99.6084 20.3042 97.741V99.0823C21.0996 100.665 23.06 101.67 24.603 102.304C29.4365 104.266 34.2917 103.167 39.1947 102.14C44.3672 101.049 49.6266 100.083 54.9469 100.143C59.9238 100.204 64.9442 101.14 69.4038 103.387C72.2118 104.801 74.8893 106.742 76.7931 109.252V107.894C75.0077 105.78 72.8463 104.01 70.4166 102.671C68.0716 101.433 65.5554 100.545 62.9491 100.035C62.9216 100.044 62.8922 100.046 62.864 100.04C62.8358 100.033 62.8097 100.02 62.7882 100.001L61.6581 99.7724H61.632C61.6091 99.7758 61.5857 99.7745 61.5632 99.7686C61.5408 99.7626 61.5198 99.7522 61.5016 99.7379C60.841 99.6085 60.1977 99.4921 59.5152 99.3756C59.3935 99.354 59.3022 99.1729 59.437 99.1039C60.6932 98.4699 62.171 98.5303 63.5402 98.3621C65.3083 98.1223 67.1011 98.1223 68.8692 98.3621Z" fill="black"/>
<path d="M66.4703 45.1196C66.4712 45.014 66.5035 44.911 66.5633 44.8237C66.6231 44.7363 66.7076 44.6684 66.8062 44.6286C66.9047 44.5888 67.013 44.5788 67.1173 44.5999C67.2216 44.621 67.3173 44.6723 67.3922 44.7473C67.4672 44.8222 67.5181 44.9175 67.5386 45.0212C67.559 45.1248 67.5481 45.2321 67.5072 45.3296C67.4662 45.427 67.3971 45.5103 67.3086 45.5689C67.22 45.6275 67.1159 45.6587 67.0095 45.6587C66.8661 45.6576 66.729 45.6003 66.628 45.4993C66.527 45.3983 66.4703 45.2618 66.4703 45.1196Z" fill="black"/>
<path d="M40.0902 43.5109C40.0893 43.404 40.1206 43.2991 40.1799 43.2098C40.2393 43.1205 40.3242 43.0507 40.4237 43.0094C40.5231 42.9681 40.6328 42.957 40.7386 42.9777C40.8444 42.9983 40.9417 43.0498 41.018 43.1254C41.0942 43.2011 41.1461 43.2975 41.1669 43.4025C41.1877 43.5075 41.1766 43.6163 41.1349 43.7149C41.0933 43.8136 41.0229 43.8978 40.9329 43.9567C40.8429 44.0156 40.7372 44.0466 40.6293 44.0457C40.4863 44.0457 40.3492 43.9894 40.2481 43.8891C40.147 43.7888 40.0902 43.6528 40.0902 43.5109Z" fill="black"/>
<path d="M64.7824 51.4465C64.7433 51.5802 64.7476 51.7527 64.7215 51.9037C63.8957 51.4724 63.0481 51.0411 62.1831 50.6788C59.4993 49.578 56.6641 48.883 53.7724 48.6172C50.9772 48.2778 48.142 48.4844 45.4268 49.2254C44.3358 49.5359 43.2535 49.8896 42.1755 50.2863L41.9191 50.4114C41.9191 50.3553 41.893 50.295 41.88 50.226C41.8495 50.0362 41.8104 49.855 41.7756 49.6653C42.4537 49.4367 43.1101 49.1046 43.7881 48.8717C44.7221 48.56 45.6743 48.305 46.6395 48.1083C48.8566 47.7078 51.1143 47.5731 53.3638 47.7072C55.7137 47.7356 58.0473 48.1002 60.2923 48.7898C61.1838 49.0805 62.055 49.4292 62.9003 49.8335C63.5697 50.1613 64.2347 50.6702 64.9302 50.9419C64.8737 51.1101 64.8302 51.2783 64.7824 51.4465Z" fill="#F09D2E"/>
<path d="M60.0663 42.0185C60.0655 41.9117 60.0966 41.8071 60.1558 41.7178C60.215 41.6286 60.2996 41.5589 60.3988 41.5174C60.498 41.4759 60.6075 41.4646 60.7132 41.4849C60.8189 41.5052 60.9161 41.5563 60.9926 41.6315C61.069 41.7067 61.1212 41.8027 61.1426 41.9074C61.1639 42.0121 61.1534 42.1208 61.1124 42.2195C61.0714 42.3183 61.0017 42.4027 60.9122 42.4622C60.8228 42.5216 60.7175 42.5533 60.6098 42.5533C60.5665 42.5578 60.5228 42.5578 60.4794 42.5533H60.4446C60.3312 42.5175 60.2328 42.4458 60.1645 42.3492C60.0962 42.2526 60.0617 42.1364 60.0663 42.0185Z" fill="#006790"/>
<path d="M51.3914 40.5391C51.3914 40.4323 51.4234 40.3279 51.4833 40.2391C51.5432 40.1504 51.6283 40.0813 51.7279 40.0406C51.8275 39.9999 51.937 39.9895 52.0425 40.0107C52.148 40.0318 52.2449 40.0836 52.3207 40.1594C52.3965 40.2353 52.448 40.3317 52.4684 40.4366C52.4889 40.5415 52.4775 40.65 52.4357 40.7484C52.3939 40.8468 52.3236 40.9307 52.2336 40.9895C52.1437 41.0482 52.0382 41.0791 51.9305 41.0782C51.7871 41.0771 51.65 41.0198 51.549 40.9188C51.448 40.8178 51.3914 40.6813 51.3914 40.5391Z" fill="black"/>
<path d="M44.0266 41.3584C44.0261 41.2561 44.0549 41.1557 44.1097 41.0691C44.1645 40.9824 44.243 40.913 44.3361 40.8689C44.4292 40.8249 44.5331 40.808 44.6355 40.8203C44.7379 40.8326 44.8346 40.8736 44.9144 40.9384C44.9942 41.0032 45.0538 41.0892 45.0862 41.1864C45.1185 41.2835 45.1223 41.3878 45.0972 41.487C45.072 41.5863 45.0189 41.6763 44.9441 41.7467C44.8692 41.8171 44.7757 41.865 44.6745 41.8846C44.63 41.8759 44.5842 41.8759 44.5397 41.8846C44.4031 41.877 44.2744 41.8187 44.1793 41.7211C44.0842 41.6236 44.0297 41.4941 44.0266 41.3584Z" fill="#006790"/>
<path d="M41.5191 48.2375C41.3018 46.8789 41.0366 45.5117 40.7541 44.1618C41.2235 44.7656 41.9146 45.8481 42.7101 45.2012C43.1435 44.7826 43.4956 44.2884 43.7489 43.7434C44.0662 43.1784 44.4183 42.6135 44.7139 42.0183C45.1703 42.6048 45.631 43.1828 46.1265 43.7434C46.6221 44.3041 47.3653 44.9856 48.2303 44.9769C48.9214 44.9769 49.5039 44.3904 49.9342 43.9289C50.6628 43.1024 51.32 42.2166 51.8989 41.2808C52.5726 42.9067 53.7332 44.757 55.3762 45.0244C57.1583 45.3133 59.0056 44.1144 60.3487 42.7903C60.4371 43.3629 60.5634 43.9291 60.7269 44.4853C61.0225 45.5031 61.3441 46.59 62.3308 47.142C63.1741 47.6164 64.3303 47.142 65.1387 46.8186C65.5998 46.6395 66.0497 46.4336 66.4862 46.2018C66.1428 47.0644 65.8342 47.927 65.5386 48.7896C65.3387 49.3761 65.1909 49.9713 65.0388 50.5665L64.9736 50.7951C64.2911 50.5233 63.6261 50.023 62.9698 49.6953C62.0439 49.2564 61.0917 48.8747 60.1184 48.5523C57.9563 47.8648 55.7071 47.4844 53.4376 47.4224C49.4387 47.2369 45.292 47.6423 41.7799 49.6392C41.6843 49.1691 41.6017 48.7033 41.5191 48.2375Z" fill="#F09D2E"/>
<path d="M39.2939 85.8723C38.8027 85.2512 38.3941 84.5784 37.9595 83.9401C37.0467 82.4573 36.3336 80.8624 35.8383 79.1959C34.7604 75.987 34.4865 72.4073 34.3648 69.0476C34.3114 65.5399 34.9447 62.0553 36.2295 58.7871C36.5182 57.9308 36.8519 57.0901 37.2292 56.2684C37.351 56.0312 37.4727 55.8026 37.5987 55.5697C37.8291 55.1384 38.0334 54.7071 38.2594 54.2758C38.4854 53.9152 38.7306 53.5668 38.994 53.2321C39.195 52.941 39.4127 52.6617 39.646 52.3954C39.9937 52.0158 40.3936 51.6794 40.7587 51.3171C41.1173 51.3296 41.4732 51.3831 41.8193 51.4767C42.6877 51.6999 43.5298 52.0136 44.3317 52.4126C43.5474 52.5041 42.7889 52.7481 42.0998 53.1307C41.4106 53.5133 40.8042 54.027 40.3154 54.6424C39.8729 55.2045 39.572 55.8631 39.4374 56.5637C39.3028 57.2642 39.3386 57.9865 39.5417 58.6707C39.2591 58.9122 38.8375 59.1278 38.5593 59.3392C38.2218 59.6089 37.9286 59.929 37.69 60.288C37.1224 61.133 36.8463 62.1379 36.9032 63.1518C36.9168 64.0292 37.123 64.8932 37.5074 65.6835C37.4416 65.9607 37.3484 66.2309 37.2292 66.49C37.0871 66.9378 36.9753 67.3946 36.8946 67.8572C36.7576 68.8045 36.6835 69.7597 36.6729 70.7167C36.606 72.604 36.8064 74.4914 37.2684 76.3234C37.6499 78.0314 38.229 79.6899 38.994 81.2661C39.399 82.0393 39.8519 82.7869 40.3501 83.5045C40.7399 84.1275 41.1866 84.7136 41.6846 85.2555C41.3933 85.5186 41.1064 85.786 40.8152 86.0491C40.524 86.3122 40.3067 86.5235 40.0589 86.7693C39.8372 86.4416 39.5112 86.1526 39.2939 85.8723Z" fill="#006790"/>
<path d="M50.6085 59.6453C49.4654 60.9003 47.6485 60.9392 46.0793 60.9003C44.5102 60.8615 42.7628 60.3052 41.7327 59.1148C41.2228 58.4802 40.9376 57.6967 40.9211 56.8853C40.9046 56.0738 41.1577 55.2796 41.6414 54.625C42.4716 53.5554 43.7843 53.0465 45.1187 52.8524C45.2709 52.943 45.423 53.0465 45.5534 53.15C44.4551 53.289 43.4529 53.8419 42.7542 54.6941C41.9674 55.6386 41.8457 57.3551 42.7542 58.2565C44.0016 59.4814 45.5838 59.8911 47.3312 59.8609C48.4222 59.8609 49.5045 59.6539 50.2999 58.8948L50.3825 59.0544C50.5607 59.4081 50.7259 59.7617 50.8867 60.1154C50.3586 60.5469 49.7877 60.9241 49.1828 61.2411C48.3245 61.6478 47.4003 61.9004 46.4531 61.9872C44.6232 62.1727 42.0239 61.6982 40.7634 60.262C40.1116 59.5095 39.7292 58.5641 39.6757 57.5733C39.6223 56.5824 39.9008 55.6019 40.4678 54.7846C41.4154 53.4347 42.9367 52.7748 44.5102 52.5247L44.8884 52.736C44.4878 52.788 44.0943 52.8834 43.7148 53.0206C42.9309 53.2846 42.2207 53.7278 41.6414 54.3145C40.3809 55.5739 40.4896 57.3681 41.2546 58.8388C42.0978 60.4518 44.2277 61.2238 45.9533 61.336C47.5311 61.4395 49.8305 61.336 50.6346 59.6755C50.6824 59.6367 50.6346 59.6151 50.6085 59.6453Z" fill="#F09D2E"/>
<path d="M45.9717 56.4322C46.4063 57.0447 47.3235 57.2344 48.0189 57.3207C48.4817 57.3701 48.949 57.2879 49.3664 57.0835C49.4751 57.2646 49.5794 57.4544 49.6794 57.6398C48.9891 57.9693 48.2372 58.1525 47.4716 58.1777C46.706 58.203 45.9436 58.0697 45.2327 57.7865C43.8722 57.3164 43.5462 55.9449 44.4069 54.8408C44.902 54.269 45.5595 53.8586 46.2933 53.6633C46.4672 53.797 46.6411 53.9394 46.8106 54.0946C45.8369 54.4655 45.3023 55.4963 45.9717 56.4322Z" fill="#F09D2E"/>
<path d="M46.8711 54.1418C47.4225 54.5946 47.9305 55.0971 48.3885 55.6427C48.7218 56.0494 49.0213 56.4821 49.2842 56.9366C48.4848 57.0839 47.6594 56.9955 46.9102 56.6822C46.733 56.6336 46.5678 56.5492 46.425 56.4343C46.2822 56.3194 46.1649 56.1765 46.0804 56.0145C45.9959 55.8525 45.9461 55.675 45.934 55.493C45.9219 55.3111 45.9478 55.1286 46.0102 54.957C46.1916 54.5933 46.4964 54.3047 46.8711 54.1418Z" fill="#F09D2E"/>
<path d="M44.0663 54.9573C43.8018 55.2879 43.6517 55.6943 43.6384 56.1162C43.6251 56.538 43.7493 56.9529 43.9924 57.2993C44.527 58.1187 45.9484 58.3775 46.8177 58.4637C47.8408 58.5782 48.8712 58.3241 49.7213 57.7478C49.9038 58.0842 50.0734 58.4206 50.2429 58.757C48.5564 59.8956 46.0005 59.5937 44.2097 58.8692C43.8761 58.7345 43.5727 58.5354 43.3171 58.2835C43.0616 58.0316 42.859 57.7319 42.7212 57.4017C42.5833 57.0715 42.5128 56.7174 42.5139 56.36C42.515 56.0026 42.5876 55.649 42.7275 55.3196C43.197 54.1595 44.527 53.5082 45.7267 53.271C45.8962 53.3874 46.0614 53.5125 46.2266 53.6376C45.3767 53.8222 44.615 54.2874 44.0663 54.9573Z" fill="#F09D2E"/>
<path d="M52.2383 63.4749C51.2553 63.3808 50.2637 63.4316 49.2957 63.6259C48.6176 63.7337 47.8135 63.9192 47.3353 64.441C47.4872 64.0815 47.7506 63.7793 48.0873 63.5784C48.6645 63.3128 49.2737 63.1215 49.8998 63.0091C50.4649 62.8841 51.5298 62.5002 52.0732 62.9574C52.121 63.1515 52.1775 63.3067 52.2383 63.4749Z" fill="#006790"/>
<path d="M51.8332 62.621C51.2594 62.4787 50.4596 62.6987 49.8946 62.7849C49.1712 62.8792 48.4714 63.1044 47.8299 63.4491C47.3605 63.7122 47.2909 64.3764 47.104 64.812C47.104 64.7818 47.1431 64.7473 47.1649 64.7128C47.1717 64.7181 47.1801 64.7209 47.1888 64.7209C47.1974 64.7209 47.2058 64.7181 47.2127 64.7128C47.8908 63.9796 49.3295 63.8847 50.2553 63.7855C50.7465 63.7338 51.2377 63.6648 51.7288 63.626C51.9236 63.633 52.1173 63.659 52.3069 63.7036C52.6286 64.6438 52.9329 65.597 53.2371 66.5587C53.8022 68.3572 54.389 70.16 54.9758 71.9542C54.9758 72.0879 54.8845 72.2259 54.8541 72.351C54.8202 72.4843 54.7706 72.6131 54.7063 72.7348C53.724 74.0762 51.9983 74.9387 50.677 75.9048C49.9554 76.431 49.2991 77.147 48.5036 77.5265C47.7082 77.906 46.2608 77.7939 45.7913 76.9658C45.7913 76.9658 45.7609 76.9658 45.7653 76.9658C45.8087 77.0607 45.8565 77.1513 45.9 77.2332C45.3935 76.9174 44.9138 76.5611 44.4656 76.1679C43.7456 75.4945 43.0719 74.7741 42.4488 74.0115C41.2361 72.5278 39.8669 70.8242 40.1842 68.7928C40.3753 67.9471 40.634 67.1178 40.9579 66.3129C40.978 66.4986 41.0431 66.6768 41.1475 66.8322C41.252 66.9877 41.3927 67.1158 41.5577 67.2057C42.2879 67.6025 43.2268 67.2359 43.8788 66.8736L43.9788 66.9555C43.4876 66.3992 43.0617 65.7091 42.3749 65.3511C42.1733 65.2469 41.9424 65.2123 41.7189 65.253C41.4953 65.2936 41.2917 65.4071 41.1404 65.5754V65.5495C41.154 65.5398 41.1647 65.5267 41.1716 65.5116C41.1785 65.4964 41.1812 65.4798 41.1796 65.4633C41.1796 65.4633 41.1796 65.4374 41.1796 65.4244C41.1796 65.4115 41.1796 65.4244 41.1796 65.4029C42.0489 64.8379 42.9617 65.515 43.4876 66.287C43.4876 66.287 43.5224 66.287 43.5137 66.2655C43.2659 65.8342 42.8965 65.1225 42.3314 65.0104C42.1294 64.9694 41.9204 64.9766 41.7217 65.0314C41.5229 65.0861 41.3401 65.1868 41.1882 65.3252C41.2312 65.0659 41.2458 64.8027 41.2317 64.5403C41.2245 64.3763 41.2027 64.2132 41.1665 64.0529C41.2303 64.0797 41.2976 64.0972 41.3665 64.1047C42.1782 64.1286 42.9737 64.3366 43.6919 64.7128C43.7397 64.743 43.8006 64.7128 43.7875 64.6352C43.7578 64.4837 43.7035 64.3381 43.6267 64.2039C43.192 63.186 41.7359 63.1257 40.7449 63.0006C40.671 62.8626 40.5928 62.7289 40.5145 62.5693C40.0407 61.7498 40.0799 61.0166 40.2146 60.1541C41.3708 61.9051 43.8614 62.3536 45.8174 62.4183C46.9378 62.4793 48.0527 62.2251 49.0339 61.6851C49.6425 61.3315 50.6465 60.939 50.9769 60.2576C51.3333 61.0468 51.6506 61.8533 51.9462 62.6599C51.9095 62.6444 51.8717 62.6314 51.8332 62.621Z" fill="white"/>
<path d="M57.6279 78.8248C56.1992 79.5223 54.5963 79.7906 53.0161 79.5968C52.7373 79.557 52.4625 79.4935 52.1946 79.4071C51.9546 79.3314 51.7231 79.2317 51.5035 79.1095C51.2615 78.9314 51.0955 78.6698 51.0384 78.3763C51.0141 78.3389 50.9923 78.3 50.9732 78.2598C50.8356 77.8336 50.6761 77.4147 50.4951 77.0048C50.4263 76.9143 50.3523 76.8279 50.2734 76.746L50.3516 76.6813C50.5863 76.7848 50.8471 76.9573 51.0688 77.0393C51.3764 77.1395 51.6942 77.2061 52.0164 77.2377C52.7798 77.2919 53.5469 77.2176 54.2853 77.0177C54.6591 76.9444 55.9849 76.7589 56.5238 76.3535C56.8672 77.1816 57.2497 78.0097 57.6279 78.8248Z" fill="#006790"/>
<path d="M54.7983 78.3803C53.5472 78.6225 52.2587 78.6005 51.0167 78.3157L51.0428 78.3631C51.0958 78.6607 51.2604 78.9273 51.5035 79.1092C51.7136 79.2281 51.9349 79.3264 52.1642 79.4025C52.4321 79.489 52.7069 79.5524 52.9858 79.5923C54.566 79.786 56.1688 79.5177 57.5975 78.8203C57.444 78.5011 57.2991 78.1819 57.1629 77.8628C56.3895 78.0962 55.5989 78.2692 54.7983 78.3803Z" fill="white"/>
<path d="M50.2262 94.4853C50.3142 94.3326 50.4161 94.1882 50.5306 94.054C50.5442 94.0541 50.5574 94.0494 50.5677 94.0407C50.5781 94.032 50.585 94.0199 50.5871 94.0065C51.0697 93.476 51.7784 93.1439 52.4045 93.5752C53.0306 94.0065 53.2741 94.9985 53.2741 95.8223C53.2011 95.6193 53.086 95.4339 52.9362 95.2779C52.7864 95.1219 52.6053 94.9988 52.4045 94.9166C51.3915 94.5198 50.6653 95.2486 50.3349 96.1112C50.3773 95.5669 50.3407 95.0193 50.2262 94.4853Z" fill="#F09D2E"/>
<path d="M47.1679 92.1342C47.3294 92.7883 47.3487 93.469 47.2245 94.1311C47.1756 93.7174 47.0047 93.3273 46.7331 93.0097C46.0505 92.2722 45.207 92.7596 44.6896 93.441C44.8809 92.8501 45.1026 92.2722 45.3331 91.7158C45.9505 90.9783 46.8636 91.1508 47.1679 92.1342Z" fill="black"/>
<path d="M45.4299 91.462C45.5212 91.2377 45.6168 91.0307 45.7081 90.7978C45.7994 90.5649 45.856 90.4657 45.9386 90.3018C46.3256 89.8274 46.8951 89.4867 47.4691 89.836C48.043 90.1854 48.1387 90.9919 48.1561 91.5612C47.8955 91.7195 47.6694 91.9277 47.4908 92.1736C47.4122 91.8107 47.2365 91.4755 46.9821 91.2032C46.456 90.6728 45.8255 90.9962 45.4299 91.462Z" fill="#F09D2E"/>
<path d="M47.2543 95.1365C47.2626 94.9698 47.2626 94.8029 47.2543 94.6362C47.3026 94.1617 47.5368 93.7249 47.9065 93.42C48.5978 92.842 49.5456 93.42 49.8239 94.0712C50.0577 94.7883 50.1708 95.5388 50.1587 96.2923C50.0579 95.9818 49.8885 95.6976 49.6629 95.4603C49.4372 95.223 49.161 95.0387 48.8543 94.9208C48.6142 94.8576 48.362 94.8548 48.1205 94.9128C47.879 94.9708 47.656 95.0877 47.4717 95.2529C47.3614 95.3632 47.265 95.4863 47.1847 95.6195C47.2543 95.4384 47.2543 95.2702 47.2543 95.1365Z" fill="#F09D2E"/>
<path d="M49.1609 93.0662C48.2913 92.7126 47.6173 93.2905 47.3564 94.0366C47.5327 93.4793 47.5817 92.89 47.4999 92.3115C47.7297 91.9808 48.0777 91.7491 48.4733 91.6634C48.8689 91.5777 49.2826 91.6444 49.6304 91.85C50.3522 92.2813 50.3739 93.1697 50.4653 93.9116C50.3612 94.0568 50.2737 94.213 50.2044 94.3774C50.1496 94.0917 50.0262 93.8233 49.8445 93.595C49.6628 93.3667 49.4283 93.1854 49.1609 93.0662Z" fill="black"/>
<path d="M49.4818 91.4267C49.2774 91.3604 49.0616 91.3353 48.8473 91.3531C48.6329 91.3709 48.4244 91.4311 48.2339 91.5302C48.2574 91.145 48.2237 90.7585 48.1339 90.383C48.2755 90.2193 48.4377 90.0744 48.6165 89.9517C48.8205 89.8481 49.055 89.8198 49.278 89.872C49.5011 89.9241 49.6981 90.0533 49.834 90.2364C50.334 90.741 50.4557 91.4483 50.6427 92.0996C50.6456 92.1082 50.6507 92.116 50.6576 92.122C50.6645 92.1281 50.6728 92.1322 50.6818 92.1341C50.6038 92.2262 50.5312 92.3226 50.4644 92.423C50.3777 92.1993 50.2458 91.9956 50.0768 91.8243C49.9078 91.6529 49.7053 91.5177 49.4818 91.4267Z" fill="#F09D2E"/>
<path d="M50.4642 90.8106C50.899 89.9868 52.0339 89.948 52.7469 90.4095C53.3556 90.8063 53.5035 91.7034 53.5817 92.346C53.5271 92.4576 53.4807 92.5729 53.4426 92.691C53.365 92.4279 53.2324 92.1839 53.0533 91.9751C52.8743 91.7663 52.6528 91.5973 52.4034 91.4791C51.786 91.1556 51.173 91.5438 50.7512 92.0096C50.7268 91.5964 50.6297 91.1906 50.4642 90.8106Z" fill="#F09D2E"/>
<path d="M53.5508 91.0303C53.4628 90.7967 53.3287 90.5829 53.1562 90.4014C52.9838 90.22 52.7766 90.0745 52.5467 89.9737C51.8165 89.6243 50.6994 89.9737 50.4429 90.7672C50.2821 90.4233 50.0547 90.114 49.7736 89.8572C49.1389 89.2879 48.5043 89.8184 48.1175 90.3316C48.0598 90.1127 47.9397 89.9149 47.7717 89.7619C47.6036 89.609 47.3947 89.5073 47.1699 89.469C46.99 89.4564 46.8095 89.4809 46.6397 89.5411C46.4698 89.6012 46.3144 89.6956 46.1832 89.8184C46.3161 89.5504 46.4224 89.2701 46.5005 88.9817C48.3036 89.4602 50.1524 89.7494 52.0164 89.8443C52.995 89.9003 53.9761 89.9003 54.9547 89.8443C54.6466 89.9261 54.3608 90.075 54.1179 90.2802C53.8751 90.4853 53.6813 90.7416 53.5508 91.0303Z" fill="black"/>
<path d="M52.4163 89.4862C50.4079 89.4406 48.4144 89.1317 46.4875 88.5676C44.8271 88.0544 42.6755 87.2349 41.628 85.7599L41.9409 85.4537C42.0018 85.4537 42.0627 85.3933 42.0627 85.3286C42.2669 85.1302 42.4973 84.9404 42.6929 84.7463C43.0275 85.2662 43.4327 85.7379 43.8969 86.148C44.6082 86.6468 45.3828 87.05 46.2007 87.347C48.0393 88.119 50.2821 88.4382 52.2599 88.6021C54.2494 88.7068 56.2444 88.5619 58.1974 88.1708C59.1078 88.0149 60.0045 87.7885 60.8792 87.4937C61.4574 87.2953 62.3267 87.0969 62.8352 86.6742L62.8613 86.7001C63.1503 87.0127 63.4549 87.3107 63.7741 87.5929C63.076 87.9225 62.3484 88.1867 61.6008 88.3821C60.5819 88.7026 59.5401 88.9463 58.4842 89.111C56.4811 89.452 54.4467 89.5778 52.4163 89.4862Z" fill="black"/>
<path d="M43.442 64.3896C43.1804 64.2676 42.902 64.1847 42.6159 64.1438C42.2289 64.0661 41.8202 64.0273 41.4376 63.9152C41.2536 63.8618 41.0977 63.7397 41.0028 63.5744C40.968 63.4882 40.9288 63.4019 40.8897 63.3157C41.7854 63.4106 42.968 63.4149 43.4985 64.1308C43.4954 64.1361 43.4938 64.142 43.4938 64.1481C43.4938 64.1541 43.4954 64.1601 43.4985 64.1653C43.6029 64.4198 43.7768 64.5664 43.442 64.3896Z" fill="#006790"/>
<path d="M41.0765 65.9205C42.0939 64.9587 43.0244 66.1362 43.8418 66.8262C43.3483 67.0607 42.7997 67.1576 42.2548 67.1066C41.9463 67.1068 41.6496 66.9882 41.4274 66.7758C41.2052 66.5635 41.0747 66.2738 41.0635 65.968L41.0765 65.9205Z" fill="white"/>
<path d="M40.7884 64.066C40.9634 64.4485 41.058 64.8623 41.0667 65.2823C40.3333 64.7715 39.7726 64.0529 39.4579 63.2207C39.2628 62.6077 39.2357 61.9541 39.3797 61.3273C39.5122 60.8421 39.7648 60.3973 40.1145 60.0334C40.1262 60.0497 40.1364 60.0671 40.1449 60.0852C40.1449 60.1111 40.1797 60.1326 40.1927 60.1542C40.0073 60.711 39.9105 61.293 39.9058 61.8794C39.9275 62.6686 40.5014 63.363 40.7884 64.066Z" fill="#F09D2E"/>
<path d="M39.22 60.995C38.9372 61.5624 38.8414 62.2036 38.9461 62.828C39.22 64.04 39.8157 65.0276 40.994 65.4977L40.9635 65.5279L41.0027 65.4977L41.0418 65.5193C41.0418 65.5797 41.0418 65.64 41.007 65.7004C40.9346 65.7922 40.8733 65.8921 40.8244 65.998C40.794 66.0627 40.8592 66.0929 40.9027 66.0627L40.7461 66.4422C39.3896 65.9333 38.6548 64.4799 38.2852 63.1817C38.0703 62.332 38.1515 61.4352 38.5156 60.6371C38.6287 60.3955 39.3026 59.3432 39.7722 59.313C39.8598 59.5271 39.96 59.7359 40.0722 59.9384C39.728 60.2384 39.4395 60.596 39.22 60.995Z" fill="#F09D2E"/>
<path d="M39.0252 59.7658C38.2513 60.5206 38.0252 61.3271 37.8774 62.3536C37.6904 63.8286 38.96 66.5716 40.734 66.5242C40.6253 66.7873 40.5122 67.046 40.4079 67.3091C40.3715 67.3966 40.3396 67.4858 40.3122 67.5765C38.1382 67.1452 37.3165 64.6308 37.2947 62.7633C37.3035 61.7935 37.625 60.8518 38.2122 60.0763C38.573 59.5674 39.1818 59.2569 39.5818 58.7825C39.634 58.955 39.6948 59.1232 39.7644 59.2914C39.4797 59.3811 39.2244 59.5449 39.0252 59.7658Z" fill="#F09D2E"/>
<path d="M41.5286 73.3605C40.9145 73.1018 40.3847 72.6793 39.9981 72.14C39.6121 71.5999 39.4346 70.9402 39.4981 70.2811C39.5765 69.8987 39.7238 69.5335 39.9329 69.2029C39.9126 69.3869 39.8995 69.5724 39.8938 69.7592C39.8633 71.0186 40.6938 72.3039 41.5286 73.3605Z" fill="#F09D2E"/>
<path d="M39.9628 69.0432C39.7312 69.3237 39.5503 69.6418 39.428 69.9834C39.2398 70.5166 39.2552 71.0997 39.4715 71.6224C39.8715 72.4849 40.6672 73.5675 41.7455 73.6149C41.9151 73.8219 42.0803 74.016 42.2368 74.1972C42.3325 74.3136 42.4368 74.4171 42.5325 74.5249C41.9499 74.5249 41.1933 74.0937 40.715 73.947C40.2813 73.7582 39.8933 73.4797 39.5768 73.1301C39.2604 72.7805 39.0229 72.3679 38.8802 71.9199C38.7014 71.3984 38.6476 70.8427 38.7231 70.2969C38.7986 69.7512 39.0012 69.2304 39.315 68.7758C39.5628 68.4049 39.9672 68.1461 40.2281 67.7925C40.1007 68.2003 40.0119 68.619 39.9628 69.0432Z" fill="#F09D2E"/>
<path d="M39.506 68.2929C39.1981 68.5751 38.9499 68.9152 38.7758 69.2935C38.3651 70.1545 38.2999 71.1382 38.5932 72.0452C38.8517 72.8568 39.4088 73.5421 40.1536 73.9644C40.7274 74.2836 41.8923 74.7925 42.6312 74.6459C42.7529 74.7839 42.8746 74.9219 43.0007 75.0556C42.2 75.1955 41.3777 75.1513 40.597 74.9262C39.6601 74.5237 38.8922 73.8121 38.4237 72.9121C37.9037 71.9317 37.7839 70.7905 38.089 69.7248C38.362 68.9191 38.753 68.1576 39.2495 67.4648C39.5674 67.6094 39.9091 67.6956 40.258 67.7193V67.7538C40.058 67.9479 39.6972 68.1161 39.506 68.2929Z" fill="#F09D2E"/>
<path d="M47.5134 79.0532C47.6844 79.3585 47.9432 79.6063 48.2569 79.7649L47.8221 80.0927C47.3395 80.0237 46.8873 79.45 46.6395 79.1222C46.4673 78.8594 46.3463 78.5668 46.2829 78.2597C46.2595 78.1142 46.276 77.9653 46.3308 77.8284C46.5946 78.0404 46.9261 78.152 47.2656 78.1432H47.3525C47.3251 78.4553 47.3806 78.769 47.5134 79.0532Z" fill="#F09D2E"/>
<path d="M48.8137 78.4196C48.9258 78.6212 49.0854 78.7929 49.279 78.9199L49.379 78.9802C49.1674 79.1043 48.9628 79.2397 48.7659 79.3857L48.5181 79.5711C48.2348 79.4797 47.9852 79.3071 47.8007 79.0751C47.581 78.7933 47.4468 78.4552 47.4137 78.1004C47.8392 78.1067 48.2614 78.0244 48.6529 77.8589C48.6766 78.053 48.7309 78.2422 48.8137 78.4196Z" fill="#F09D2E"/>
<path d="M48.7446 77.8158C49.1121 77.6284 49.4577 77.4013 49.775 77.1387L50.1751 76.8152C50.3794 77.2939 50.5012 77.7899 50.6577 78.2773C50.3229 78.4627 49.9924 78.6309 49.662 78.8164C49.438 78.6906 49.2355 78.5305 49.062 78.342C48.9165 78.1933 48.8078 78.0132 48.7446 77.8158Z" fill="#F09D2E"/>
<path d="M46.1063 78.2942C46.1324 78.6942 46.2726 79.0787 46.5107 79.4026C46.7761 79.8006 47.1776 80.0901 47.6411 80.2178L46.9933 80.6922C46.3363 80.4931 45.7615 80.0893 45.3541 79.5406C45.114 79.176 44.9706 78.7571 44.9372 78.3229C44.9038 77.8886 44.9814 77.453 45.1628 77.0564C45.4568 77.2903 45.7872 77.4753 46.1411 77.6041C46.1828 77.6505 46.2278 77.6937 46.2759 77.7335C46.18 77.9064 46.1222 78.0975 46.1063 78.2942Z" fill="#F09D2E"/>
<path d="M50.6942 82.8403C51.3308 82.9883 51.9754 83.1006 52.6247 83.1767C51.789 84.4442 51.0339 85.7622 50.3638 87.1231C50.6413 85.7131 50.7522 84.2758 50.6942 82.8403Z" fill="black"/>
<path d="M57.438 86.8381C57.1206 86.1523 56.7337 85.4925 56.3728 84.824C56.119 84.2533 55.7885 83.7194 55.3901 83.2368C55.9425 83.1877 56.4913 83.1056 57.0337 82.991L57.4337 82.9133C57.3989 84.2331 57.3511 85.5183 57.438 86.8381Z" fill="black"/>
<path d="M56.0283 84.7771C56.4196 85.506 56.837 86.2176 57.2631 86.9336H57.2023C56.205 87.1078 55.1967 87.213 54.1848 87.2484C54.3413 86.6964 54.5587 86.1615 54.7326 85.6138C54.9717 84.859 55.0674 84.0741 55.2761 83.3193C55.4907 83.8228 55.7421 84.31 56.0283 84.7771Z" fill="black"/>
<path d="M54.5814 85.0526C54.4814 85.4364 54.3727 85.8116 54.2857 86.1998C54.2249 86.4629 54.2292 86.9287 54.1336 87.2521C53.8944 86.5966 53.6988 85.9195 53.4944 85.2466C53.3398 84.5566 53.1423 83.8768 52.9031 83.2109C53.6547 83.302 54.4136 83.3179 55.1684 83.2584C54.951 83.8536 54.7423 84.4444 54.5814 85.0526Z" fill="black"/>
<path d="M53.1737 85.1478C53.387 85.8833 53.6499 86.6037 53.9607 87.3042C53.3737 87.3042 52.7867 87.3042 52.2215 87.3042C51.6397 87.2985 51.0588 87.2567 50.4823 87.1792C50.9497 86.5609 51.356 85.8994 51.6954 85.2038C52.0476 84.5914 52.4345 83.9876 52.7606 83.3579C52.8371 83.9668 52.9755 84.5665 53.1737 85.1478Z" fill="black"/>
<path d="M50.2347 87.1228C49.3342 86.9948 48.4496 86.7736 47.5955 86.4629C48.1737 85.8419 48.7129 85.1691 49.2564 84.5437C49.7573 84.0272 50.2085 83.4656 50.6043 82.866C50.3902 84.2757 50.2667 85.6975 50.2347 87.1228Z" fill="black"/>
<path d="M49.0695 84.3926C48.6347 84.9059 47.8477 85.6563 47.6477 86.2429C48.0871 84.8649 48.3615 83.4405 48.4651 81.9989L48.5043 81.9688C48.6999 82.0766 48.8912 82.1671 49.0478 82.2491C49.5085 82.4797 49.9923 82.6619 50.4913 82.7925C50.1 83.3532 49.4999 83.8751 49.0695 84.3926Z" fill="black"/>
<path d="M47.4459 86.4066L47.2111 86.316C46.4828 86.0069 45.7805 85.6406 45.111 85.2205L45.0371 85.1731C46.0685 84.0903 47.1678 83.0733 48.3285 82.1282C48.2606 82.3623 48.2055 82.5998 48.1633 82.8398C48.0503 83.2711 47.9285 83.7283 47.8155 84.1768C47.6242 84.9143 47.572 85.6518 47.4459 86.4066Z" fill="black"/>
<path d="M46.8171 83.2714C46.2953 83.7372 45.7866 84.2203 45.2822 84.7076C45.5301 84.2375 45.717 83.72 45.9562 83.2887C46.3518 82.5253 46.9736 81.7792 47.2606 80.9511L47.3953 80.8562C47.4835 81.087 47.6175 81.2978 47.7892 81.4764C47.961 81.6549 48.1671 81.7975 48.3954 81.8956C47.8361 82.3153 47.3086 82.7752 46.8171 83.2714Z" fill="black"/>
<path d="M44.8232 85.044C44.3149 84.7894 43.8853 84.4034 43.5797 83.9269C44.2898 83.303 44.9985 82.7035 45.7058 82.1284C46.1667 81.7575 46.6363 81.3996 47.1102 81.0459C46.758 81.7058 46.2406 82.3398 45.8623 82.9652C45.4841 83.5905 45.1971 84.3755 44.8232 85.044Z" fill="black"/>
<path d="M46.8194 80.809C46.5194 81.029 46.2237 81.2403 45.928 81.4861C44.9845 81.2532 44.4106 80.5545 43.9236 79.7351C43.3671 78.7906 43.3497 77.0913 44.3584 76.3926C44.5845 76.6039 44.828 76.8239 45.0845 77.0223C43.9584 78.355 45.1411 80.7314 46.8194 80.809Z" fill="#F09D2E"/>
<path d="M43.3146 78.9454C43.424 79.5757 43.7118 80.1622 44.1444 80.6364C44.5771 81.1106 45.1367 81.453 45.7582 81.6237C45.5929 81.7531 45.4321 81.8868 45.2712 82.0205C44.0581 81.9903 43.045 80.856 42.6624 79.8209C42.4102 79.1012 42.3645 78.3261 42.5304 77.5821C42.6962 76.8381 43.067 76.1544 43.6016 75.6072C43.7885 75.7883 43.9668 75.9738 44.1581 76.1506L44.3538 76.3361C43.445 76.7501 43.1928 78.1302 43.3146 78.9454Z" fill="#F09D2E"/>
<path d="M42.1763 79.7694C42.4552 80.4734 42.8907 81.1058 43.4503 81.6196C43.8913 81.9873 44.4404 82.2037 45.0156 82.2364L44.359 82.8013C43.6286 82.8013 42.8024 82.2364 42.3242 81.7792C41.6547 81.1367 41.228 80.2855 41.1154 79.3683C41.0875 78.5094 41.2711 77.6567 41.6502 76.884C41.9252 76.3057 42.289 75.7732 42.7285 75.3055C42.8683 75.2886 43.0046 75.2507 43.1329 75.1934C43.2633 75.3271 43.3981 75.4521 43.5286 75.5815C42.3285 76.4225 41.6024 78.4065 42.1763 79.7694Z" fill="#F09D2E"/>
<path d="M39.1594 67.4213C38.8218 67.7222 38.529 68.0693 38.29 68.4521C38.0451 68.9475 37.8472 69.4644 37.6989 69.9961C37.4497 71.0587 37.6044 72.1752 38.1336 73.1316C38.6525 74.0632 39.4825 74.7861 40.4807 75.1759C40.9155 75.3397 41.384 75.3959 41.8456 75.3398C42.0586 75.3398 42.2803 75.3398 42.528 75.3183C42.1963 75.6039 41.904 75.9316 41.6587 76.293C41.0357 77.2223 40.7211 78.3216 40.7589 79.4371C40.7937 80.5498 41.4805 81.5332 42.2672 82.275C42.7179 82.6262 43.2497 82.8605 43.8146 82.9564C43.9059 82.9823 44.0059 83.0082 44.1015 83.0254C43.5756 83.4912 43.0583 83.97 42.5454 84.4487H42.5019C42.5019 84.4487 42.4585 84.4746 42.4758 84.4918L41.8456 85.0741C40.7894 83.9398 39.9809 82.3526 39.2941 80.9984C37.6673 77.5515 36.8924 73.7694 37.0339 69.9659C37.0347 68.9842 37.1088 68.004 37.2555 67.0331C37.387 66.6269 37.4887 66.2118 37.5598 65.791C37.9077 66.4873 38.4672 67.0576 39.1594 67.4213Z" fill="black"/>
<path d="M60.8019 87.2351C59.8605 87.5486 58.8912 87.7724 57.907 87.9036C56.0667 88.1989 54.2024 88.3202 52.339 88.2659C50.3854 88.1807 48.4538 87.822 46.6014 87.2006C45.6977 86.9056 44.8402 86.486 44.0543 85.9542C43.6658 85.6835 43.3086 85.3711 42.9893 85.0226C42.9589 84.9881 42.8589 84.8285 42.759 84.6905C43.0154 84.449 43.2719 84.2074 43.5327 83.9702C43.9673 85.1347 45.493 85.9326 46.5753 86.3509C48.446 87.1187 50.4453 87.5312 52.4694 87.5672C54.3672 87.6065 56.2633 87.4285 58.12 87.0367C59.0452 86.8291 59.9499 86.5405 60.8236 86.1741C61.2108 86.072 61.5644 85.8713 61.8494 85.5919C62.1102 85.8895 62.3841 86.1827 62.6535 86.4803C62.1841 86.8728 61.3322 87.0496 60.8019 87.2351Z" fill="#F09D2E"/>
<path d="M57.6055 82.9609C58.0403 83.4526 58.4403 83.9572 58.9099 84.423C59.4534 84.9535 59.9926 85.4883 60.5404 86.0188C60.3013 86.0964 60.0708 86.1611 59.8839 86.2301C59.1001 86.5061 58.2963 86.7223 57.4794 86.8771C57.5273 86.0792 57.5142 85.2813 57.5533 84.4834C57.626 83.9793 57.6435 83.4688 57.6055 82.9609Z" fill="black"/>
<path d="M60.8372 85.9153C60.5981 85.0527 60.4024 84.1901 60.1372 83.3621C60.2807 83.582 60.4198 83.7934 60.572 84.009C60.9372 84.5136 61.3242 84.9794 61.7199 85.4323C61.4612 85.6502 61.161 85.8144 60.8372 85.9153Z" fill="black"/>
<path d="M60.6921 85.9109C60.153 85.3503 59.6225 84.7809 59.0877 84.216C58.8008 83.9184 58.4921 83.6467 58.2181 83.3534C58.0685 83.1747 57.9026 83.0101 57.7225 82.8617C58.338 82.7833 58.9232 82.5502 59.4225 82.1846C59.566 82.4304 59.7182 82.6762 59.8573 82.9221C60.0921 83.927 60.3791 84.9362 60.6921 85.9109Z" fill="black"/>
<path d="M53.5673 82.9394C52.4697 82.8511 51.3827 82.6619 50.3203 82.3745C49.8412 82.235 49.3757 82.0532 48.9294 81.831C48.5556 81.6456 47.6863 81.2358 47.4689 80.7873C47.8833 80.4768 48.3006 80.1706 48.7208 79.8687C49.438 81.4127 51.5591 81.8267 53.1109 82.0553C54.2995 82.1808 55.5008 82.1109 56.6664 81.8483C57.2576 81.7405 57.7922 81.5334 58.3746 81.3695C58.5411 81.3354 58.6929 81.251 58.8093 81.128L59.3309 82.0553C57.4358 82.5858 55.5711 83.1163 53.5673 82.9394Z" fill="white"/>
<path d="M53.209 81.6586C51.7442 81.4818 49.7795 81.0203 48.8189 79.8041C49.2704 79.462 49.7437 79.1494 50.2359 78.8682C50.4185 78.769 50.5967 78.687 50.7662 78.5835C50.8238 78.7312 50.8906 78.8753 50.9661 79.0148C51.3095 79.6704 52.2701 79.8472 52.9265 79.9593C53.8947 80.0771 54.8765 80.0142 55.8213 79.7739C56.4936 79.6467 57.1299 79.3759 57.6861 78.9803C58.0077 79.6358 58.338 80.2742 58.6901 80.9254C56.9498 81.6064 55.0689 81.858 53.209 81.6586Z" fill="black"/>
<path d="M55.2552 76.4527C54.7162 76.5562 54.1772 76.7115 53.6383 76.8193C53.0218 76.9513 52.3892 76.9934 51.7605 76.9444C51.3064 76.8745 50.8597 76.7634 50.4261 76.6123L51.6649 75.5944C52.4799 75.7554 53.3212 75.7303 54.1251 75.5211C54.6423 75.409 55.5899 75.2278 55.9463 74.7664C56.1071 75.1976 56.2767 75.6764 56.4592 76.1249C56.0747 76.2877 55.6696 76.398 55.2552 76.4527Z" fill="#F09D2E"/>
<path d="M53.29 75.3921C52.7934 75.5336 52.2736 75.5776 51.76 75.5215C52.1251 75.2239 52.4902 74.9306 52.8641 74.6589C53.5388 74.2199 54.1451 73.6852 54.6636 73.0717C54.8854 72.8974 55.0391 72.6519 55.0982 72.3774V72.3083C55.2895 72.8949 55.4807 73.4815 55.6763 74.068C55.7415 74.2707 55.8198 74.4734 55.8893 74.6761C55.0456 74.9895 54.1758 75.229 53.29 75.3921Z" fill="black"/>
<path d="M37.5517 88.3823C37.0938 88.4975 36.6437 88.6415 36.2043 88.8135C35.5001 89.1198 34.8003 89.495 34.1222 89.8616C33.5666 90.192 33.0283 90.5505 32.5096 90.9355C31.955 91.2847 31.4302 91.6785 30.9405 92.1129C30.984 92.0439 31.0318 91.9749 31.0796 91.9102C31.5142 91.3409 31.9967 90.8234 32.4662 90.2972C33.0079 89.6858 33.5886 89.1095 34.2048 88.572C34.8351 88.02 35.574 87.6059 36.1999 87.0496C36.5983 87.5431 37.0518 87.9902 37.5517 88.3823Z" fill="black"/>
<path d="M33.3056 81.9558C33.6996 83.0546 34.2021 84.1121 34.8057 85.1129C34.3013 84.7721 33.8056 84.4228 33.2752 84.1209C32.5404 83.6896 31.8621 83.1074 31.1012 82.7408C31.8273 82.469 32.5665 82.2103 33.3056 81.9558Z" fill="#F09D2E"/>
<path d="M32.9091 84.1555C33.5085 84.5803 34.1457 84.9499 34.8129 85.2596C33.2624 85.4985 31.76 85.9804 30.3619 86.6872C30.5265 85.9619 30.647 85.2273 30.7227 84.4876C30.8386 83.9324 30.904 83.3681 30.9183 82.8013C31.6051 83.2369 32.2484 83.7285 32.9091 84.1555Z" fill="white"/>
<path d="M30.8313 82.8362C30.7574 83.4745 30.5444 84.1301 30.4574 84.7597C30.3236 85.4262 30.2321 86.1003 30.1836 86.7782H30.1619C29.6446 86.3469 29.0709 85.9803 28.5362 85.5706C28.0328 85.1633 27.488 84.8092 26.9106 84.5139C28.1831 83.8787 29.4923 83.3185 30.8313 82.8362Z" fill="#F09D2E"/>
<path d="M29.9625 86.8728C29.5277 87.0798 29.0929 87.3041 28.7059 87.5068C27.9972 87.8777 27.2928 88.2486 26.5972 88.6454C26.6885 87.3515 26.7798 86.0318 26.7928 84.7292C27.2624 85.1605 27.8233 85.4366 28.3277 85.8161C28.8311 86.2278 29.3795 86.5823 29.9625 86.8728Z" fill="white"/>
<path d="M26.6651 84.6514C26.3918 85.989 26.3083 87.3579 26.4173 88.7184C25.7912 88.3223 25.2006 87.8736 24.652 87.3771C24.2957 87.0389 23.9086 86.7342 23.4954 86.4671C24.5172 85.8115 25.5825 85.212 26.6651 84.6514Z" fill="#F09D2E"/>
<path d="M22.8476 90.9315C22.0688 90.1268 21.3564 89.2614 20.717 88.3437C21.4953 87.8779 22.2432 87.2741 22.9519 86.7997L23.3215 86.5625C23.2867 86.7609 23.2041 86.9938 23.1823 87.1059C23.078 87.6537 23.0563 88.2359 22.9954 88.788C22.8944 89.498 22.845 90.2144 22.8476 90.9315Z" fill="#F09D2E"/>
<path d="M23.2725 88.5116C23.3465 87.9682 23.3465 87.4248 23.3465 86.8727C23.3465 86.7778 23.3465 86.6873 23.3812 86.5967C23.755 87.0196 24.1817 87.3935 24.6508 87.7094C25.1805 88.1222 25.7433 88.4915 26.3335 88.8135C26.1422 88.9213 25.9552 89.0335 25.7683 89.1499C25.2407 89.4691 24.7277 89.8055 24.2291 90.1592C23.8204 90.4524 23.4812 90.8535 23.0856 91.1684C23.1943 90.2885 23.1899 89.3958 23.2725 88.5116Z" fill="white"/>
<path d="M33.7788 85.4542C34.1316 85.3707 34.4887 85.3059 34.8484 85.2601C34.1691 84.9522 33.5199 84.5826 32.9092 84.156C32.544 83.9274 32.1918 83.6772 31.8396 83.4314C31.7788 83.6859 31.7222 83.936 31.6657 84.1905C32.3701 84.6131 33.0745 85.0344 33.7788 85.4542Z" fill="black"/>
<path d="M31.6052 84.4834C31.5182 84.8787 31.4572 85.2792 31.4226 85.6824C31.4226 85.8678 31.3965 86.0533 31.3834 86.2344C32.025 85.9657 32.6828 85.7366 33.3531 85.5487L31.6052 84.4834Z" fill="#006790"/>
<path d="M30.8181 83.9875C30.7877 84.1644 30.7572 84.3369 30.7398 84.4878C30.6641 85.2276 30.5436 85.9621 30.379 86.6874C30.6007 86.5882 30.8138 86.4847 31.0442 86.3898C31.0645 85.9247 31.1109 85.4611 31.1833 85.0011C31.2268 84.7682 31.2747 84.5353 31.3268 84.3024L30.8181 83.9875Z" fill="black"/>
<path d="M30.8702 83.6897L31.3919 84.0132C31.4485 83.7501 31.5137 83.4913 31.5746 83.2326C31.3615 83.0859 31.1398 82.9393 30.9354 82.8013C30.9451 83.0989 30.9232 83.3967 30.8702 83.6897Z" fill="black"/>
<path d="M26.758 85.9756C26.7189 86.8727 26.658 87.7698 26.5972 88.6625L27.1494 88.3563C27.1494 87.6835 27.1841 87.0107 27.245 86.3379C27.0798 86.2128 26.9189 86.0963 26.758 85.9756Z" fill="black"/>
<path d="M27.2576 86.0103C27.2837 85.7386 27.3098 85.4668 27.3489 85.1908C27.1493 85.0582 26.9577 84.9142 26.775 84.7595C26.775 85.0485 26.775 85.3418 26.775 85.6221C26.9358 85.7515 27.1054 85.8766 27.2576 86.0103Z" fill="black"/>
<path d="M29.286 87.2267L29.9643 86.8903C29.3812 86.5998 28.8328 86.2453 28.3294 85.8336C28.1338 85.687 27.9337 85.5533 27.7294 85.4023C27.6816 85.687 27.625 85.9716 27.5946 86.2045C28.1294 86.5841 28.7077 86.9119 29.286 87.2267Z" fill="black"/>
<path d="M27.5661 86.5325C27.5356 87.0759 27.5182 87.6193 27.5052 88.1628C27.9009 87.9471 28.3052 87.7315 28.7052 87.5244L28.9922 87.3778C28.5096 87.1104 28.0313 86.8344 27.5661 86.5325Z" fill="#006790"/>
<path d="M23.3117 87.9077C23.3117 88.1104 23.3117 88.3088 23.2725 88.5115C23.1899 89.3741 23.1943 90.2884 23.0856 91.1683C23.3378 90.9699 23.5638 90.737 23.803 90.517L23.9465 88.4339C23.7291 88.2657 23.516 88.0889 23.3117 87.9077Z" fill="black"/>
<path d="M23.9711 88.0764C23.9711 87.796 24.0103 87.5114 24.0277 87.2138C23.8005 87.0229 23.5896 86.8137 23.3972 86.5884C23.3972 86.679 23.3668 86.7695 23.3624 86.8644C23.3624 87.0844 23.3363 87.2957 23.3276 87.5286C23.5363 87.7356 23.7494 87.9081 23.9711 88.0764Z" fill="black"/>
<path d="M25.6452 89.2233L25.7669 89.15C25.9539 89.0335 26.1409 88.9214 26.3322 88.8136C25.7419 88.4915 25.1792 88.1223 24.6495 87.7095C24.5495 87.6405 24.4495 87.5671 24.3538 87.4895C24.3321 87.7655 24.3104 88.0416 24.293 88.3176C24.7321 88.6411 25.1843 88.9386 25.6452 89.2233Z" fill="black"/>
<path d="M24.2673 88.6802C24.2326 89.1934 24.1978 89.7066 24.1543 90.2199L24.2282 90.1595C24.5934 89.9007 24.9674 89.6549 25.3456 89.4134C24.9804 89.1805 24.6195 88.9346 24.2673 88.6802Z" fill="#006790"/>
<path d="M23.1298 91.2245C23.2995 91.1046 23.4621 90.975 23.6166 90.8363C24.1509 90.411 24.7177 90.0274 25.3118 89.6891C26.3724 89.0551 27.4242 88.4297 28.5326 87.8733C29.089 87.593 29.6541 87.317 30.2322 87.0496C30.2492 87.0546 30.2673 87.0546 30.2843 87.0496C31.7819 86.3295 33.3567 85.7797 34.9787 85.4106L35.1873 85.7255C35.3351 85.9282 35.4873 86.1568 35.6568 86.3681C35.2554 86.4927 34.8384 86.561 34.418 86.5708C33.9179 86.6492 33.4281 86.7823 32.9575 86.9676C31.7383 87.4165 30.5518 87.9482 29.4063 88.5591C28.3805 89.0853 27.4155 89.7581 26.4376 90.3619C26.2376 90.487 24.6076 91.9059 24.1947 92.2423C23.8296 91.9016 23.4775 91.5695 23.1298 91.2245Z" fill="black"/>
<path d="M29.3866 95.3221C29.3989 95.3319 29.4143 95.3372 29.4301 95.3372C29.4459 95.3372 29.4612 95.3319 29.4735 95.3221C29.8473 94.9555 30.1864 94.5069 30.5385 94.1102C31.1783 93.4494 31.8897 92.8607 32.6596 92.3548C33.4068 91.8043 34.2009 91.3194 35.0329 90.9057C35.3893 90.7374 35.711 90.5089 36.0761 90.345C36.2239 90.2803 37.0932 89.7843 36.6498 90.194C35.6264 91.2284 34.7398 92.3878 34.0114 93.6444C33.5881 94.3478 33.2344 95.0902 32.9552 95.8612C32.8465 96.088 32.7606 96.325 32.6987 96.5685C31.5708 96.2184 30.4648 95.8022 29.3866 95.3221Z" fill="black"/>
<path d="M28.9446 93.0359C29.3316 92.3747 29.786 91.7547 30.3008 91.1856C30.8093 90.5904 31.3657 90.06 31.9264 89.5165C32.4089 89.0421 33.0044 88.6539 33.5042 88.2227C32.7219 88.3977 31.9632 88.6641 31.244 89.0162C30.4572 89.3476 29.6908 89.725 28.949 90.1462C28.0796 90.6293 27.2625 91.1554 26.4366 91.6946C25.9285 92.0811 25.4004 92.441 24.8544 92.7728C25.9081 93.5326 27.0232 94.2048 28.1883 94.7826C28.5186 94.3125 28.6621 93.5405 28.9446 93.0359Z" fill="black"/>
<path d="M37.7314 88.5029C37.5341 88.5906 37.3268 88.6543 37.1141 88.6927C36.7377 88.8243 36.3691 88.9769 36.0101 89.1498C35.2194 89.4841 34.4613 89.8897 33.7455 90.3618C32.611 91.2243 31.2853 91.8627 30.3551 92.9495C30.3029 93.0142 30.203 92.9495 30.2421 92.8848C30.8962 91.7186 31.7242 90.6571 32.6979 89.7364C33.7768 88.7248 34.94 87.8057 36.1753 86.9891C36.0318 86.8165 35.8927 86.6397 35.7406 86.4629C35.6537 86.5276 35.5667 86.5233 35.3972 86.5578C34.7919 86.7019 34.1954 86.8804 33.6107 87.0926C32.4019 87.5195 31.2229 88.0252 30.0813 88.6064C28.0354 89.6553 26.0864 90.8805 24.2568 92.2681L24.6132 92.57L24.7479 92.6692C25.087 92.4363 25.5868 92.0222 25.8563 91.8066C26.2388 91.5219 26.617 91.2373 27.0082 90.944C27.6866 90.4727 28.392 90.0406 29.1207 89.6501C29.9662 89.1655 30.8553 88.7598 31.7765 88.4382C32.4067 88.2355 33.1848 87.8215 33.8585 87.8387C33.9672 87.8387 33.9846 87.9854 33.9237 88.05C33.489 88.5115 32.8849 88.8221 32.4154 89.262C31.7212 89.8825 31.0678 90.5466 30.4594 91.2502C29.88 91.9699 29.3528 92.7295 28.8816 93.5231C28.71 93.9434 28.5036 94.3487 28.2644 94.7351C28.6295 94.9162 28.9946 95.093 29.3684 95.2569C29.3628 95.2517 29.3583 95.2453 29.3552 95.2383C29.3521 95.2312 29.3505 95.2236 29.3505 95.216C29.3505 95.2083 29.3521 95.2007 29.3552 95.1936C29.3583 95.1866 29.3628 95.1802 29.3684 95.175C29.8466 94.6574 30.203 94.0191 30.7115 93.5145C31.3323 92.9048 32.0073 92.3519 32.7284 91.8627C34.0003 90.9198 35.435 90.2153 36.962 89.7838C37.0098 89.7838 37.0185 89.8313 36.9968 89.8615C36.1622 90.9656 35.3364 92.0567 34.554 93.204C34.0839 93.8929 33.6627 94.6135 33.2934 95.3604C33.1109 95.7227 32.9848 96.167 32.8066 96.5379L33.3586 96.7018C33.5108 96.3955 33.5542 95.9858 33.6933 95.6882C33.9672 95.1146 34.241 94.5367 34.5627 93.9889C35.1625 92.9926 35.7797 91.9791 36.4795 91.0432C37.0315 90.2971 37.614 89.5251 38.2182 88.7703C38.0499 88.6924 37.8872 88.603 37.7314 88.5029Z" fill="#006790"/>
<path d="M42.1844 98.4571C41.0804 98.2759 39.9459 98.2199 38.8375 98.0258C37.4727 97.7843 36.1252 97.4479 34.7777 97.1201C34.3431 97.0166 33.9084 96.9001 33.4738 96.7794L33.5303 96.6802C33.8215 96.1109 34.104 95.5416 34.4213 94.9852C35.0907 93.8207 35.8253 92.6821 36.5946 91.5737C37.6759 90.0292 38.8794 88.5726 40.1937 87.2176C40.2242 87.2013 40.2486 87.1755 40.2632 87.1443C40.4805 86.9157 40.6979 86.6914 40.9195 86.4672C41.1412 86.2429 41.3325 86.0359 41.5411 85.8547C41.5802 86.4284 42.38 86.9761 42.7712 87.2737C43.6027 87.8867 44.529 88.3615 45.5139 88.6797C45.3922 88.8695 45.1488 89.111 45.0793 89.2188C44.8316 89.6513 44.6096 90.0977 44.4142 90.5558C44.011 91.4062 43.6612 92.2805 43.3667 93.1738C43.0885 94.114 42.7277 95.0283 42.4713 95.9772C42.3563 96.3754 42.2734 96.7821 42.2235 97.1934C42.2366 97.3185 42.2105 98.3536 42.1844 98.4571Z" fill="#006790"/>
<path d="M42.3361 98.4789C42.6089 96.8629 43.0294 95.275 43.5923 93.7347C44.1499 92.0068 44.8342 90.3217 45.6396 88.6929C45.9004 88.7748 46.1655 88.8524 46.4307 88.9258C46.2639 89.2608 46.0781 89.5862 45.8743 89.9005C45.6396 90.3318 45.4396 90.789 45.2614 91.2375C44.9267 92.0095 44.6398 92.8031 44.3921 93.6053C44.1025 94.5086 43.8703 95.4291 43.6966 96.3612C43.6271 96.7278 43.2315 98.1813 43.4967 98.6255C43.1098 98.5867 42.7186 98.5436 42.3361 98.4789Z" fill="black"/>
<path d="M46.7629 97.1933C46.7629 97.409 46.7629 97.6246 46.7933 97.8273C46.7052 97.4618 46.4964 97.136 46.2002 96.9015C45.9041 96.6671 45.5374 96.5376 45.1585 96.5335C44.8771 96.5596 44.606 96.6513 44.3672 96.8012C44.1284 96.9511 43.9287 97.155 43.7845 97.3961C43.8411 96.9906 43.9106 96.5939 43.9889 96.1928C44.0784 96.0177 44.1801 95.8491 44.2933 95.6881C44.7281 95.0671 45.4716 94.7997 46.1107 95.3C46.6151 95.7011 46.7194 96.4386 46.7629 97.1545C46.7648 97.1717 46.7648 97.1891 46.7629 97.2063C46.7629 97.2063 46.7586 97.1977 46.7629 97.1933Z" fill="black"/>
<path d="M43.6409 98.6341C43.6409 98.4357 43.6888 98.2373 43.7105 98.0432C43.8183 97.7337 44.0092 97.4593 44.2627 97.2496C44.5125 97.0241 44.838 96.8992 45.1758 96.8992C45.5135 96.8992 45.8391 97.0241 46.0888 97.2496C46.5802 97.6507 46.5932 98.1812 46.8193 98.6944C45.7541 98.7117 44.6888 98.716 43.6409 98.6341Z" fill="#F09D2E"/>
<path d="M45.5144 94.7093C45.2266 94.7263 44.9475 94.814 44.7024 94.9646C44.4572 95.1152 44.2536 95.3239 44.11 95.5719V95.5977C44.2404 95.0069 44.3926 94.4246 44.5709 93.8467C44.7421 93.5946 44.9518 93.3705 45.1926 93.1825C45.9883 92.5485 46.7623 93.2601 46.9536 93.9976C47.1123 94.6455 47.1433 95.3177 47.0449 95.9773C46.9868 96.1553 46.9403 96.3368 46.9057 96.5207C46.8936 96.5502 46.8835 96.5805 46.8753 96.6113V96.6415V96.7018C46.7666 95.6754 46.4709 94.6359 45.5144 94.7093Z" fill="#F09D2E"/>
<path d="M46.8793 96.8182C46.8793 96.7535 46.9098 96.6931 46.9272 96.6327C47.0647 96.4255 47.1511 96.1891 47.1793 95.9426L47.2185 95.8693C47.6533 95.1965 48.5837 94.8385 49.2316 95.438C49.7764 96.0135 50.1392 96.7347 50.2751 97.5125C50.1229 97.1782 49.8694 96.8992 49.5499 96.7145C49.2304 96.5297 48.8607 96.4484 48.4924 96.4818C47.5794 96.5335 47.1011 97.3443 46.9272 98.1336C46.9228 97.7929 46.9228 97.3098 46.8793 96.8182Z" fill="black"/>
<path d="M49.327 98.6428C48.5487 98.6428 47.7574 98.6687 46.9617 98.6859C47.1399 97.6681 47.6443 96.7581 48.8443 96.8616C49.7835 96.9435 50.0096 97.901 50.3574 98.5867C50.0096 98.6256 49.6618 98.6428 49.327 98.6428Z" fill="#F09D2E"/>
<path d="M53.0427 98.19C52.2216 98.3642 51.3913 98.4923 50.5557 98.5738C50.747 97.8061 51.2079 96.9694 52.1166 96.9996C52.7557 96.9996 53.034 97.6336 53.2514 98.1598L53.0427 98.19Z" fill="#F09D2E"/>
<path d="M52.0002 96.607C51.6317 96.6718 51.2927 96.8492 51.0308 97.1145C50.7689 97.3797 50.597 97.7195 50.5393 98.0864C50.5174 97.5771 50.4297 97.0726 50.2784 96.5855C50.2784 96.5423 50.2784 96.5035 50.2784 96.4604C50.4405 96.1199 50.6388 95.7975 50.8698 95.4986C51.4133 94.8215 52.2742 95.0673 52.7524 95.6237C53.0981 96.1337 53.2828 96.7343 53.2829 97.3489C53.1736 97.1081 52.9912 96.9073 52.7613 96.7743C52.5313 96.6413 52.2653 96.5828 52.0002 96.607Z" fill="black"/>
<path d="M55.6061 89.7928C55.8124 89.8203 56.0109 89.8892 56.1896 89.9952C56.3682 90.1012 56.5233 90.2422 56.6452 90.4095C56.6452 90.1853 56.6713 89.9783 56.6887 89.7281V89.6936C56.3278 89.7324 55.967 89.7669 55.6061 89.7928Z" fill="black"/>
<path d="M57.8595 97.1031C57.7769 95.7445 57.6334 94.4032 57.6377 93.0447C57.6377 92.2813 57.6377 91.5136 57.6682 90.7459C57.6682 90.6208 57.6682 89.7108 57.7203 89.5598C57.3855 89.6073 57.0464 89.6504 56.7116 89.6892V89.728C56.8712 90.3928 56.9226 91.0786 56.8638 91.7594C56.8638 92.5918 56.8072 93.4113 56.7812 94.2393C56.7464 95.3219 56.742 96.3958 56.6246 97.4913L57.0029 97.4093C57.3073 97.3403 57.6029 97.2627 57.9029 97.1894C57.8886 97.1802 57.877 97.1673 57.8693 97.1521C57.8617 97.137 57.8583 97.12 57.8595 97.1031Z" fill="black"/>
<path d="M53.2848 94.3773C53.4792 93.9642 53.8024 93.6239 54.2066 93.4069C54.8109 93.0403 55.3762 93.4371 55.7414 93.9029C56.0854 94.3944 56.3046 94.9611 56.3806 95.5547C56.2725 95.3045 56.1035 95.0849 55.8887 94.9155C55.674 94.7461 55.4202 94.6323 55.1501 94.5843C54.224 94.429 53.637 95.1924 53.3718 95.9644C53.472 95.4362 53.4422 94.8917 53.2848 94.3773Z" fill="#F09D2E"/>
<path d="M53.56 98.0862V98.0215C53.622 97.7598 53.7373 97.5135 53.8988 97.2977C54.0603 97.0818 54.2646 96.901 54.4992 96.7664C55.2774 96.3696 55.8036 96.995 56.0905 97.5988C55.2557 97.7713 54.4079 97.9223 53.56 98.0862Z" fill="#F09D2E"/>
<path d="M56.3813 97.5255C56.3173 97.1609 56.1126 96.8354 55.8106 96.618C55.5087 96.4006 55.1332 96.3084 54.7639 96.361C54.5757 96.3966 54.3973 96.4715 54.2406 96.5808C54.0839 96.6901 53.9525 96.8313 53.8552 96.995C53.6803 97.3373 53.5642 97.706 53.5117 98.0862V98.0258C53.5651 97.3889 53.5211 96.7476 53.3812 96.1238C53.7247 95.4337 54.3378 94.6358 55.1987 94.9291C55.5427 95.0403 55.8467 95.2483 56.0737 95.5278C56.3007 95.8073 56.4408 96.1462 56.477 96.5033C56.4422 96.8484 56.4161 97.1848 56.3813 97.5255Z" fill="black"/>
<path d="M56.5198 95.2183C56.3807 94.3557 55.9851 93.4672 55.1549 93.0618C54.416 92.7168 53.4684 93.4931 53.2381 94.2306C53.1443 93.963 52.9932 93.7187 52.7951 93.5147C52.597 93.3107 52.3566 93.1517 52.0906 93.0488C51.569 92.8418 51.0082 93.2257 50.6127 93.7087C50.6613 93.2874 50.6168 92.8605 50.4823 92.458C50.6836 92.1482 50.9812 91.912 51.3299 91.7852C51.5568 91.7137 51.7978 91.6976 52.0323 91.7382C52.2669 91.7787 52.4881 91.8747 52.6774 92.0181C53.0362 92.3064 53.2809 92.7111 53.3685 93.161C53.3594 93.2738 53.3852 93.3866 53.4424 93.4845C53.4424 93.5448 53.4641 93.6095 53.4771 93.6699C53.4902 93.7303 53.5249 93.6699 53.5249 93.6699C53.5357 93.5379 53.5357 93.4052 53.5249 93.2731C53.5619 92.9028 53.6961 92.5485 53.9143 92.2458C54.1324 91.943 54.4268 91.7024 54.7681 91.5479C55.7157 91.1167 56.1373 91.8671 56.5589 92.5184C56.5546 93.4241 56.5459 94.3212 56.5198 95.2183Z" fill="black"/>
<path d="M56.5849 91.9494C56.4516 91.6303 56.1979 91.3754 55.8778 91.2392C55.5578 91.1031 55.1967 91.0964 54.8718 91.2205C54.4244 91.3911 54.0395 91.6918 53.7674 92.0831C53.748 91.7607 53.6881 91.442 53.5891 91.1343C53.7521 90.8723 53.9672 90.6462 54.2215 90.4697C54.4757 90.2932 54.7635 90.17 55.0674 90.1078C55.8283 89.931 56.2414 90.3752 56.6283 90.91C56.6066 91.2421 56.5936 91.6173 56.5849 91.9494Z" fill="#F09D2E"/>
<path d="M58.075 97.1418C58.0973 97.1168 58.1096 97.0846 58.1098 97.0513C58.062 95.697 57.8968 94.3557 57.8968 92.9928C57.8968 92.2294 57.8968 91.4703 57.8664 90.707C57.9127 90.3189 57.898 89.9261 57.8229 89.5425L58.5097 89.4303C60.2484 89.1284 62.4217 88.7403 63.9474 87.7483C64.6624 88.3604 65.4239 88.9169 66.225 89.4131C65.3122 90.0428 64.708 91.1382 64.1995 92.0785C63.5531 93.2884 63.0847 94.5839 62.8085 95.9256C61.2177 96.2577 59.6616 96.7278 58.075 97.1418Z" fill="#006790"/>
<path d="M65.3963 91.3324C64.9411 91.8596 64.6113 92.4817 64.4313 93.1525C64.4251 93.1708 64.4247 93.1906 64.4301 93.2092C64.4355 93.2278 64.4465 93.2443 64.4616 93.2565C64.4768 93.2687 64.4953 93.276 64.5148 93.2774C64.5342 93.2789 64.5536 93.2744 64.5704 93.2646C64.8399 93.1568 65.0573 92.9411 65.3224 92.8074C65.9954 92.5269 66.6982 92.3229 67.4175 92.1993C68.5502 91.9517 69.7093 91.8431 70.8687 91.8758C71.3729 92.1044 71.8815 92.3071 72.3987 92.5228C70.9695 92.3858 69.527 92.519 68.1477 92.9153C66.5873 93.3207 64.8138 93.7304 63.5012 94.731C63.7489 94.0496 64.001 93.3681 64.314 92.7082C64.5958 92.117 64.9092 91.5411 65.2529 90.9831C65.4441 90.6682 65.7223 90.3663 65.8875 90.0385C65.8875 89.9911 66.1787 89.6806 66.3221 89.4822C66.496 89.59 66.6742 89.6892 66.8568 89.7927C66.2714 90.2043 65.7749 90.7278 65.3963 91.3324Z" fill="#006790"/>
<path d="M66.925 89.8271C67.5857 90.2196 68.2594 90.5905 68.9375 90.9399C69.4417 91.1987 69.959 91.4531 70.4806 91.699C68.8028 91.6515 67.131 91.9163 65.5515 92.4796C65.3157 92.5502 65.0916 92.6549 64.8864 92.7901C64.8344 92.8005 64.7844 92.8195 64.7386 92.8462C64.8169 92.665 64.9386 92.458 65.0038 92.32C65.4852 91.3795 66.1364 90.5345 66.925 89.8271Z" fill="black"/>
<path d="M65.0216 95.5678C64.3609 95.6368 63.7176 95.7403 63.0743 95.8697C63.2047 95.5333 63.3264 95.1969 63.4481 94.8605C64.6511 94.1995 65.9459 93.7185 67.2905 93.4329C68.6338 93.0911 70.0033 92.8603 71.3851 92.7428C71.8766 92.7553 72.3686 92.7409 72.8586 92.6997C72.3008 92.9081 71.7626 93.165 71.2503 93.4674C70.4679 93.8599 69.3856 94.4119 68.9335 95.1926C67.6165 95.2573 66.2864 95.4427 65.0216 95.5678Z" fill="black"/>
<path d="M69.1633 95.1967C69.5198 95.0069 70.2891 94.2823 70.5108 94.127C71.3147 93.6181 72.1494 93.1587 73.0101 92.7512C73.8864 93.0756 74.7857 93.3351 75.7007 93.5276V93.5707C75.701 93.6033 75.711 93.6351 75.7296 93.662C75.7482 93.6888 75.7744 93.7096 75.805 93.7216C75.805 93.7734 75.8354 93.8251 75.8528 93.8812C75.2225 93.6095 73.8186 94.0106 73.2839 94.1572C72.7029 94.3209 72.1383 94.5374 71.5974 94.8042C71.2948 94.9208 71.0037 95.0652 70.7281 95.2355C70.2077 95.1925 69.6852 95.1795 69.1633 95.1967Z" fill="#006790"/>
<path d="M76.289 95.9298C76.389 96.6544 76.528 97.3704 76.6106 98.0863C75.7891 96.4733 73.7027 95.7875 72.0336 95.408C71.7685 95.3476 71.499 95.3045 71.2295 95.27C71.37 95.1846 71.5151 95.1068 71.6642 95.0371C72.1249 94.8387 72.5813 94.6532 73.0507 94.4721C73.5735 94.2834 74.1116 94.1391 74.659 94.0408C75.0512 93.9279 75.4594 93.8798 75.8674 93.8985C76.0616 94.5635 76.2026 95.2427 76.289 95.9298Z" fill="black"/>
<path d="M75.9809 93.3076C75.9472 93.3042 75.9132 93.3079 75.881 93.3183C75.8488 93.3287 75.8192 93.3456 75.794 93.368L75.6723 93.3206C73.5621 92.7524 71.5214 91.9555 69.587 90.9441C67.1355 89.6848 64.7492 88.2529 62.9062 86.1999C62.1346 85.3387 61.4078 84.439 60.7285 83.5044C60.0043 82.4273 59.3482 81.3066 58.7639 80.1489C57.4954 77.7615 56.4535 75.2622 55.6517 72.6832C54.8475 70.2033 54.0956 67.6932 53.2045 65.2478C53.0089 64.7087 52.8394 64.1652 52.6699 63.6218C52.6752 63.6126 52.678 63.6022 52.678 63.5916C52.678 63.581 52.6752 63.5706 52.6699 63.5614L52.6438 63.514C52.4699 62.9102 52.2656 62.2891 52.0353 61.7069C51.5575 60.5308 51.0208 59.3793 50.427 58.2565C49.9243 57.1542 49.3081 56.1064 48.5884 55.1297C47.841 54.2513 46.97 53.4843 46.0021 52.8524C45.7761 52.6929 45.5675 52.5462 45.3067 52.4212C43.9997 51.6195 42.4964 51.1885 40.96 51.1747C42.2214 50.6374 43.52 50.1906 44.8459 49.8377C45.1719 49.7342 45.5023 49.6436 45.8326 49.5574C48.0059 49.9283 49.8185 51.4982 51.3224 53.0077C53.0176 54.6811 54.1825 56.9756 55.1388 59.1234C55.6933 60.2759 56.1866 61.4564 56.6166 62.66C57.0078 63.8547 57.2903 65.0796 57.6424 66.2872C58.3379 68.6377 58.9464 71.0314 59.7505 73.3345C61.3414 77.8156 63.7321 82.0423 67.4528 85.1476C69.1579 86.6454 71.0766 87.8851 73.1469 88.8265C74.2687 89.2953 75.4184 89.6957 76.5894 90.0255C77.5283 90.3058 78.6671 90.7803 79.6668 90.8277C78.6671 91.9016 77.3718 92.9626 75.9809 93.3076Z" fill="#006790"/>
<path d="M80.2311 90.1724C80.1094 90.3233 79.979 90.4743 79.8443 90.6037C78.7185 90.5261 77.4623 89.9826 76.393 89.6505C75.2471 89.2892 74.1224 88.8645 73.0244 88.3782C70.7511 87.3862 68.8342 85.8638 66.9999 84.2335C63.1314 80.8349 60.9538 75.9139 59.4237 71.1007C58.6979 68.7587 58.0372 66.3306 57.3939 63.9369C56.7766 61.6381 55.7291 59.5377 54.7424 57.377C53.8024 55.3781 52.5033 53.5658 50.9087 52.0289C49.6047 50.7351 47.9964 49.6784 46.1882 49.4412C48.5371 48.8961 50.9622 48.7503 53.3602 49.0099C56.1378 49.2304 58.8715 49.8298 61.4841 50.7911C63.8776 51.7476 66.1387 53.0027 68.2127 54.5261C68.0823 55.2382 68.0068 55.9591 67.9866 56.6826C67.9502 58.3792 68.0709 60.0756 68.3474 61.7503C68.6517 63.5531 69.1776 65.3257 69.621 67.0983C70.0541 68.8017 70.6134 70.471 71.2944 72.0926C72.5984 75.2195 74.0632 78.2299 76.0757 80.9773C77.7753 83.2803 79.553 85.8034 82.0002 87.3862C81.525 88.3819 80.931 89.3173 80.2311 90.1724Z" fill="black"/>
<path d="M49.5267 72.7995C49.4185 72.7843 49.3088 72.7843 49.2007 72.7995C49.1099 72.8015 49.0208 72.8236 48.9399 72.8642C48.9311 72.8671 48.9236 72.8731 48.9188 72.881C48.914 72.8889 48.9123 72.8982 48.9138 72.9073C48.9262 72.9334 48.9437 72.9568 48.9653 72.9761C48.987 72.9953 49.0123 73.0101 49.0398 73.0195C48.5627 73.1499 48.0699 73.2152 47.575 73.2135C47.1838 73.2135 46.6492 72.9504 46.271 73.0496C45.8369 73.1662 45.3794 73.1662 44.9453 73.0496C44.6308 73.1215 44.327 73.2331 44.0412 73.3817C44.1151 73.2739 44.202 73.179 44.2716 73.0712C44.0803 73.1014 43.6935 73.3343 43.7065 73.5758C43.7065 73.6014 43.7164 73.626 43.7342 73.6445C43.752 73.663 43.7764 73.6739 43.8021 73.675H43.8499C43.882 73.6877 43.9178 73.6877 43.9499 73.675C44.156 73.5486 44.3885 73.4707 44.6297 73.4475C44.8708 73.4244 45.1141 73.4564 45.3408 73.5413C45.416 73.5776 45.4985 73.5964 45.5821 73.5964C45.6657 73.5964 45.7481 73.5776 45.8233 73.5413C46.1357 73.4011 46.476 73.3333 46.8187 73.3429C47.0342 73.4706 47.2884 73.518 47.5359 73.4766C48.1331 73.3893 48.7252 73.2698 49.3093 73.1187C49.3093 73.1187 49.3397 73.1187 49.3441 73.1445C49.431 73.2696 49.6831 73.4378 49.7788 73.2265C49.8613 73.0712 49.6484 72.8426 49.5267 72.7995Z" fill="#006790"/>
<path d="M47.8011 74.2791C47.3935 74.2835 46.9872 74.3268 46.588 74.4084C46.1749 74.4516 45.4401 74.5119 45.0618 74.2877C45.0618 74.2877 45.0401 74.2877 45.0618 74.2877C45.5793 75.1503 47.2358 75.0511 47.8576 74.4041C47.8837 74.3653 47.8663 74.2834 47.8011 74.2791Z" fill="#006790"/>
<path d="M47.3132 66.7832C47.3132 66.7832 47.3132 66.8091 47.3132 66.7832C47.4439 66.6115 47.5894 66.4513 47.7479 66.3044C48.7824 67.8183 51.373 67.5336 52.6335 66.3648L52.6683 66.3389C52.7639 66.2743 52.9204 66.1794 52.9508 66.0586C52.9813 65.9378 52.8378 65.8516 52.6857 65.8257C51.8468 65.1443 50.5384 65.071 49.4996 65.0192C48.4607 64.9674 47.687 65.8775 47.3132 66.7832Z" fill="#006790"/>
<path d="M52.7379 66.0156H52.7683C52.7683 66.0415 52.7944 66.063 52.7683 66.0803C52.5901 66.2399 52.4119 66.4081 52.2293 66.5676C50.9253 67.3742 49.0824 66.9731 47.8044 66.2485C49.1519 64.9848 51.0992 65.0495 52.7379 66.0156Z" fill="white"/>
<path d="M47.0037 66.408C47.4487 65.7278 48.1239 65.2277 48.9075 64.9977C49.7769 64.7562 50.8505 65.153 51.7459 65.2824C51.785 65.2824 51.8198 65.2133 51.7763 65.2047C50.7462 64.9675 49.716 64.5233 48.6598 64.8122C47.8209 65.0451 47.408 65.705 46.9907 66.3994C46.9863 66.408 46.9994 66.4123 47.0037 66.408Z" fill="#006790"/>
<path d="M45.5143 71.5662C45.9489 71.3463 46.1315 70.8718 46.5575 70.6433H46.7139C46.7573 70.6484 46.8013 70.6405 46.84 70.6205C46.8788 70.6005 46.9106 70.5693 46.9313 70.5311C46.9657 70.4553 46.9711 70.3696 46.9462 70.2902C46.9214 70.2107 46.8682 70.143 46.7965 70.0998C46.6227 69.9748 46.3358 70.0049 46.2097 69.8152C46.2658 69.9552 46.3326 70.0907 46.4097 70.2206L46.5009 70.3802C46.2959 70.3894 46.0936 70.4302 45.9011 70.5009C45.1839 70.7683 44.671 71.053 43.8799 70.8028C43.6905 70.7498 43.5091 70.6714 43.3409 70.5699L43.1975 70.4837C43.0323 70.3845 42.915 70.2853 43.141 70.1085C43.468 69.7965 43.7675 69.4574 44.0364 69.0949C44.5067 68.5464 44.7671 67.8509 44.7719 67.1308C44.7767 66.4106 44.5255 65.7118 44.0625 65.1572C44.4042 65.7445 44.5716 66.4157 44.5455 67.0933C44.5193 67.771 44.3007 68.4275 43.9147 68.9871C43.6148 69.4443 43.1975 69.7591 42.8802 70.1861C42.8063 70.2896 42.802 70.2896 42.8237 70.4104C42.915 70.9969 43.9103 71.6352 44.4667 71.7042C44.8213 71.7847 45.1932 71.7357 45.5143 71.5662Z" fill="#006790"/>
<path d="M44.5367 71.2299C44.935 71.0787 45.3229 70.9014 45.6976 70.6994C45.6976 70.6994 46.2411 70.5441 46.4759 70.5139L46.328 70.6088C46.2472 70.6455 46.1688 70.6873 46.0933 70.7339C45.5889 71.0617 45.4758 71.4067 44.7889 71.3722C44.6384 71.3575 44.4915 71.3182 44.3541 71.2557C44.4158 71.2548 44.4772 71.2462 44.5367 71.2299Z" fill="#006790"/>
<path d="M51.7868 65.9766C51.704 65.725 51.5264 65.5149 51.2911 65.3901C51.1384 65.2974 50.9663 65.2404 50.7881 65.2236C50.6098 65.2067 50.4301 65.2303 50.2624 65.2927C50.0947 65.355 49.9436 65.4545 49.8205 65.5835C49.6974 65.7124 49.6055 65.8676 49.5519 66.037C49.1562 67.8139 52.1737 67.4258 51.7868 65.9766Z" fill="#006790"/>
<path d="M43.2413 66.1708C43.1705 65.9739 43.0418 65.8026 42.8717 65.6791C42.754 65.6071 42.6206 65.564 42.4826 65.5534C42.3447 65.5428 42.2062 65.5649 42.0786 65.6181C41.9511 65.6712 41.8382 65.7538 41.7492 65.8589C41.6603 65.964 41.5979 66.0887 41.5673 66.2225C41.2586 67.7105 43.837 67.5897 43.2413 66.1708Z" fill="#006790"/>
<path d="M40.2973 51.7613C40.1104 51.9338 39.9278 52.1107 39.7496 52.2961H44.0658C43.6258 52.0902 43.1745 51.9088 42.714 51.7527L40.2973 51.7613Z" fill="white"/>
<path d="M39.4678 52.6195C39.3418 52.779 39.2201 52.9343 39.1027 53.0982H42.1801C42.5626 52.8932 42.9663 52.7298 43.3842 52.6108L39.4678 52.6195Z" fill="white"/>
<path d="M38.0944 54.6211C38.0205 54.7591 37.9509 54.8971 37.8813 55.0524H40.0553C40.1402 54.9162 40.2331 54.7851 40.3336 54.6599L40.364 54.6254L38.0944 54.6211Z" fill="white"/>
<path d="M37.7163 55.3884C37.6772 55.4617 37.6424 55.5351 37.5989 55.6084L37.4685 55.8585H39.6425C39.7059 55.6972 39.78 55.5401 39.8642 55.3884H37.7163Z" fill="white"/>
<path d="M37.295 56.1695L37.2297 56.2903C37.1254 56.5016 37.0297 56.7216 36.9341 56.9329H39.3994C39.4256 56.6721 39.4736 56.4139 39.5429 56.1609L37.295 56.1695Z" fill="white"/>
<path d="M39.1866 58.9382C39.3132 58.8611 39.4339 58.7746 39.5474 58.6794C39.5474 58.6191 39.5257 58.5587 39.5127 58.4983H36.343C36.3082 58.5975 36.2691 58.701 36.2299 58.8002L36.1908 58.921L39.1866 58.9382Z" fill="white"/>
<path d="M36.0734 59.27C36.0126 59.4468 35.9473 59.6237 35.8865 59.8048H38.0909C38.2334 59.6452 38.3922 59.5006 38.5648 59.3735L38.704 59.2743L36.0734 59.27Z" fill="white"/>
<path d="M35.7823 60.1331C35.7823 60.2021 35.7344 60.2668 35.7127 60.3358H37.691C37.7345 60.2711 37.7823 60.2107 37.8302 60.146L35.7823 60.1331Z" fill="white"/>
<path d="M36.9348 62.4833C36.9511 62.273 36.9816 62.0641 37.0261 61.8579H35.2565L35.113 62.4574L36.9348 62.4833Z" fill="white"/>
<path d="M34.8819 63.484C34.8558 63.609 34.8254 63.7298 34.8036 63.8506H36.9776C36.9776 63.7255 36.9472 63.6004 36.9342 63.4753L34.8819 63.484Z" fill="white"/>
<path d="M34.6123 64.976C34.5775 65.2305 34.5428 65.4849 34.5123 65.7394H37.4907C37.4907 65.7135 37.4907 65.6833 37.4907 65.6574C37.3827 65.4352 37.2897 65.2061 37.2124 64.9717L34.6123 64.976Z" fill="white"/>
<path d="M36.939 67.6284C36.9695 67.4645 37.0043 67.3049 37.0391 67.1497H34.3868C34.3868 67.3092 34.3868 67.4645 34.3868 67.6241L36.939 67.6284Z" fill="white"/>
<path d="M34.3657 67.9519C34.3657 68.0942 34.3657 68.2322 34.3657 68.3832H36.8223C36.8223 68.2409 36.8571 68.0985 36.8789 67.9519H34.3657Z" fill="white"/>
<path d="M34.3948 69.6211C34.3948 69.9144 34.3948 70.2033 34.434 70.4837H36.6819L36.721 69.6211H34.3948Z" fill="white"/>
<path d="M34.4551 70.8114C34.4551 70.9882 34.4551 71.1693 34.4899 71.3462H36.6639C36.6639 71.165 36.6639 70.9839 36.6639 70.8027L34.4551 70.8114Z" fill="white"/>
<path d="M34.6218 72.929C34.6436 73.1447 34.661 73.3603 34.687 73.576H36.7828C36.7828 73.356 36.7393 73.1447 36.7219 72.9204L34.6218 72.929Z" fill="white"/>
<path d="M34.7263 73.8991C34.7524 74.1147 34.7741 74.3304 34.8046 74.5503H36.9221C36.8873 74.3347 36.8568 74.119 36.8264 73.8948L34.7263 73.8991Z" fill="white"/>
<path d="M37.2569 76.2545H35.0829C35.0829 76.3022 35.0829 76.3543 35.1133 76.402H37.2873C37.2873 76.3587 37.2656 76.3153 37.2569 76.2719C37.2482 76.2285 37.2569 76.2632 37.2569 76.2545Z" fill="white"/>
<path d="M35.1773 76.7287C35.2382 77.0263 35.3077 77.3195 35.3773 77.5913H37.6165C37.5339 77.298 37.46 76.9961 37.3817 76.6985L35.1773 76.7287Z" fill="white"/>
<path d="M35.4556 77.9325C35.5599 78.312 35.6686 78.6915 35.7904 79.0667H38.0904C37.9557 78.6872 37.8296 78.3077 37.7122 77.9238L35.4556 77.9325Z" fill="white"/>
<path d="M38.6773 80.5457H36.3163C36.4207 80.826 36.525 81.1063 36.6381 81.3824H39.086C39.0599 81.3349 39.0295 81.2875 39.0077 81.24C38.8903 81.0158 38.7816 80.7786 38.6773 80.5457Z" fill="white"/>
<path d="M40.4646 83.6334L40.3646 83.4868L40.1516 83.1633H37.4906C37.5776 83.3143 37.6732 83.4609 37.7645 83.5946L40.4646 83.6334Z" fill="white"/>
<path d="M38.2242 84.3454H40.9678C40.8634 84.203 40.7591 84.0564 40.6591 83.9141H37.9547L38.2242 84.3454Z" fill="white"/>
<path d="M39.0636 85.5789C39.1375 85.6781 39.2114 85.7816 39.294 85.8808C39.5114 86.1612 39.8375 86.4501 40.068 86.7434C40.3158 86.4976 40.568 86.2518 40.8245 86.0232C40.9984 85.8722 41.168 85.7126 41.3376 85.5574L39.0636 85.5789Z" fill="white"/>
<path d="M78.1361 92.2164C78.2447 92.1387 78.3491 92.0568 78.449 91.9749C76.2323 91.9749 74.0169 91.9749 71.803 91.9749C71.9682 92.0482 72.1377 92.1129 72.3029 92.1776L78.1361 92.2164Z" fill="white"/>
<path d="M73.0968 92.514C73.4489 92.6477 73.801 92.7728 74.1574 92.8892H77.0609C77.2931 92.7701 77.5181 92.6376 77.7347 92.4924L73.0968 92.514Z" fill="white"/>
<path d="M55.0985 58.9723C55.0246 58.8041 54.9464 58.6316 54.8682 58.4634C53.4294 58.4634 51.9863 58.4634 50.5476 58.4634L50.791 58.9637L55.0985 58.9723Z" fill="white"/>
<path d="M50.9122 59.214C51.0122 59.4124 51.1078 59.6108 51.2078 59.8135H55.4806L55.2067 59.2097L50.9122 59.214Z" fill="white"/>
<path d="M48.7697 55.354C48.8914 55.5179 49.0044 55.6861 49.1174 55.8543C50.5823 55.8543 52.0514 55.8543 53.5206 55.8543C53.4206 55.6861 53.312 55.5222 53.2076 55.3583L48.7697 55.354Z" fill="white"/>
<path d="M47.2539 49.9542C46.8003 49.7593 46.3264 49.6147 45.8408 49.5229C45.5103 49.6092 45.1799 49.6998 44.8538 49.8033C44.6973 49.855 44.5407 49.8982 44.3842 49.9456L47.2539 49.9542Z" fill="white"/>
<path d="M43.34 50.273L42.7098 50.4714H48.2822C48.1605 50.3981 48.0301 50.3334 47.904 50.2644L43.34 50.273Z" fill="white"/>
<path d="M44.0266 51.757C44.4124 51.9128 44.787 52.0943 45.148 52.3004H50.6465C50.4509 52.115 50.2423 51.9338 50.0337 51.7527L44.0266 51.757Z" fill="white"/>
<path d="M50.9725 52.6108H45.674L46.013 52.8394L46.3825 53.1068C48.082 53.1068 49.7772 53.1068 51.4767 53.1068L51.3289 52.9516C51.2159 52.8437 51.0942 52.7273 50.9725 52.6108Z" fill="white"/>
<path d="M48.15 54.6038C48.2891 54.7504 48.4195 54.897 48.5455 55.0351H53.0182C52.9182 54.8841 52.8139 54.7331 52.7096 54.6038H48.15Z" fill="white"/>
<path d="M49.3021 56.1521C49.4672 56.4138 49.6237 56.6812 49.7715 56.9543H54.1181C53.9761 56.6812 53.8313 56.4138 53.6835 56.1521H49.3021Z" fill="white"/>
<path d="M51.3422 60.0895C51.3813 60.1758 51.4247 60.2577 51.4639 60.344H55.7192L55.6019 60.0852L51.3422 60.0895Z" fill="white"/>
<path d="M56.2477 62.2815C56.1695 62.053 56.0869 61.8244 56 61.6001H51.749C51.8272 61.8244 51.9011 62.053 51.975 62.2772L56.2477 62.2815Z" fill="white"/>
<path d="M52.6176 63.4454C52.6152 63.4683 52.6152 63.4915 52.6176 63.5144L52.6437 63.5618C52.6491 63.571 52.6519 63.5814 52.6519 63.592C52.6519 63.6026 52.6491 63.613 52.6437 63.6222L52.722 63.8681H56.973C56.9339 63.7257 56.8947 63.5834 56.8513 63.4368L52.6176 63.4454Z" fill="white"/>
<path d="M53.1019 64.9675C53.1367 65.0581 53.1671 65.153 53.2019 65.2479C53.2628 65.4161 53.3193 65.5886 53.3801 65.7568H57.5138C57.4399 65.498 57.3703 65.2349 57.3008 64.9718L53.1019 64.9675Z" fill="white"/>
<path d="M58.0528 67.6325L57.9094 67.1409H53.8583C53.9148 67.3048 53.967 67.473 54.0235 67.6369L58.0528 67.6325Z" fill="white"/>
<path d="M54.3585 68.6547C54.4281 68.8704 54.502 69.086 54.5715 69.2974C55.8755 69.2974 57.2099 69.2974 58.5313 69.2974L58.3487 68.6547C57.0187 68.6504 55.6886 68.6547 54.3585 68.6547Z" fill="white"/>
<path d="M54.6679 69.5955L54.9591 70.5184C56.2631 70.5184 57.5671 70.5184 58.8711 70.5184C58.7755 70.2122 58.6929 69.9017 58.606 69.5955H54.6679Z" fill="white"/>
<path d="M55.3158 71.6353C55.4288 71.9803 55.5375 72.321 55.6461 72.6617H59.5581C59.4408 72.3253 59.3408 71.9803 59.2321 71.6396L55.3158 71.6353Z" fill="white"/>
<path d="M56.0611 73.8737C56.1393 74.1023 56.2219 74.3352 56.3045 74.5638H60.2426C60.1513 74.3352 60.0687 74.1023 59.9818 73.8737C58.6734 73.8694 57.3651 73.8737 56.0611 73.8737Z" fill="white"/>
<path d="M56.9169 76.1899C56.9561 76.2805 56.9865 76.3711 57.0256 76.4617C58.3644 76.4617 59.706 76.4617 61.0506 76.4617C61.0115 76.3754 60.9767 76.2848 60.9376 76.1986L56.9169 76.1899Z" fill="white"/>
<path d="M57.1097 76.6726C57.2532 77.0133 57.3923 77.3541 57.5444 77.6905H61.6476C61.4738 77.3541 61.3086 77.0133 61.1434 76.6726H57.1097Z" fill="white"/>
<path d="M57.6281 77.8669C57.815 78.2982 58.0019 78.695 58.2062 79.1004H62.4354C62.1964 78.6993 61.9703 78.2853 61.7487 77.8669H57.6281Z" fill="white"/>
<path d="M58.3362 79.3596C58.4724 79.627 58.6173 79.8901 58.7709 80.1489L58.8361 80.2696H63.1827C62.9828 79.9721 62.7959 79.6658 62.609 79.3596H58.3362Z" fill="white"/>
<path d="M59.5968 81.6973C59.8185 82.0941 60.0315 82.4865 60.2923 82.8704H65.1257C64.791 82.4952 64.4737 82.1027 64.1695 81.7059L59.5968 81.6973Z" fill="white"/>
<path d="M61.2612 84.2158H66.438C66.0729 83.8664 65.7165 83.5041 65.3774 83.1289H60.4788C60.5613 83.2497 60.6352 83.3704 60.7178 83.4869C60.896 83.75 61.0786 83.9829 61.2612 84.2158Z" fill="white"/>
<path d="M63.1713 86.441H69.1435C68.748 86.1478 68.3524 85.8458 67.9612 85.531H62.3671C62.554 85.751 62.7453 85.9623 62.9409 86.1823C63.0148 86.2858 63.093 86.3677 63.1713 86.441Z" fill="white"/>
<path d="M72.6419 88.5983C72.3203 88.4516 72.0073 88.2964 71.7031 88.1282H65.0049C65.1961 88.2748 65.3874 88.4215 65.5786 88.5595C67.9302 88.5595 70.2904 88.5983 72.6419 88.5983Z" fill="white"/>
<path d="M78.1141 90.5043C77.6795 90.3706 77.2448 90.2153 76.8101 90.073C73.8805 90.073 70.9509 90.073 68.0212 90.073C68.2516 90.2067 68.4863 90.3231 68.7167 90.4482C71.8463 90.4827 74.9788 90.5014 78.1141 90.5043Z" fill="white"/>
<path d="M75.1539 93.1953L75.6844 93.3428L75.8061 93.3906C75.8313 93.368 75.861 93.351 75.8932 93.3405C75.9254 93.3301 75.9594 93.3264 75.9931 93.3298C76.1192 93.2994 76.2366 93.2561 76.3583 93.217L75.1539 93.1953Z" fill="white"/>
<path d="M41.1669 44.9941L42.1713 50.2861C42.039 48.4902 41.7021 46.7149 41.1669 44.9941Z" fill="white"/>
<path d="M44.9407 42.5663C44.9407 42.5663 46.349 45.6802 48.2832 45.2489C50.2175 44.8176 51.5997 42.0186 51.5997 42.0186C51.5997 42.0186 50.5696 45.0376 48.2832 45.4689C45.9969 45.9002 44.9407 42.5663 44.9407 42.5663Z" fill="white"/>
<path d="M52.4691 42.9761C52.4691 42.9761 53.4688 45.9951 56.2333 45.4862C58.9978 44.9773 60.0627 43.3297 60.0627 43.3297C60.0627 43.3297 57.9893 45.1972 55.9769 45.3611C53.7731 45.5423 52.4691 42.9761 52.4691 42.9761Z" fill="white"/>
<path d="M60.8353 45.4688C60.8353 45.4688 61.2701 47.5519 63.0093 47.5044C63.0006 47.5217 61.1092 47.8365 60.8353 45.4688Z" fill="white"/>
<path d="M50.3677 79.7478C50.371 79.7937 50.3606 79.8396 50.3376 79.8795C50.3147 79.9195 50.2803 79.9519 50.2389 79.9725C50.1974 79.9932 50.1507 80.0012 50.1047 79.9955C50.0587 79.9899 50.0154 79.9708 49.9802 79.9408C49.9451 79.9108 49.9197 79.8711 49.9073 79.8267C49.8949 79.7824 49.896 79.7354 49.9105 79.6917C49.9249 79.648 49.9521 79.6095 49.9886 79.5811C50.0251 79.5527 50.0693 79.5357 50.1155 79.5322C50.1464 79.5298 50.1774 79.5335 50.2068 79.5431C50.2362 79.5527 50.2634 79.568 50.2868 79.588C50.3103 79.608 50.3295 79.6325 50.3434 79.6599C50.3573 79.6873 50.3655 79.7172 50.3677 79.7478Z" fill="white"/>
<path d="M51.7954 80.6276C51.7978 80.6891 51.776 80.7491 51.7346 80.795C51.6932 80.8409 51.6355 80.869 51.5736 80.8734C51.5428 80.8758 51.5118 80.872 51.4824 80.8625C51.453 80.8529 51.4258 80.8376 51.4023 80.8176C51.3789 80.7975 51.3597 80.7731 51.3458 80.7457C51.3319 80.7183 51.3236 80.6884 51.3214 80.6578C51.3178 80.5955 51.3391 80.5344 51.3806 80.4876C51.4221 80.4408 51.4805 80.412 51.5432 80.4076C51.6059 80.4041 51.6676 80.4251 51.7147 80.4663C51.7619 80.5075 51.7909 80.5654 51.7954 80.6276Z" fill="white"/>
<path d="M53.7731 80.921C53.7749 80.9516 53.7705 80.9823 53.7603 81.0112C53.7501 81.0401 53.7343 81.0668 53.7137 81.0896C53.6931 81.1124 53.6681 81.131 53.6403 81.1443C53.6124 81.1575 53.5822 81.1652 53.5513 81.1669C53.5205 81.1689 53.4896 81.1648 53.4603 81.1549C53.4311 81.145 53.4041 81.1296 53.3809 81.1093C53.3576 81.0891 53.3387 81.0645 53.325 81.037C53.3114 81.0095 53.3033 80.9797 53.3013 80.9491C53.2993 80.9185 53.3034 80.8878 53.3134 80.8588C53.3233 80.8298 53.339 80.803 53.3593 80.78C53.3797 80.7569 53.4045 80.7381 53.4322 80.7246C53.4599 80.711 53.4901 80.7031 53.5209 80.7011C53.5837 80.6975 53.6453 80.7186 53.6925 80.7598C53.7397 80.8009 53.7686 80.8589 53.7731 80.921Z" fill="white"/>
<path d="M55.9466 80.8345C55.9486 80.8651 55.9445 80.8958 55.9345 80.9248C55.9246 80.9538 55.909 80.9806 55.8886 81.0036C55.8682 81.0266 55.8434 81.0455 55.8157 81.059C55.788 81.0725 55.7578 81.0805 55.727 81.0825C55.6962 81.0845 55.6652 81.0804 55.636 81.0706C55.6067 81.0607 55.5797 81.0452 55.5565 81.025C55.5333 81.0047 55.5143 80.9802 55.5007 80.9527C55.487 80.9252 55.479 80.8953 55.477 80.8647C55.473 80.8029 55.4938 80.7421 55.535 80.6956C55.5762 80.6491 55.6343 80.6207 55.6966 80.6167C55.7588 80.6127 55.8202 80.6334 55.867 80.6742C55.9139 80.7151 55.9425 80.7727 55.9466 80.8345Z" fill="white"/>
<path d="M57.9444 80.2571C57.9468 80.2875 57.943 80.318 57.9333 80.3469C57.9236 80.3758 57.9082 80.4025 57.8879 80.4254C57.8677 80.4483 57.843 80.467 57.8154 80.4803C57.7877 80.4936 57.7577 80.5013 57.727 80.5029C57.6962 80.5053 57.6652 80.5016 57.6358 80.492C57.6064 80.4824 57.5792 80.4672 57.5558 80.4471C57.5323 80.4271 57.5131 80.4026 57.4992 80.3752C57.4853 80.3478 57.4771 80.3179 57.4749 80.2873C57.4729 80.2567 57.477 80.226 57.4869 80.197C57.4969 80.168 57.5125 80.1412 57.5329 80.1182C57.5533 80.0952 57.578 80.0763 57.6057 80.0628C57.6335 80.0493 57.6636 80.0413 57.6944 80.0393C57.7253 80.0373 57.7562 80.0414 57.7854 80.0513C57.8147 80.0611 57.8417 80.0766 57.8649 80.0968C57.8881 80.1171 57.9071 80.1416 57.9207 80.1691C57.9344 80.1966 57.9424 80.2265 57.9444 80.2571Z" fill="white"/>
<path d="M48.6306 80.7786C48.6306 80.8246 48.6168 80.8697 48.591 80.908C48.5652 80.9463 48.5286 80.9761 48.4857 80.9937C48.4428 81.0114 48.3955 81.016 48.35 81.007C48.3045 80.998 48.2626 80.9758 48.2298 80.9432C48.1969 80.9107 48.1746 80.8692 48.1655 80.824C48.1565 80.7788 48.1611 80.732 48.1789 80.6894C48.1967 80.6469 48.2268 80.6105 48.2654 80.5849C48.304 80.5593 48.3494 80.5457 48.3958 80.5457C48.4581 80.5457 48.5178 80.5702 48.5618 80.6139C48.6059 80.6575 48.6306 80.7168 48.6306 80.7786Z" fill="#F09D2E"/>
<path d="M49.9344 81.6973C49.9344 81.7433 49.9206 81.7883 49.8948 81.8266C49.869 81.8649 49.8323 81.8948 49.7894 81.9124C49.7465 81.9301 49.6993 81.9347 49.6538 81.9257C49.6082 81.9167 49.5664 81.8945 49.5336 81.8619C49.5007 81.8294 49.4784 81.7879 49.4693 81.7427C49.4602 81.6975 49.4649 81.6507 49.4827 81.6081C49.5004 81.5656 49.5305 81.5292 49.5691 81.5036C49.6077 81.478 49.6531 81.4644 49.6996 81.4644C49.7304 81.4644 49.7609 81.4704 49.7894 81.4821C49.8179 81.4938 49.8438 81.5109 49.8656 81.5326C49.8874 81.5542 49.9047 81.5799 49.9165 81.6081C49.9283 81.6364 49.9344 81.6667 49.9344 81.6973Z" fill="#F09D2E"/>
<path d="M52.0347 82.1848C52.0347 82.2309 52.0209 82.2759 51.9951 82.3142C51.9693 82.3525 51.9327 82.3824 51.8898 82.4C51.8469 82.4176 51.7997 82.4222 51.7541 82.4132C51.7086 82.4042 51.6667 82.3821 51.6339 82.3495C51.6011 82.3169 51.5787 82.2754 51.5696 82.2302C51.5606 82.1851 51.5652 82.1382 51.583 82.0957C51.6008 82.0531 51.6309 82.0167 51.6695 81.9912C51.7081 81.9656 51.7535 81.9519 51.7999 81.9519C51.8307 81.9519 51.8613 81.9579 51.8898 81.9696C51.9183 81.9813 51.9441 81.9985 51.9659 82.0201C51.9877 82.0417 52.005 82.0674 52.0168 82.0957C52.0286 82.1239 52.0347 82.1542 52.0347 82.1848Z" fill="#F09D2E"/>
<path d="M54.267 82.5119C54.2658 82.5741 54.2401 82.6333 54.1954 82.6769C54.1507 82.7205 54.0905 82.7448 54.0278 82.7448C53.9655 82.7448 53.9058 82.7203 53.8618 82.6766C53.8178 82.6329 53.793 82.5737 53.793 82.5119C53.793 82.4502 53.8178 82.3909 53.8618 82.3473C53.9058 82.3036 53.9655 82.2791 54.0278 82.2791C54.0905 82.279 54.1507 82.3034 54.1954 82.347C54.2401 82.3906 54.2658 82.4498 54.267 82.5119Z" fill="#F09D2E"/>
<path d="M56.6814 82.2793C56.6814 82.3253 56.6676 82.3704 56.6418 82.4087C56.616 82.447 56.5793 82.4768 56.5364 82.4945C56.4935 82.5121 56.4463 82.5167 56.4008 82.5077C56.3552 82.4987 56.3134 82.4765 56.2806 82.444C56.2477 82.4114 56.2254 82.3699 56.2163 82.3247C56.2072 82.2795 56.2119 82.2327 56.2297 82.1902C56.2474 82.1476 56.2775 82.1112 56.3161 82.0856C56.3547 82.06 56.4001 82.0464 56.4466 82.0464C56.4774 82.0464 56.5079 82.0524 56.5364 82.0641C56.5649 82.0758 56.5908 82.093 56.6126 82.1146C56.6344 82.1362 56.6517 82.1619 56.6635 82.1902C56.6753 82.2184 56.6814 82.2487 56.6814 82.2793Z" fill="#F09D2E"/>
<path d="M58.9414 81.7317C58.9414 81.7777 58.9276 81.8228 58.9018 81.8611C58.876 81.8994 58.8393 81.9292 58.7964 81.9468C58.7535 81.9645 58.7063 81.9691 58.6608 81.9601C58.6152 81.9511 58.5734 81.9289 58.5406 81.8964C58.5077 81.8638 58.4854 81.8223 58.4763 81.7771C58.4673 81.7319 58.4719 81.6851 58.4897 81.6426C58.5074 81.6 58.5375 81.5636 58.5762 81.538C58.6148 81.5124 58.6602 81.4988 58.7066 81.4988C58.7689 81.4988 58.8286 81.5233 58.8726 81.567C58.9166 81.6107 58.9414 81.6699 58.9414 81.7317Z" fill="#F09D2E"/>
<path d="M41.2449 54.1418C41.2449 54.1418 39.2839 55.867 39.8578 58.1787C39.8065 56.7101 40.3 55.2737 41.2449 54.1418Z" fill="white"/>
<path d="M38.9125 59.5242C38.9125 59.5242 36.9516 61.2493 37.5255 63.5611C37.4742 62.0924 37.9677 60.6561 38.9125 59.5242Z" fill="white"/>
<path d="M39.3473 67.9478C39.3473 67.9478 37.6081 69.8411 38.4385 72.1485C38.7814 73.0193 39.3893 73.7625 40.1777 74.2748C39.5996 74.0137 39.1017 73.605 38.7351 73.0905C38.3684 72.5759 38.146 71.974 38.0907 71.3463C38.0548 70.7247 38.1478 70.1024 38.364 69.5179C38.5801 68.9333 38.9147 68.399 39.3473 67.9478Z" fill="white"/>
<path d="M43.0541 75.7324C42.4943 76.1891 42.0671 76.7853 41.8165 77.4599C41.5658 78.1345 41.5007 78.8631 41.6279 79.5709C41.7275 80.2306 42.0142 80.8485 42.4546 81.3525C42.895 81.8566 43.4709 82.2259 44.115 82.4175C43.4308 82.278 42.803 81.9426 42.3091 81.4528C41.8153 80.9629 41.4771 80.3401 41.3366 79.6615C40.7322 77.2118 43.0541 75.7324 43.0541 75.7324Z" fill="white"/>
<path d="M33.3693 96.9865C33.3693 96.9865 35.034 90.8923 43.9142 83.6165C43.9142 83.6165 36.7727 89.5208 34.2429 97.1245L33.3693 96.9865Z" fill="white"/>
<path d="M66.0525 89.8271C64.5602 91.6188 63.456 93.6962 62.8089 95.9299L62.3741 96.1068C63.0322 93.7332 64.2996 91.5696 66.0525 89.8271Z" fill="white"/>
<path d="M44.3179 85.1133C44.3179 85.1133 49.5817 89.7324 59.379 86.7522C59.379 86.7522 50.9335 90.2241 44.3179 85.1133Z" fill="white"/>
</g>

</svg>
