<?xml version="1.0" encoding="utf-8"?>
<!-- Generator: Adobe Illustrator 19.2.1, SVG Export Plug-In . SVG Version: 6.00 Build 0)  -->
<svg version="1.1" baseProfile="tiny" id="Слой_1"
	 xmlns="http://www.w3.org/2000/svg" xmlns:xlink="http://www.w3.org/1999/xlink" x="0px" y="0px" viewBox="0 0 12 12"
	 xml:space="preserve">
<path fill="#FFFFFF" d="M1,5h10c0.6,0,1,0.4,1,1l0,0c0,0.6-0.4,1-1,1H1C0.4,7,0,6.6,0,6l0,0C0,5.4,0.4,5,1,5z"/>
<path fill="#FFFFFF" d="M7,1v10c0,0.6-0.4,1-1,1l0,0c-0.6,0-1-0.4-1-1V1c0-0.6,0.4-1,1-1l0,0C6.6,0,7,0.4,7,1z"/>
</svg>
