<?xml version="1.0" encoding="utf-8"?>
<!-- Generator: Adobe Illustrator 19.2.1, SVG Export Plug-In . SVG Version: 6.00 Build 0)  -->
<svg version="1.1" baseProfile="tiny" id="Слой_1"
	 xmlns="http://www.w3.org/2000/svg" xmlns:xlink="http://www.w3.org/1999/xlink" x="0px" y="0px" viewBox="0 0 10 8"
	 xml:space="preserve">
<path fill="#FFFFFF" d="M6,1v6c0,0.6-0.4,1-1,1l0,0C4.4,8,4,7.6,4,7V1c0-0.6,0.4-1,1-1l0,0C5.6,0,6,0.4,6,1z"/>
<path fill="#FFFFFF" d="M10,1v6c0,0.6-0.4,1-1,1l0,0C8.4,8,8,7.6,8,7V1c0-0.6,0.4-1,1-1l0,0C9.6,0,10,0.4,10,1z"/>
<path fill="#FFFFFF" d="M2,1v6c0,0.6-0.4,1-1,1l0,0C0.4,8,0,7.6,0,7V1c0-0.6,0.4-1,1-1l0,0C1.6,0,2,0.4,2,1z"/>
</svg>
