<?xml version="1.0" encoding="utf-8"?>
<!-- Generator: Adobe Illustrator 19.2.1, SVG Export Plug-In . SVG Version: 6.00 Build 0)  -->
<svg version="1.1" baseProfile="tiny" id="Слой_1"
	 xmlns="http://www.w3.org/2000/svg" xmlns:xlink="http://www.w3.org/1999/xlink" x="0px" y="0px" viewBox="0 0 12 11"
	 xml:space="preserve">
<path fill="#FFFFFF" d="M4,3.5v1.2v1.9v0.9l0.8,0.7L8,11V5.5V0L4.8,2.7L4,3.5z"/>
<path fill="#FFFFFF" d="M0,4.6v1.7C0,6.7,0.4,7,0.8,7H3V6.6V4.2V4H0.8C0.4,4,0,4.3,0,4.6z"/>
<path fill="#FFFFFF" d="M11.5,4L11.5,4C11.2,4,11,4.2,11,4.3v2.3C11,6.8,11.2,7,11.5,7h0C11.8,7,12,6.8,12,6.7V4.3
	C12,4.2,11.8,4,11.5,4z"/>
<path fill="#FFFFFF" d="M9.5,2L9.5,2C9.2,2,9,2.1,9,2.3v6.4C9,8.9,9.2,9,9.5,9h0C9.8,9,10,8.9,10,8.7V2.3C10,2.1,9.8,2,9.5,2z"/>
</svg>
