<?xml version="1.0" encoding="utf-8"?>
<!-- Generator: Adobe Illustrator 19.2.1, SVG Export Plug-In . SVG Version: 6.00 Build 0)  -->
<svg version="1.1" baseProfile="tiny" id="Слой_1"
	 xmlns="http://www.w3.org/2000/svg" xmlns:xlink="http://www.w3.org/1999/xlink" x="0px" y="0px" viewBox="0 0 11 11"
	 xml:space="preserve">
<path fill="#FFFFFF" d="M4,3.5v1.2v1.9v0.9l0.8,0.7L8,11V5.5V0L4.8,2.7L4,3.5z"/>
<path fill="#FFFFFF" d="M0,4.6v1.7C0,6.7,0.4,7,0.8,7H3V6.6V4.2V4H0.8C0.4,4,0,4.3,0,4.6z"/>
<path fill="#FFFFFF" d="M10.4,6l0.5-0.5c0.1-0.1,0.1-0.3,0-0.4l0,0c-0.1-0.1-0.3-0.1-0.4,0L10,5.6L9.5,5.1C9.4,5,9.2,5,9.1,5.1l0,0
	C9,5.2,9,5.4,9.1,5.5L9.6,6L9.1,6.5C9,6.6,9,6.8,9.1,6.9l0,0C9.2,7,9.4,7,9.5,6.9L10,6.4l0.5,0.5c0.1,0.1,0.3,0.1,0.4,0l0,0
	c0.1-0.1,0.1-0.3,0-0.4L10.4,6z"/>
</svg>
