<svg width="87" height="124" viewBox="0 0 87 124" fill="none" xmlns="http://www.w3.org/2000/svg">
<g filter="url(#filter0_d)">
<path d="M1 4C1 1.79086 2.79086 0 5 0H82C84.2091 0 86 1.79086 86 4V118C86 120.209 84.2091 122 82 122H5C2.79086 122 1 120.209 1 118V4Z" fill="white"/>
</g>
<path d="M21 24C21 21.7909 22.7909 20 25 20H62C64.2091 20 66 21.7909 66 24V98C66 100.209 64.2091 102 62 102H25C22.7909 102 21 100.209 21 98V24Z" fill="#EDF2F5"/>
<path d="M27.4561 31H12.8369V28.0996L19.7363 20.7461C20.6836 19.7109 21.3818 18.8076 21.8311 18.0361C22.29 17.2646 22.5195 16.5322 22.5195 15.8389C22.5195 14.8916 22.2803 14.1494 21.8018 13.6123C21.3232 13.0654 20.6396 12.792 19.751 12.792C18.7939 12.792 18.0371 13.124 17.4805 13.7881C16.9336 14.4424 16.6602 15.3066 16.6602 16.3809H12.4121C12.4121 15.082 12.7197 13.8955 13.335 12.8213C13.96 11.7471 14.8389 10.9072 15.9717 10.3018C17.1045 9.68652 18.3887 9.37891 19.8242 9.37891C22.0215 9.37891 23.7256 9.90625 24.9365 10.9609C26.1572 12.0156 26.7676 13.5049 26.7676 15.4287C26.7676 16.4834 26.4941 17.5576 25.9473 18.6514C25.4004 19.7451 24.4629 21.0195 23.1348 22.4746L18.2861 27.5869H27.4561V31Z" fill="#FF3D3D"/>
<path d="M29.267 42.8854C28.1131 41.6697 26.62 41 25.0626 41C23.5684 41 22.1333 41.6166 21.0002 42.7405C19.8671 41.6166 18.4317 41 16.9375 41C15.3802 41 13.887 41.6697 12.7331 42.8854C11.576 44.1046 10.9612 45.7355 11.0019 47.4771C11.0414 49.167 11.6925 50.7637 12.8354 51.975L21 61L29.1646 51.975C30.3075 50.7637 30.9584 49.167 30.9981 47.4773C31.0392 45.735 30.4242 44.1046 29.267 42.8854Z" fill="#FF3D3D"/>
<path d="M72.534 75.7708C70.2263 73.3394 67.2399 72 64.1253 72C61.1369 72 58.2666 73.2332 56.0004 75.481C53.7341 73.2332 50.8635 72 47.8751 72C44.7604 72 41.7741 73.3394 39.4663 75.7708C37.152 78.2092 35.9223 81.4709 36.0038 84.9541C36.0828 88.3341 37.385 91.5275 39.6708 93.9499L56 112L72.3292 93.9499C74.615 91.5275 75.9167 88.3341 75.9961 84.9545C76.0784 81.4701 74.8483 78.2092 72.534 75.7708Z" fill="#FF3D3D"/>

</svg>
