<svg width="87" height="124" viewBox="0 0 87 124" fill="none" xmlns="http://www.w3.org/2000/svg">
<g filter="url(#filter0_d)">
<path d="M1 4C1 1.79086 2.79086 0 5 0H82C84.2091 0 86 1.79086 86 4V118C86 120.209 84.2091 122 82 122H5C2.79086 122 1 120.209 1 118V4Z" fill="white"/>
</g>
<path d="M21 24C21 21.7909 22.7909 20 25 20H62C64.2091 20 66 21.7909 66 24V98C66 100.209 64.2091 102 62 102H25C22.7909 102 21 100.209 21 98V24Z" fill="#EDF2F5"/>
<path d="M24.3213 9.45215V12.9385H23.9111C21.9971 12.9678 20.4541 13.4658 19.2822 14.4326C18.1201 15.3994 17.4219 16.7422 17.1875 18.4609C18.3203 17.3086 19.751 16.7324 21.4795 16.7324C23.335 16.7324 24.8096 17.3965 25.9033 18.7246C26.9971 20.0527 27.5439 21.8008 27.5439 23.9688C27.5439 25.3555 27.2412 26.6104 26.6357 27.7334C26.04 28.8564 25.1904 29.7305 24.0869 30.3555C22.9932 30.9805 21.7529 31.293 20.3662 31.293C18.1201 31.293 16.3037 30.5117 14.917 28.9492C13.54 27.3867 12.8516 25.3018 12.8516 22.6943V21.1709C12.8516 18.8564 13.2861 16.8154 14.1553 15.0479C15.0342 13.2705 16.2891 11.8984 17.9199 10.9316C19.5605 9.95508 21.46 9.46191 23.6182 9.45215H24.3213ZM20.1904 20.1309C19.5068 20.1309 18.8867 20.3115 18.3301 20.6729C17.7734 21.0244 17.3633 21.4932 17.0996 22.0791V23.3682C17.0996 24.7842 17.3779 25.8926 17.9346 26.6934C18.4912 27.4844 19.2725 27.8799 20.2783 27.8799C21.1865 27.8799 21.9189 27.5234 22.4756 26.8105C23.042 26.0879 23.3252 25.1553 23.3252 24.0127C23.3252 22.8506 23.042 21.9131 22.4756 21.2002C21.9092 20.4873 21.1475 20.1309 20.1904 20.1309Z" fill="black"/>
<path d="M22.5153 60.9826L19.2197 61C19.7881 60.1616 20.1635 59.3755 20.3467 58.642C20.5298 57.9083 20.6213 56.8137 20.6213 55.3581C19.8635 56.4877 19.1158 57.2854 18.3768 57.751C17.6383 58.2169 16.7575 58.4498 15.7349 58.4498C14.4217 58.4498 13.3044 58.0246 12.3826 57.1746C11.4612 56.3246 11 55.2881 11 54.0654C11 52.7029 11.5491 51.5967 12.6476 50.7464C13.746 49.8962 15.1733 49.4715 16.9286 49.4715L18.027 49.4891C16.8778 47.917 16.3034 46.543 16.3034 45.3668C16.3034 44.1556 16.7674 43.1251 17.6953 42.2751C18.6235 41.4251 19.7504 41 21.076 41C22.4271 41 23.5729 41.4278 24.5134 42.2838C25.4541 43.1396 25.9244 44.1848 25.9244 45.4191C25.9244 46.537 25.2804 47.8936 23.9928 49.4891C24.6492 49.4542 25.0847 49.4368 25.2992 49.4368C26.9536 49.4368 28.317 49.8677 29.3901 50.7293C30.4635 51.5911 31 52.6858 31 54.0132C31 55.201 30.5267 56.2433 29.5798 57.1399C28.6328 58.0364 27.5343 58.485 26.2842 58.485C25.2111 58.485 24.2957 58.2374 23.5379 57.7426C22.7806 57.2477 22.0544 56.418 21.3598 55.2536C21.3598 56.6858 21.4325 57.7631 21.5777 58.485C21.7229 59.2066 22.0355 60.0393 22.5153 60.9826Z" fill="black"/>
<path d="M59.0306 111.965L52.4394 112C53.5762 110.323 54.3271 108.751 54.6933 107.284C55.0595 105.817 55.2427 103.627 55.2427 100.716C53.727 102.975 52.2316 104.571 50.7537 105.502C49.2766 106.434 47.5151 106.9 45.4699 106.9C42.8434 106.9 40.6088 106.049 38.7651 104.349C36.9223 102.649 36 100.576 36 98.1307C36 95.4058 37.0982 93.1933 39.2951 91.4929C41.492 89.7924 44.3465 88.9431 47.8571 88.9431L50.054 88.9783C47.7557 85.8341 46.6067 83.086 46.6067 80.7336C46.6067 78.3112 47.5349 76.2503 49.3907 74.5502C51.247 72.8502 53.5009 72 56.152 72C58.8542 72 61.1459 72.8556 63.0268 74.5676C64.9082 76.2792 65.8489 78.3696 65.8489 80.8383C65.8489 83.0739 64.5608 85.7873 61.9856 88.9783C63.2983 88.9083 64.1694 88.8736 64.5985 88.8736C67.9071 88.8736 70.6341 89.7354 72.7802 91.4586C74.9269 93.1822 76 95.3715 76 98.0265C76 100.402 75.0535 102.487 73.1595 104.28C71.2656 106.073 69.0686 106.97 66.5683 106.97C64.4221 106.97 62.5915 106.475 61.0758 105.485C59.5611 104.495 58.1087 102.836 56.7197 100.507C56.7197 103.372 56.8651 105.526 57.1555 106.97C57.4458 108.413 58.071 110.079 59.0306 111.965Z" fill="black"/>

</svg>
