<svg width="87" height="124" viewBox="0 0 87 124" fill="none" xmlns="http://www.w3.org/2000/svg">
<g filter="url(#filter0_d)">
<path d="M1 4C1 1.79086 2.79086 0 5 0H82C84.2091 0 86 1.79086 86 4V118C86 120.209 84.2091 122 82 122H5C2.79086 122 1 120.209 1 118V4Z" fill="white"/>
</g>
<path d="M21 24C21 21.7909 22.7909 20 25 20H62C64.2091 20 66 21.7909 66 24V98C66 100.209 64.2091 102 62 102H25C22.7909 102 21 100.209 21 98V24Z" fill="#EDF2F5"/>
<path d="M27.4561 31H12.8369V28.0996L19.7363 20.7461C20.6836 19.7109 21.3818 18.8076 21.8311 18.0361C22.29 17.2646 22.5195 16.5322 22.5195 15.8389C22.5195 14.8916 22.2803 14.1494 21.8018 13.6123C21.3232 13.0654 20.6396 12.792 19.751 12.792C18.7939 12.792 18.0371 13.124 17.4805 13.7881C16.9336 14.4424 16.6602 15.3066 16.6602 16.3809H12.4121C12.4121 15.082 12.7197 13.8955 13.335 12.8213C13.96 11.7471 14.8389 10.9072 15.9717 10.3018C17.1045 9.68652 18.3887 9.37891 19.8242 9.37891C22.0215 9.37891 23.7256 9.90625 24.9365 10.9609C26.1572 12.0156 26.7676 13.5049 26.7676 15.4287C26.7676 16.4834 26.4941 17.5576 25.9473 18.6514C25.4004 19.7451 24.4629 21.0195 23.1348 22.4746L18.2861 27.5869H27.4561V31Z" fill="#FF3D3D"/>
<path d="M20.8391 41L31 50.8391L21.1609 61L11 51.1609L20.8391 41Z" fill="#FF3D3D"/>
<path d="M55.6782 72L76 91.6782L56.3218 112L36 92.3218L55.6782 72Z" fill="#FF3D3D"/>

</svg>
