<svg width="87" height="124" viewBox="0 0 87 124" fill="none" xmlns="http://www.w3.org/2000/svg">
<g filter="url(#filter0_d)">
<path d="M1 4C1 1.79086 2.79086 0 5 0H82C84.2091 0 86 1.79086 86 4V118C86 120.209 84.2091 122 82 122H5C2.79086 122 1 120.209 1 118V4Z" fill="white"/>
</g>
<path d="M21 24C21 21.7909 22.7909 20 25 20H62C64.2091 20 66 21.7909 66 24V98C66 100.209 64.2091 102 62 102H25C22.7909 102 21 100.209 21 98V24Z" fill="#EDF2F5"/>
<path d="M27.3389 12.0449L19.0918 31H14.624L22.8857 13.0996H12.2803V9.67188H27.3389V12.0449Z" fill="#FF3D3D"/>
<path d="M20.8391 41L31 50.8391L21.1609 61L11 51.1609L20.8391 41Z" fill="#FF3D3D"/>
<path d="M55.6782 72L76 91.6782L56.3218 112L36 92.3218L55.6782 72Z" fill="#FF3D3D"/>

</svg>
