<svg width="87" height="124" viewBox="0 0 87 124" fill="none" xmlns="http://www.w3.org/2000/svg">
<g filter="url(#filter0_d)">
<path d="M1 4C1 1.79086 2.79086 0 5 0H82C84.2091 0 86 1.79086 86 4V118C86 120.209 84.2091 122 82 122H5C2.79086 122 1 120.209 1 118V4Z" fill="white"/>
</g>
<path d="M21 24C21 21.7909 22.7909 20 25 20H62C64.2091 20 66 21.7909 66 24V98C66 100.209 64.2091 102 62 102H25C22.7909 102 21 100.209 21 98V24Z" fill="#EDF2F5"/>
<path d="M26.7383 15.3408C26.7383 16.376 26.4795 17.2939 25.9619 18.0947C25.4443 18.8955 24.7314 19.5352 23.8232 20.0137C24.8584 20.5117 25.6787 21.2002 26.2842 22.0791C26.8896 22.9482 27.1924 23.9736 27.1924 25.1553C27.1924 27.0498 26.5479 28.5488 25.2588 29.6523C23.9697 30.7461 22.2168 31.293 20 31.293C17.7832 31.293 16.0254 30.7412 14.7266 29.6377C13.4277 28.5342 12.7783 27.04 12.7783 25.1553C12.7783 23.9736 13.0811 22.9434 13.6865 22.0645C14.292 21.1855 15.1074 20.502 16.1328 20.0137C15.2246 19.5352 14.5117 18.8955 13.9941 18.0947C13.4863 17.2939 13.2324 16.376 13.2324 15.3408C13.2324 13.5244 13.8379 12.0791 15.0488 11.0049C16.2598 9.9209 17.9053 9.37891 19.9854 9.37891C22.0557 9.37891 23.6963 9.91602 24.9072 10.9902C26.1279 12.0547 26.7383 13.5049 26.7383 15.3408ZM22.9443 24.8477C22.9443 23.9199 22.6758 23.1777 22.1387 22.6211C21.6016 22.0645 20.8789 21.7861 19.9707 21.7861C19.0723 21.7861 18.3545 22.0645 17.8174 22.6211C17.2803 23.168 17.0117 23.9102 17.0117 24.8477C17.0117 25.7559 17.2754 26.4883 17.8027 27.0449C18.3301 27.6016 19.0625 27.8799 20 27.8799C20.918 27.8799 21.6357 27.6113 22.1533 27.0742C22.6807 26.5371 22.9443 25.7949 22.9443 24.8477ZM22.5049 15.5459C22.5049 14.7158 22.2852 14.0518 21.8457 13.5537C21.4062 13.0459 20.7861 12.792 19.9854 12.792C19.1943 12.792 18.5791 13.0361 18.1396 13.5244C17.7002 14.0127 17.4805 14.6865 17.4805 15.5459C17.4805 16.3955 17.7002 17.0791 18.1396 17.5967C18.5791 18.1143 19.1992 18.373 20 18.373C20.8008 18.373 21.416 18.1143 21.8457 17.5967C22.2852 17.0791 22.5049 16.3955 22.5049 15.5459Z" fill="#FF3D3D"/>
<path d="M20.8391 41L31 50.8391L21.1609 61L11 51.1609L20.8391 41Z" fill="#FF3D3D"/>
<path d="M55.6782 72L76 91.6782L56.3218 112L36 92.3218L55.6782 72Z" fill="#FF3D3D"/>

</svg>
