<svg width="87" height="124" viewBox="0 0 87 124" fill="none" xmlns="http://www.w3.org/2000/svg">
<g filter="url(#filter0_d)">
<path d="M1 4C1 1.79086 2.79086 0 5 0H82C84.2091 0 86 1.79086 86 4V118C86 120.209 84.2091 122 82 122H5C2.79086 122 1 120.209 1 118V4Z" fill="white"/>
</g>
<path d="M21 24C21 21.7909 22.7909 20 25 20H62C64.2091 20 66 21.7909 66 24V98C66 100.209 64.2091 102 62 102H25C22.7909 102 21 100.209 21 98V24Z" fill="#EDF2F5"/>
<path d="M22.124 9.67188H26.5186V24.4375C26.5186 25.7949 26.2158 26.9961 25.6104 28.041C25.0146 29.0762 24.1699 29.877 23.0762 30.4434C21.9824 31.0098 20.7471 31.293 19.3701 31.293C17.1143 31.293 15.3564 30.7217 14.0967 29.5791C12.8369 28.4268 12.207 26.8008 12.207 24.7012H16.6309C16.6309 25.7461 16.8506 26.5176 17.29 27.0156C17.7295 27.5137 18.4229 27.7627 19.3701 27.7627C20.21 27.7627 20.8789 27.4746 21.377 26.8984C21.875 26.3223 22.124 25.502 22.124 24.4375V9.67188Z" fill="#FA2630"/>
<path d="M20.8391 41L31 50.8391L21.1609 61L11 51.1609L20.8391 41Z" fill="#FF3D3D"/>
<g clip-path="url(#clip0)">
<path d="M34.1874 102.64C35.4937 102.162 36.9197 102.095 38.2978 101.985C40.5401 101.771 42.7934 101.696 45.0449 101.76C49.8188 101.887 54.5823 102.273 59.3142 102.917C64.0994 103.635 68.8845 104.525 73.4496 106.075C75.7312 106.832 77.9679 107.718 80.1488 108.729C81.2781 109.256 82.417 109.758 83.4984 110.38C83.8563 110.626 84.1969 110.896 84.5177 111.188C84.6031 111.295 84.6709 111.414 84.7186 111.542C83.2304 112.021 81.4982 111.834 79.9335 112.021C77.493 112.293 74.8325 112.15 72.3681 112.159C67.9419 112.159 63.5587 112.03 59.142 111.681C54.2444 111.195 49.4465 109.982 44.9061 108.084C42.5518 107.127 40.1832 106.242 37.8719 105.18C36.6517 104.616 35.0583 103.96 34.1108 102.965C34.0822 102.944 34.0604 102.915 34.0481 102.882C34.0358 102.848 34.0336 102.812 34.0418 102.777C34.0499 102.743 34.0681 102.711 34.094 102.687C34.1198 102.662 34.1523 102.646 34.1874 102.64Z" fill="#006790"/>
<path d="M38.5081 104.993C40.6471 105.95 42.8148 106.907 45.0494 107.648C49.6396 109.249 54.3593 110.451 59.1561 111.241C63.3282 111.813 67.5434 112.008 71.7506 111.824C73.9996 111.753 76.2774 111.628 78.5216 111.695L79.6796 111.729C78.9571 111.504 78.201 111.112 77.622 110.882L76.8564 110.576C75.6002 110.707 74.3344 110.718 73.0761 110.609C73.0253 110.617 72.9738 110.617 72.923 110.609C71.7219 110.523 70.5304 110.394 69.4298 110.342C66.0802 110.174 62.8454 109.643 59.5437 109.16C56.3273 108.677 53.1566 107.929 50.0643 106.921C49.1073 106.673 45.1882 105.161 43.5469 104.419C41.719 104.493 39.9022 104.616 38.0966 104.788C38.2258 104.86 38.3646 104.931 38.5081 104.993Z" fill="#FA2630"/>
<path d="M69.3399 109.08C69.0285 109.18 68.7079 109.249 68.3828 109.285C68.0144 109.343 67.555 109.204 67.2152 109.285C67.1626 109.285 67.11 109.233 67.153 109.19C67.354 109.013 67.177 109.19 67.5167 108.95C68.0957 108.553 67.8756 107.807 67.4354 107.4C66.6123 107.18 65.7845 106.974 64.9614 106.773C64.7999 106.789 64.6398 106.818 64.4829 106.859C64.1362 107.001 63.8432 107.249 63.6455 107.568C63.2866 108.084 63.2436 109.123 63.8465 109.482C63.8614 109.49 63.8744 109.501 63.8848 109.515C64.4303 109.592 64.9758 109.663 65.5261 109.73C65.3127 109.658 65.1194 109.537 64.9617 109.376C64.804 109.215 64.6864 109.019 64.6184 108.804C64.5504 108.59 64.5338 108.362 64.5702 108.139C64.6065 107.917 64.6946 107.706 64.8275 107.524C65.306 106.821 67.0286 107.261 67.0143 108.166C67.0143 108.84 66.3396 108.903 65.8802 108.644C65.7931 108.563 65.7316 108.458 65.7031 108.343C65.952 108.486 66.2774 108.544 66.397 108.257C66.5836 107.826 66.0668 107.367 65.6409 107.515C65.499 107.558 65.3691 107.633 65.2613 107.735C65.1535 107.837 65.0708 107.962 65.0197 108.101C64.9687 108.241 64.9507 108.39 64.9671 108.537C64.9836 108.684 65.0341 108.826 65.1146 108.95C65.2133 109.138 65.355 109.299 65.5279 109.421C65.7009 109.544 65.9003 109.623 66.1099 109.654C66.7906 109.81 67.4932 109.847 68.1866 109.764C69.2107 109.683 70.1964 109.247 71.1821 108.979C71.5207 108.881 71.8688 108.82 72.2205 108.797L71.8616 108.678L71.3448 108.52C70.6522 108.605 69.9764 108.794 69.3399 109.08Z" fill="#FA2630"/>
<path d="M70.9666 108.405C69.8947 108.079 68.8133 107.773 67.7318 107.481C68.2104 107.96 68.3778 108.721 67.6218 109.108L67.5548 109.151C67.7031 109.151 67.8563 109.118 68.0333 109.089C68.5645 108.984 69.086 108.902 69.6076 108.759C70.0513 108.607 70.5055 108.489 70.9666 108.405Z" fill="#8F0101"/>
<path d="M62.8792 106.998C62.9478 106.855 63.0511 106.731 63.1798 106.637C63.3084 106.543 63.4584 106.483 63.6161 106.462C62.1582 106.121 60.6924 105.802 59.2185 105.505H59.1563C60.1081 105.849 61.0032 106.333 61.8121 106.941C62.0035 107.08 62.6734 107.506 62.7069 107.745C62.6827 107.615 62.6854 107.482 62.7151 107.354C62.7447 107.225 62.8006 107.104 62.8792 106.998Z" fill="#8F0101"/>
<path d="M62.8794 108.084C62.8793 108.093 62.8764 108.102 62.8712 108.11C62.8659 108.118 62.8585 108.124 62.8498 108.127C62.8411 108.131 62.8316 108.132 62.8224 108.13C62.8132 108.128 62.8048 108.124 62.7981 108.117C61.3731 106.836 59.6816 105.887 57.8454 105.338C55.7974 105.075 54.0173 105.816 52.1033 106.534C51.6731 106.693 51.2271 106.805 50.773 106.869C51.1367 106.979 51.4955 107.098 51.864 107.204C52.5387 106.247 54.5772 105.864 55.5916 106.213C55.6081 106.22 55.6227 106.231 55.6341 106.244C55.6455 106.258 55.6535 106.274 55.6572 106.292C55.661 106.309 55.6605 106.327 55.6557 106.344C55.651 106.362 55.6421 106.377 55.6299 106.39C55.2567 106.763 54.6729 107.62 55.3428 108.093L56.1898 108.28C55.3285 107.581 55.8644 106.06 57.0894 106.017C59.7404 105.917 61.3099 108.203 63.4297 109.366C63.2754 109.092 63.1944 108.783 63.1944 108.469C63.1944 108.155 63.2754 107.846 63.4297 107.572C63.6532 107.188 64.0034 106.894 64.4203 106.74C64.481 106.718 64.5434 106.702 64.6069 106.692L64.1284 106.586C63.2287 106.854 62.7981 107.361 62.8794 108.084Z" fill="#FA2630"/>
<path d="M51.0888 105.831C51.0409 105.831 51.0026 105.802 50.9978 105.759C50.9356 104.898 50.572 104.539 50.1317 104.439H49.6532C49.5429 104.453 49.4341 104.477 49.3278 104.51C49.4487 104.534 49.5661 104.572 49.6771 104.625C50.0982 104.822 50.3136 105.42 50.0264 105.688C50.1509 105.056 49.1077 104.453 48.6818 105.027C48.621 105.139 48.583 105.261 48.57 105.388C48.5571 105.514 48.5695 105.642 48.6065 105.764C48.6434 105.885 48.7043 105.998 48.7854 106.096C48.8665 106.194 48.9663 106.275 49.079 106.334C49.2468 106.423 49.4277 106.484 49.6149 106.515L49.7298 106.559C49.9089 106.581 50.0908 106.57 50.2657 106.525C50.9534 106.492 51.6286 106.329 52.2563 106.047C52.9358 105.798 53.6153 105.568 54.3044 105.348C55.1943 105.074 56.1341 105 57.0558 105.133L56.8884 105.09C56.0398 104.959 55.1912 104.849 54.3427 104.759C53.2182 104.874 52.1846 105.448 51.0888 105.831Z" fill="#FA2630"/>
<path d="M53.3091 104.663C52.3138 104.568 51.3137 104.496 50.3089 104.448C50.5235 104.576 50.7081 104.749 50.8501 104.954C50.9921 105.16 51.0882 105.393 51.1319 105.64C51.0745 105.261 52.7014 104.788 53.0747 104.711L53.3091 104.663Z" fill="#8F0101"/>
<path d="M47.193 104.64C47.2427 104.533 47.3184 104.441 47.4131 104.372C46.3173 104.372 45.2263 104.372 44.1305 104.4C45.1449 104.845 46.1833 105.257 47.2313 105.649L47.1595 105.525C47.101 105.384 47.0738 105.231 47.0795 105.079C47.0853 104.926 47.124 104.776 47.193 104.64Z" fill="#8F0101"/>
<path d="M47.8544 104.376C47.675 104.49 47.536 104.657 47.4573 104.855C47.3679 105.151 47.39 105.469 47.5195 105.75C47.8018 105.855 48.0793 105.965 48.3617 106.065C48.2594 105.825 48.232 105.559 48.2833 105.303C48.3345 105.047 48.4619 104.812 48.6488 104.63C48.7261 104.538 48.8164 104.457 48.9167 104.391C48.5626 104.381 48.2085 104.381 47.8544 104.376Z" fill="#8F0101"/>
<path d="M55.3283 106.405C54.2222 106.382 53.1362 106.702 52.218 107.319C53.1367 107.577 54.0555 107.797 54.979 108.027C54.8948 107.923 54.8387 107.8 54.8163 107.668C54.7062 107.108 55.0077 106.773 55.3283 106.405Z" fill="#8F0101"/>
<path d="M58.4997 107.238C58.62 107.356 58.6932 107.514 58.7055 107.682C58.7179 107.85 58.6685 108.017 58.5667 108.152C58.4046 108.363 58.1901 108.528 57.9446 108.63C58.2269 108.678 58.5045 108.731 58.7868 108.774C59.2318 108.649 59.9448 108.381 59.0739 107.625C59.0021 107.563 59.0356 107.448 59.1361 107.482C60.2848 107.901 61.3495 108.521 62.28 109.314L63.2753 109.467C62.5479 109.233 61.744 108.305 61.2272 107.922C60.665 107.5 60.0751 107.116 59.4615 106.773C58.7003 106.397 57.8654 106.192 57.0163 106.175C56.9077 106.18 56.803 106.217 56.7148 106.281C55.9109 106.702 55.8248 108.094 56.8249 108.396C57.2508 108.525 58.0212 108.477 58.0594 107.879C58.069 107.769 58.0544 107.659 58.0166 107.555C57.9788 107.452 57.9188 107.358 57.8407 107.281C57.7626 107.203 57.6685 107.143 57.5649 107.106C57.4613 107.069 57.3508 107.055 57.2412 107.065C57.4511 107.002 57.672 106.985 57.8891 107.015C58.1062 107.045 58.3145 107.121 58.4997 107.238Z" fill="#FA2630"/>
<path d="M59.2855 108.84L62.0848 109.271C61.6063 108.988 61.1757 108.644 60.7067 108.362C60.2782 108.11 59.8282 107.897 59.3621 107.725C59.6348 108.132 59.6348 108.653 59.2855 108.84Z" fill="#8F0101"/>
<path d="M71.2631 109.16C70.6936 109.323 70.1386 109.524 69.5739 109.696C69.0379 109.858 68.486 109.963 67.9278 110.007L68.7461 110.069C69.9998 110.146 71.2774 110.256 72.5742 110.337C72.49 110.229 72.443 110.096 72.4402 109.959C72.4426 109.862 72.4745 109.768 72.5318 109.689C72.5891 109.61 72.669 109.551 72.7608 109.519C72.8664 109.484 72.9806 109.484 73.0862 109.519L73.2011 109.586C73.1461 109.591 73.0916 109.6 73.0384 109.615C72.8374 109.615 72.6508 109.667 72.646 109.935C72.6532 110.005 72.6758 110.073 72.7122 110.134C72.7486 110.194 72.7979 110.246 72.8565 110.285C72.8863 110.302 72.9185 110.315 72.9522 110.323C73.0801 110.406 73.2308 110.446 73.3829 110.438C73.7179 110.438 74.048 110.05 73.8614 109.725C73.6935 109.476 73.4577 109.28 73.1819 109.16V109.127C72.876 109.004 72.5487 108.944 72.2191 108.949C71.8896 108.955 71.5645 109.027 71.2631 109.16Z" fill="#FA2630"/>
<path d="M74.1567 110.16C74.0894 110.253 74.0087 110.335 73.9174 110.404C74.7787 110.442 75.6401 110.452 76.4918 110.404C75.5348 110.012 74.5778 109.619 73.5824 109.26C73.9222 109.519 74.3529 109.892 74.1567 110.16Z" fill="#8F0101"/>
<path d="M35.9634 103.669C36.5472 103.96 37.0975 104.276 37.6621 104.573C39.4853 104.396 43.5096 104.128 43.6053 104.171C48.4613 103.955 53.3266 104.256 58.1187 105.07C62.3248 105.821 66.4209 106.917 70.5314 108.06C72.2567 108.567 73.9477 109.184 75.5941 109.906C76.0152 110.088 76.2927 110.179 77.2115 110.528C77.556 110.657 77.8958 110.782 78.2307 110.916C78.9138 111.252 79.6247 111.529 80.3553 111.743C81.7812 111.822 83.2109 111.684 84.595 111.332L84.4753 111.251C83.4305 110.594 82.338 110.017 81.2071 109.524C79.0525 108.512 76.8485 107.608 74.6036 106.816C70.0289 105.219 65.3778 104.348 60.5926 103.496C55.8075 102.645 50.9792 102.363 46.1749 102.167C44.1359 102.087 42.0939 102.127 40.0595 102.286C38.1933 102.43 36.3223 102.406 34.5135 102.951C34.9537 102.822 35.571 103.477 35.9634 103.669Z" fill="#006790"/>
<path d="M82.2008 111.189C82.2008 111.189 65.4049 101.401 37.1629 103.807C37.1438 103.827 60.591 102.1 82.2008 111.189Z" fill="white"/>
<path d="M79.4449 110.633C79.4449 110.633 64.6109 101.985 39.6707 104.109C39.6707 104.109 60.3425 102.578 79.4449 110.633Z" fill="white"/>
<path d="M82.2008 111.189C82.2008 111.189 65.4049 101.401 37.1629 103.807C37.1438 103.827 59.1555 100.813 82.2008 111.189Z" fill="white"/>
<path d="M78.0013 111.385C78.0013 111.385 65.6269 112.676 53.0946 109.778C53.0946 109.778 42.974 106.807 39.366 104.96C39.366 104.96 51.1566 109.457 57.9611 110.39C64.7656 111.323 78.0013 111.385 78.0013 111.385Z" fill="white"/>
<path d="M76.1058 110.753C76.1058 110.753 65.1 111.767 53.7735 109.155C53.7735 109.155 45.811 106.462 42.5571 104.793C47.5958 106.883 52.8382 108.445 58.1998 109.452C64.3056 110.61 76.1058 110.753 76.1058 110.753Z" fill="white"/>
<path d="M77.0482 110.997C77.0482 110.997 65.4154 112.212 53.6439 109.49C53.6439 109.49 44.1311 106.697 40.724 104.965C40.724 104.965 51.6725 108.973 58.0654 109.854C64.4584 110.734 77.0482 110.997 77.0482 110.997Z" fill="white"/>
<path d="M25.2249 89.9346C27.0337 88.7579 28.8712 88.203 30.7709 87.1697C32.5988 86.1747 34.8861 85.0793 36.8433 84.2039C36.722 84.0143 36.6148 83.816 36.5227 83.6107C35.3886 81.1089 37.5419 78.4444 40.102 80.0182C40.1812 80.0659 40.255 80.122 40.3221 80.1856C40.2025 76.8658 40.4178 71.8144 40.3986 71.8239V71.7952C40.3986 71.977 39.6282 71.6852 39.5325 71.6134C39.3759 71.5164 39.2584 71.3674 39.2007 71.1925C39.143 71.0175 39.1486 70.8279 39.2167 70.6567C38.8865 71.0394 38.0396 71.0203 37.5706 71.092C36.7332 71.2164 35.6948 71.2499 35.0632 70.5802C34.1062 69.5565 34.9053 67.71 35.3503 66.6337C35.6039 66.0406 35.8288 65.4282 36.1446 64.8542C36.5418 64.0793 36.9868 63.3235 37.4462 62.582C40.4561 57.7601 44.5665 52.9526 49.8685 50.7043C52.6008 49.5515 55.6537 49.5419 58.5392 49.164C60.9126 48.8579 63.3578 49.0444 65.76 49.2071C65.7867 49.2002 65.8147 49.2002 65.8413 49.2071C66.3198 49.2406 66.8271 49.274 67.3152 49.298C69.7413 49.4182 72.1368 49.8919 74.4259 50.7043C74.8443 50.9356 75.2251 51.2292 75.5552 51.575C75.6204 51.6528 75.6811 51.7342 75.737 51.8189C75.8555 52.0396 75.9349 52.2791 75.9715 52.5269C75.9715 52.6752 75.9715 52.8235 75.9332 52.9718C75.8837 53.2473 75.815 53.519 75.7275 53.785C75.4931 54.4222 75.2016 55.037 74.8566 55.6219C74.6552 55.8807 74.4275 56.118 74.1771 56.3298C73.866 56.5977 72.1147 57.4014 71.6027 57.808C71.591 57.868 71.591 57.9297 71.6027 57.9898C71.8705 58.5022 71.9338 59.0972 71.7797 59.6544C71.7282 59.864 71.6157 60.0536 71.4564 60.1992C71.2972 60.3448 71.0983 60.4399 70.8849 60.4724C70.6983 60.5059 70.5116 60.5538 70.3298 60.6016L70.2197 60.6399C70.2485 61.2283 70.4351 61.8645 70.4973 62.4241C70.5978 63.3809 70.8035 64.3376 70.9758 65.2943C71.0715 65.8396 71.2821 66.251 71.0141 66.7294C70.8755 66.927 70.715 67.1084 70.5356 67.2699C70.356 67.4635 70.1867 67.6663 70.0283 67.8775C69.8322 68.1405 70.2437 68.7241 70.4064 68.9872C70.9136 69.7861 71.4304 70.5658 71.9663 71.3456C72.3204 71.867 73.0621 72.4601 73.1578 73.0964C73.3205 74.2205 70.8849 74.12 70.4829 74.9046C70.5069 75.4081 70.7009 75.8887 71.0332 76.2679C71.067 76.3124 71.0908 76.3635 71.1032 76.418C71.1156 76.4724 71.1162 76.5289 71.105 76.5836C70.8523 76.9861 70.4883 77.3068 70.0571 77.5068C69.9909 77.5501 69.9182 77.5824 69.8417 77.6025C69.8991 77.8465 70.2006 78.0091 70.2628 78.2674C70.325 78.5257 70.1432 78.7458 69.9183 78.918C69.8135 79.0008 69.7257 79.1032 69.6599 79.2194C69.6422 79.2433 69.6193 79.263 69.5929 79.2768L69.5498 79.3342C69.7269 80.3483 70.4255 82.3861 69.8991 82.8884C68.9421 83.7781 66.7744 83.5916 65.5638 83.472C64.9752 83.3549 64.4206 83.1064 63.9416 82.7449C63.6641 82.5727 63.3913 82.3813 63.1186 82.1948C63.1186 82.3574 63.1186 82.52 63.1186 82.6731C63.1472 82.9218 63.2359 83.1599 63.377 83.3667L63.4727 83.2902C63.4687 83.2711 63.4707 83.2512 63.4784 83.2332C63.4861 83.2153 63.4992 83.2001 63.5157 83.1897C63.5286 83.1793 63.5446 83.1735 63.5612 83.1735C63.5778 83.1735 63.5938 83.1793 63.6067 83.1897C64.2501 83.3549 64.8226 83.7242 65.2384 84.2421C65.2664 84.2837 65.2844 84.3312 65.291 84.3809C68.4923 86.0408 71.8611 87.8394 75.249 89.0114C75.249 88.8918 75.2059 88.7626 75.182 88.6383C75.1414 88.5769 75.1133 88.5081 75.0994 88.4359C75.0854 88.3636 75.0858 88.2894 75.1006 88.2173C75.1086 88.189 75.1232 88.163 75.1431 88.1413C75.1631 88.1197 75.1879 88.1031 75.2155 88.0929C75.7571 87.9856 76.3106 87.9502 76.8615 87.9877C77.5841 87.9877 78.2971 87.9877 79.0292 88.069C78.9909 86.8635 78.8905 85.6772 78.9527 84.4526C78.9957 83.582 79.9097 83.2328 80.6323 83.0175C81.3548 82.8023 82.0247 82.6779 82.7042 82.4866C82.599 78.0378 82.4793 73.5891 82.0726 69.1547C82.0247 68.6046 81.9625 68.0544 81.8955 67.5043C81.4357 67.439 80.9722 67.4022 80.5078 67.3943H80.4504C79.7878 67.3812 79.1252 67.4228 78.4694 67.5187H78.4119C78.0578 67.5474 77.7181 67.5904 77.3736 67.6431H77.2587C77.2035 67.6216 77.1542 67.5871 77.1152 67.5426C77.7038 66.3177 77.9658 64.9616 77.876 63.6057C77.7612 61.721 76.986 60.2093 76.2251 58.5494C76.2106 58.5057 76.1994 58.4609 76.1916 58.4155C77.6171 59.2065 79.1847 59.7088 80.8045 59.8936C80.6323 59.2191 80.3691 58.3103 80.1537 57.6501C80.1403 57.6415 80.1288 57.6301 80.1202 57.6166C80.08 57.5113 80.0605 57.3993 80.0628 57.2866C80.1585 57.1622 80.2542 57.0378 80.3595 56.9182C81.1921 56.1481 82.7521 55.9615 83.7809 55.9615C85.0539 55.9077 86.2974 56.3541 87.2453 57.2052C87.2594 57.2274 87.2668 57.2531 87.2668 57.2794C87.2668 57.3056 87.2594 57.3314 87.2453 57.3535C87.1748 57.4872 87.0915 57.6138 86.9965 57.7314C86.8434 58.3485 86.7142 58.9704 86.6089 59.5923C87.6492 59.3825 88.6577 59.0384 89.6092 58.5686C89.6313 58.5731 89.6541 58.5731 89.6762 58.5686C90.5039 58.2387 91.2489 57.7308 91.8582 57.0809C92.1374 56.7771 92.3843 56.4453 92.5951 56.0907C92.8412 55.7549 93.0483 55.3922 93.2124 55.0096H93.2459C95.0021 57.3918 95.6911 60.7738 95.9256 63.6248C96.2414 67.5139 95.6194 71.7857 93.5091 75.1581C93.405 75.298 93.2915 75.4307 93.1694 75.5551C92.6038 74.2366 91.7112 73.0841 90.5758 72.2066C89.8498 71.4931 89.076 70.8298 88.2598 70.2214C87.5186 69.6726 86.729 69.1922 85.9007 68.7863C85.9007 69.1834 85.8624 69.5756 85.8385 69.9727C85.6184 73.7995 85.3935 78.0282 85.9294 81.8551C86.2022 82.2139 86.4797 82.7831 86.2596 83.1036C86.7209 83.0109 87.1933 82.9868 87.6616 83.0319C88.0349 83.0654 88.7096 83.2137 88.901 83.5916C89.2838 84.3522 89.279 85.3184 88.2502 85.438C88.5482 85.6718 88.7744 85.9845 88.903 86.3406C89.0316 86.6968 89.0574 87.0818 88.9776 87.4519C88.943 87.6186 88.8616 87.7719 88.743 87.8939C88.6243 88.0159 88.4733 88.1015 88.3076 88.1408C88.4489 88.2721 88.5569 88.4352 88.6226 88.6165C88.6884 88.7979 88.71 88.9923 88.6857 89.1836C88.6623 89.3183 88.6121 89.447 88.5381 89.562C88.4642 89.677 88.3679 89.7761 88.255 89.8533C88.9803 90.0583 89.6826 90.3372 90.3509 90.6856C91.047 90.9567 91.7114 91.3031 92.332 91.7189L92.6526 91.9916C92.1262 95.8184 90.8199 99.4444 89.303 102.994C88.4416 105.017 87.5899 107.031 86.6376 108.983C86.7908 111.207 87.2406 113.408 87.3267 115.637C87.3793 116.866 87.2023 118.077 86.4271 118.928C86.2405 119.406 85.9486 119.923 85.4174 119.966C85.0098 120.036 84.591 119.999 84.2019 119.859C83.8127 119.719 83.4666 119.481 83.1971 119.167C82.4937 118.301 82.9291 116.938 83.0535 115.977C83.1014 115.599 83.1349 115.221 83.1588 114.843L83.1253 114.881C83.1997 114.317 83.2285 113.747 83.2115 113.178C83.2115 112.518 83.2115 111.858 83.2402 111.207V111.04C82.0534 110.337 80.3116 109.944 79.0723 109.471C77.3736 108.825 75.67 108.213 73.9474 107.658C73.9244 107.668 73.8983 107.67 73.8744 107.662C73.8504 107.654 73.8304 107.637 73.8182 107.615C73.1802 107.414 72.5421 107.223 71.9041 107.041L71.2964 106.869H71.2294H71.1959C70.4734 106.438 69.4733 106.39 68.6885 106.184L67.3534 105.878H67.3199L66.9036 105.778C65.5686 105.467 64.2192 105.185 62.8697 104.931C62.4717 104.78 62.0598 104.668 61.64 104.596C60.8361 104.486 60.0322 104.372 59.2474 104.233C57.8118 103.989 56.3476 103.754 54.8881 103.601C53.2851 103.448 51.6773 103.405 50.0695 103.29C48.841 103.18 47.6059 103.166 46.3753 103.247C45.8729 103.247 45.3656 103.209 44.868 103.18L43.6813 103.128C43.3702 103.046 43.0496 103.128 42.7482 103.051C42.7207 103.045 42.6921 103.045 42.6647 103.052C42.6373 103.058 42.6118 103.071 42.5902 103.09C39.3558 102.952 36.1154 103.093 32.9051 103.51C32.6972 103.529 32.4877 103.518 32.283 103.477C32.283 103.381 32.2447 103.29 32.2208 103.2C31.1633 98.3298 28.986 93.7711 25.1436 90.5326C25.0586 90.4096 25.0089 90.2656 25 90.1164C25.0704 90.0504 25.1456 89.9897 25.2249 89.9346Z" fill="#006790"/>
<path d="M39.206 80.0184C38.9516 79.9299 38.6807 79.8986 38.4127 79.9267C38.1447 79.9548 37.8862 80.0417 37.6557 80.181C37.2859 80.4923 37.0149 80.9046 36.8757 81.3674C36.7919 81.6246 36.7311 81.8887 36.6938 82.1567C36.5372 82.7655 36.6266 83.4114 36.9428 83.9548C37.2589 84.4982 37.7763 84.8953 38.383 85.0603C38.6927 85.1597 39.0149 85.2144 39.34 85.223C39.9243 85.2192 40.4936 85.0373 40.9718 84.7015C42.6083 83.5248 42.2542 81.7788 42.4073 79.9658C42.5604 78.1528 42.5652 73.2161 42.7423 71.4031C42.7423 71.4031 42.7901 74.5029 42.7853 74.522C42.6944 76.7512 42.7184 78.9851 42.6561 81.2191C42.6227 82.348 42.7423 83.4722 42.1441 84.2232C42.4079 84.199 42.6737 84.2342 42.9221 84.3261C43.1705 84.4179 43.3952 84.5642 43.5797 84.7542C43.4696 81.1378 43.728 77.5022 43.7376 73.8858C43.8764 77.6266 44.0486 81.487 43.8859 85.2325C43.9333 85.3403 43.9702 85.4525 43.996 85.5674C44.0445 85.7162 44.0627 85.8732 44.0493 86.0292C44.0359 86.1851 43.9912 86.3368 43.918 86.4751C43.8448 86.6135 43.7445 86.7357 43.6231 86.8345C43.5017 86.9333 43.3616 87.0067 43.2112 87.0503C42.6849 87.1699 42.3738 86.8207 42.2542 86.3567C42.6849 86.6915 43.3452 86.7681 43.6228 86.2227C43.6759 86.1175 43.7067 86.0024 43.7133 85.8847C43.7199 85.767 43.7021 85.6492 43.661 85.5387C43.5798 85.248 43.397 84.9961 43.146 84.8285C42.895 84.6609 42.5922 84.5887 42.2925 84.625C42.1992 84.6468 42.1091 84.6806 42.0245 84.7255C41.1632 84.9838 41.0675 86.5911 41.3115 87.2416C41.7422 88.3849 43.7807 88.7533 44.331 87.5095C44.6228 86.8494 44.441 86.0744 44.6276 85.3712C44.5389 85.2698 44.4588 85.1609 44.3884 85.046C43.4313 83.4578 45.2258 81.4822 46.781 82.6924C46.8382 82.7385 46.891 82.7898 46.9389 82.8455C47.2021 78.4063 47.0106 75.2205 47.1781 70.4751C47.1781 70.4751 47.4939 80.999 47.1255 83.1182C47.244 83.3741 47.2694 83.6635 47.1973 83.9362C47.1351 84.0701 47.0491 84.1916 46.9437 84.2949C46.5848 84.6537 46.1062 84.8259 45.7665 84.5341C46.0647 84.5236 46.3508 84.4142 46.58 84.2232C46.7149 84.0802 46.7901 83.8911 46.7901 83.6946C46.7901 83.4981 46.7149 83.3089 46.58 83.166C46.4442 82.9906 46.268 82.8506 46.0663 82.7582C45.8646 82.6657 45.6435 82.6234 45.422 82.635H45.3263C44.9913 82.592 44.6611 82.922 44.5128 84.0031C44.3501 85.2086 45.6325 85.8305 46.647 85.8544C49.0396 85.9118 49.0396 82.8312 49.0396 81.2143C49.0396 80.4824 49.0396 79.7457 49.0396 79.0091C48.963 77.464 49.0395 70.7861 48.9965 68.2986L45.3837 69.7863C45.4363 70.1259 45.2019 78.6503 45.1636 79.894C45.0583 78.7555 44.953 72.2785 45.0822 69.9107C43.5701 70.5373 42.0484 71.1544 40.522 71.7476C40.8761 74.589 40.8091 81.2478 40.8186 81.5348C40.8253 81.8687 40.7445 82.1985 40.5842 82.4915C40.4548 82.7811 40.2381 83.023 39.9644 83.1834C39.6907 83.3438 39.3737 83.4146 39.0577 83.3861C38.7202 83.3145 38.4099 83.1486 38.1629 82.9077C37.8136 82.4676 37.8949 81.3769 38.5888 81.3291C38.7132 81.3291 39.1821 81.4009 39.2778 81.5779C38.9429 81.4439 38.249 81.774 38.3208 82.2858C38.2921 82.5394 38.5696 82.7929 38.7993 82.8886C38.9699 82.9557 39.1562 82.9725 39.336 82.9369C39.5159 82.9013 39.6817 82.8148 39.8138 82.6876L39.9095 82.6111C39.932 82.5957 39.9515 82.5762 39.9669 82.5537C40.1096 82.4307 40.2257 82.2799 40.3079 82.1104C40.3902 81.9409 40.437 81.7565 40.4454 81.5683C40.4131 81.2171 40.2784 80.8831 40.0581 80.6076C39.8378 80.3322 39.5416 80.1273 39.206 80.0184Z" fill="#F09D2E"/>
<path d="M46.0648 88.0702C46.0648 88.0702 46.0217 87.9793 46.0648 87.9793C46.438 87.9793 46.9692 87.831 46.8878 87.2424C46.8693 87.0726 46.8069 86.9106 46.7069 86.7722C46.6069 86.6338 46.4726 86.5238 46.3173 86.4528C46.162 86.3819 45.9909 86.3526 45.8208 86.3677C45.6507 86.3828 45.4874 86.4418 45.347 86.539C45.1962 86.6502 45.0814 86.8033 45.0168 86.9792C45.0135 87.2003 44.9845 87.4203 44.9307 87.6348C44.9307 87.7448 44.9307 87.8501 44.9594 87.9602C45.0695 88.7497 45.8494 89.0081 46.5098 89.099C48.4239 89.3574 48.2037 86.9601 48.3712 85.6968C47.8745 86.1252 47.232 86.3463 46.5768 86.3141C46.7169 86.3834 46.8433 86.4774 46.95 86.5916C47.6726 87.295 47.0122 88.9555 46.0648 88.0702Z" fill="#F09D2E"/>
<path d="M45.8969 86.1701C45.4997 86.046 45.1386 85.8276 44.8441 85.5337C44.9394 85.8938 44.9987 86.2625 45.0212 86.6343C45.2535 86.3868 45.5616 86.2235 45.8969 86.1701Z" fill="#F09D2E"/>
<path d="M43.054 95.79C43.834 95.039 44.9681 94.4028 45.6763 93.5752C44.0924 92.7381 42.5755 91.7814 40.9916 90.949C40.2164 90.5424 39.5561 89.9923 38.7665 89.5713C38.5977 89.4902 38.4374 89.3924 38.288 89.2795C38.7378 90.9442 39.2307 92.5962 39.7666 94.2353C40.1781 95.4918 40.6215 96.718 41.0969 97.9139C41.7907 97.249 42.3649 96.4597 43.054 95.79Z" fill="white"/>
<path d="M41.5512 98.067C41.5847 98.0383 43.9868 98.9663 44.1974 99.0237C45.0204 99.2964 46.1114 99.947 46.9536 99.9805C46.7335 98.9855 46.5373 97.9857 46.3603 96.9955C46.1832 96.0053 46.0301 94.9529 45.8817 93.9292C45.7516 94.1121 45.6076 94.2849 45.4511 94.4458C45.097 94.8477 44.7189 95.2303 44.3409 95.6178C43.4844 96.5171 42.4747 97.2394 41.5512 98.067Z" fill="#FA2630"/>
<path d="M41.695 90.6857C43.0253 91.5563 44.4704 92.2069 45.7816 93.111L45.6236 91.8386C45.4631 90.9903 45.4324 90.1225 45.5327 89.265C45.1027 89.0662 44.7617 88.7151 44.5757 88.2796C44.3413 88.4697 44.0707 88.6101 43.7803 88.6923C43.4899 88.7746 43.1858 88.7969 42.8865 88.7579C42.3568 88.6898 41.8624 88.4553 41.4745 88.0882C41.0867 87.7211 40.8254 87.2404 40.7284 86.7153C40.6083 86.8547 40.4805 86.9872 40.3456 87.1124C40.0489 87.3611 39.714 87.562 39.4269 87.8203C39.1398 88.0787 38.9483 88.1982 38.7234 88.3992C38.5855 88.5274 38.4348 88.6412 38.2736 88.7388C39.4682 89.2878 40.6129 89.9392 41.695 90.6857Z" fill="#FA2630"/>
<path d="M37.4607 63.5676C37.2884 63.8594 36.9295 64.5961 36.762 64.8975C36.1298 65.9623 35.659 67.1149 35.3648 68.3177C35.226 68.9444 34.9772 70.1451 35.7093 70.5086C35.8999 70.6028 36.1056 70.6627 36.317 70.6856C37.3028 71.0444 38.7431 70.566 39.5566 70.0159C39.614 70.0159 39.6714 69.9776 39.7288 69.9489C40.1662 69.7503 40.5723 69.4892 40.9347 69.174L40.3318 69.0496C39.8984 68.9465 39.4928 68.7501 39.1433 68.4742C38.7937 68.1982 38.5085 67.8494 38.3076 67.4519C37.8295 66.6154 37.5756 65.6696 37.5707 64.7061C37.5142 64.3288 37.4775 63.9488 37.4607 63.5676Z" fill="#006790"/>
<path d="M59.4337 60.416C60.0223 60.2007 60.6157 59.995 61.2186 59.7941C61.8583 58.5874 62.0288 57.1868 61.6971 55.862C61.1659 53.7907 59.2136 52.5804 57.4957 51.5568C56.9088 51.2395 56.2831 50.9999 55.6343 50.844C55.8257 50.9397 56.0171 51.0306 56.2085 51.1358C59.8835 53.1306 60.5917 56.7183 59.4337 60.416Z" fill="#FA2630"/>
<path d="M65.7071 49.5138C64.7022 49.4516 63.7069 49.4325 62.7451 49.4325C59.8107 49.3684 56.8766 49.5701 53.9787 50.0352C56.3713 50.7097 58.7638 51.5086 60.52 53.3838C61.9555 54.948 62.9126 57.689 61.6732 59.6359L62.5537 59.3489C64.1615 58.8706 65.7789 58.4352 67.4058 58.0095C68.2911 56.7849 68.9419 55.7803 69.095 54.1013C69.2194 52.7475 68.3581 51.7095 67.5494 50.7528C67.4691 50.6581 67.3828 50.5686 67.291 50.4849C67.1778 50.3558 67.0546 50.2358 66.9225 50.1261C66.5869 49.8064 66.1639 49.5933 65.7071 49.5138Z" fill="#F09D2E"/>
<path d="M69.4295 54.6176C69.3026 55.8434 68.7725 56.9925 67.9222 57.8848L68.1423 57.8322C68.6974 57.6839 69.2429 57.5691 69.7884 57.4734C70.3018 56.9792 70.716 56.3914 71.0086 55.7417C71.8412 53.5508 70.4344 51.8718 68.7931 50.6998C68.2781 50.3315 67.7123 50.0398 67.1135 49.834C67.4967 50.1568 67.8447 50.5192 68.1519 50.9151C68.6162 51.4058 68.9703 51.9899 69.1906 52.6284C69.411 53.2669 69.4924 53.9451 69.4295 54.6176Z" fill="#FA2630"/>
<path d="M75.167 54.4264C75.4972 53.7375 75.9087 52.7138 75.5068 52.0346C74.3344 50.2933 70.8125 50.0302 68.9942 49.7911C68.3769 49.7097 67.7405 49.6523 67.0801 49.6045C68.8333 50.1146 70.3193 51.2862 71.2241 52.8717C71.5487 53.5342 71.694 54.2702 71.6453 55.0063C71.5966 55.7424 71.3556 56.4529 70.9465 57.0669C70.8993 57.0786 70.8569 57.1047 70.8252 57.1415C70.7935 57.1784 70.774 57.2242 70.7695 57.2726L70.7073 57.3444H70.7743C70.7743 57.3874 70.8269 57.4161 70.8987 57.4065C72.8127 57.0526 74.3105 56.2059 75.167 54.4264Z" fill="#006790"/>
<path d="M70.6412 59.9226C70.7971 59.8309 70.9333 59.7092 71.0419 59.5646C71.1504 59.42 71.2292 59.2552 71.2737 59.08C71.3182 58.9047 71.3275 58.7224 71.3011 58.5435C71.2747 58.3646 71.213 58.1928 71.1197 58.0378C70.59 58.1357 70.0546 58.1996 69.5167 58.2292C68.9234 58.3631 68.3348 58.4971 67.7749 58.6549C65.7508 59.2194 63.7123 59.7312 61.6882 60.2957C57.7399 61.4236 53.9285 62.9846 50.3235 64.9501C46.8781 66.8062 43.251 68.1982 39.9301 70.303C39.8105 70.3795 39.6813 70.4465 39.5521 70.5135C39.5386 70.5575 39.5275 70.6022 39.5186 70.6474C39.4577 70.7173 39.415 70.8011 39.3942 70.8914C39.3873 70.9719 39.4051 71.0525 39.4453 71.1226C39.4855 71.1927 39.5461 71.2489 39.6191 71.2836C39.7824 71.371 39.9662 71.4131 40.1513 71.4055C40.3364 71.3979 40.5161 71.341 40.6718 71.2406C42.6385 70.3604 44.6626 69.5663 46.6102 68.71C49.4813 67.4567 52.3524 66.3757 55.2617 65.3089C58.1041 64.2661 60.9752 63.2424 63.875 62.2905C65.6934 61.6925 67.4974 60.9989 69.354 60.5062C69.7973 60.3447 70.2277 60.1496 70.6412 59.9226Z" fill="#8F0101"/>
<path d="M65.5682 82.9651C66.2963 83.093 67.0412 83.093 67.7694 82.9651C68.8556 82.8216 69.7217 82.9938 69.5446 81.53C69.399 80.8222 69.3363 80.0998 69.358 79.3774C69.3482 79.3435 69.3281 79.3134 69.3006 79.2913C69.0463 79.1299 68.7638 79.0179 68.468 78.9612C68.5066 78.8663 68.5779 78.7883 68.669 78.7412C68.8192 78.6746 68.9864 78.6562 69.1475 78.6886C69.3515 78.7412 69.5655 78.7412 69.7695 78.6886C69.8661 78.6545 69.9481 78.5885 70.002 78.5015C70.056 78.4146 70.0786 78.3118 70.0662 78.2102C70.0121 78.0393 69.9027 77.8912 69.7552 77.7893C69.722 77.7234 69.701 77.6521 69.693 77.5788H69.5542C69.3819 77.5453 69.224 77.507 69.0757 77.4688C68.6942 77.3065 68.2657 77.2929 67.8746 77.4305C67.109 77.6984 66.5587 77.8754 65.9175 77.2583C65.9425 77.2511 65.969 77.2511 65.9941 77.2583C66.1091 77.3053 66.217 77.3681 66.3147 77.4448C66.3457 77.4656 66.3827 77.4756 66.4199 77.4735C66.4277 77.471 66.4361 77.471 66.4439 77.4735C67.6258 76.8612 68.9082 77.5692 70.0614 76.9713C70.2098 76.8947 70.8653 76.646 70.784 76.5599C70.6068 76.367 70.4585 76.1495 70.3438 75.9141C70.2806 75.7963 70.2413 75.6672 70.2281 75.5343C70.215 75.4013 70.2283 75.267 70.2672 75.1391C70.2472 75.1166 70.2354 75.0879 70.2337 75.0578C70.1667 74.2446 71.9277 74.1011 72.6263 73.5845C72.6458 73.5579 72.6619 73.529 72.6741 73.4984C72.7161 73.3866 72.7481 73.2713 72.7698 73.154C72.8104 72.9971 72.8104 72.8325 72.7698 72.6756L72.6694 72.5417C71.5893 71.2314 70.6285 69.8275 69.7983 68.3464C69.5973 67.9925 70.071 67.5093 70.2768 67.3036C70.5591 67.0166 71.1333 66.5574 71.0089 66.0742C70.9164 65.6865 70.8476 65.2935 70.8031 64.8975C70.6835 64.0699 70.4969 63.2519 70.4203 62.4196C70.319 61.853 70.2487 61.2813 70.2098 60.707C66.0531 62.1517 61.9187 63.5868 57.8067 65.0123C58.2277 68.002 58.1177 76.8708 58.1177 78.2581C58.735 79.0091 60.4672 79.6931 61.0845 80.095C62.5057 80.9847 63.9173 82.5394 65.5682 82.9651Z" fill="white"/>
<path d="M63.5779 83.4434C61.6638 86.4283 59.3047 92.934 58.7066 93.1014C58.6252 93.1014 56.1657 89.1502 55.2565 88.0117C55.2474 87.9837 55.2474 87.9536 55.2565 87.9256C54.768 88.1687 54.2195 88.265 53.6774 88.203C54.2325 88.7914 54.6727 89.5329 55.1656 90.15C55.9909 91.1839 56.7409 92.2758 57.4098 93.4172C57.8516 94.2061 58.2277 95.0301 58.5343 95.8807C58.6252 96.1103 58.6013 96.5839 58.7831 96.0386C59.0224 95.3306 59.3669 94.6465 59.6349 93.9529C60.5393 91.5755 63.5205 85.7156 64.6737 84.6871C65.2335 84.1848 64.0373 83.8165 63.5779 83.4434Z" fill="white"/>
<path d="M73.9142 88.739C74.2109 90.9538 74.4597 93.4509 75.6895 95.3643C75.7417 93.295 75.5959 91.2255 75.2541 89.1839C74.7995 89.0643 74.3545 88.9112 73.9142 88.739Z" fill="#F09D2E"/>
<path d="M76.0618 95.3261C77.0189 95.7327 77.8754 96.235 78.8707 96.5698C80.0574 96.9669 81.8423 97.7466 83.1774 97.6175C83.1774 96.8521 83.1774 96.0867 83.1774 95.3213C83.1774 94.6803 83.0721 93.8862 83.0577 93.1448C81.4295 92.715 79.862 92.0818 78.3922 91.2601C77.3778 90.7195 76.1863 90.0115 75.5211 89.0022C75.8167 91.0987 75.9972 93.2099 76.0618 95.3261Z" fill="#F09D2E"/>
<path d="M79.0576 88.3274C78.2824 88.4135 77.4881 88.3944 76.7081 88.4135C76.3375 88.4199 75.9679 88.4551 75.6027 88.5188C76.781 89.8613 78.2554 90.9114 79.9094 91.5861C79.115 90.8348 79.0433 90.1505 79.0528 88.9255C79.0624 88.7054 79.0576 88.5284 79.0576 88.3274Z" fill="#006790"/>
<path d="M79.1672 109.093C80.1529 109.466 81.153 109.877 82.1005 110.337C82.4598 110.527 82.8343 110.687 83.2202 110.815C83.2776 107.605 83.1724 104.376 83.1867 101.162C83.1867 100.071 83.1867 98.9804 83.1867 97.885H82.7752C81.8054 97.9064 80.8379 97.7839 79.9041 97.5214C78.5371 97.1475 77.2429 96.5459 76.076 95.7419C76.1047 96.4595 76.119 96.9809 76.1142 97.1292C76.0095 100.594 75.3304 104.018 74.1045 107.261C75.8128 107.801 77.478 108.442 79.1672 109.093Z" fill="#FA2630"/>
<path d="M72.5542 106.769C72.9944 106.898 73.4346 107.037 73.8701 107.175C74.9022 103.504 75.5028 99.725 75.6597 95.9147C74.8331 94.9341 74.2422 93.7771 73.9323 92.5327C73.6973 94.9918 73.3218 97.4354 72.8078 99.8516C72.4077 102.07 71.8594 104.26 71.1665 106.405C71.6354 106.51 72.1044 106.635 72.5542 106.769Z" fill="#006790"/>
<path d="M67.7694 98.9185C67.7694 100.301 67.712 101.712 67.6019 103.123C68.2601 102.944 68.9007 102.705 69.516 102.41C70.1839 102.197 70.8627 102.02 71.5497 101.88C70.3343 100.827 69.0279 99.9134 67.7694 98.9185Z" fill="#FA2630"/>
<path d="M71.9375 101.784C72.0045 101.511 72.0763 101.234 72.1385 100.956C72.4543 99.5596 72.7031 98.1485 72.9089 96.7373C72.5021 97.297 70.7364 97.8327 70.3345 97.9619C69.6023 98.2011 68.7936 98.4068 68.0615 98.689C69.3966 99.7079 70.7747 100.583 71.9375 101.784Z" fill="white"/>
<path d="M67.7452 97.3159C67.7452 97.6507 67.7452 97.9904 67.7452 98.33C69.3578 97.6364 71.0422 97.0863 72.6883 96.4644C71.6643 95.7612 70.6737 94.9241 69.6832 94.1874C68.9798 93.6708 68.1998 93.2689 67.4677 92.8049C67.6065 94.2783 67.7069 95.7708 67.7452 97.3159Z" fill="#FA2630"/>
<path d="M68.1046 92.6376C68.7364 92.9803 69.3383 93.3756 69.9038 93.8192C70.8226 94.4697 72.2581 95.2064 73.0094 96.1297C73.2773 94.2162 73.464 92.2549 73.6314 90.3224C73.6203 89.872 73.6379 89.4215 73.6841 88.9734C73.2056 89.5666 71.9375 90.0975 71.4638 90.4085C70.3267 91.2086 69.1153 91.8974 67.8462 92.4654C68.0328 92.5802 68.1955 92.6807 68.1046 92.6376Z" fill="white"/>
<path d="M70.7505 105.888C71.1572 104.668 71.5256 103.429 71.8463 102.176C71.3677 102.654 68.8938 103.381 67.8889 103.578C68.5104 104.127 69.1657 104.636 69.8508 105.104C70.1752 105.336 70.4764 105.598 70.7505 105.888Z" fill="white"/>
<path d="M70.7417 99.3349C71.4068 99.1202 72.0482 98.838 72.6558 98.4927C72.5218 99.2535 72.3734 100.014 72.206 100.775C71.6939 100.301 71.2154 99.8182 70.7417 99.3349Z" fill="#F09D2E"/>
<path d="M70.7269 92.9202C71.684 92.2648 72.641 91.6286 73.598 90.9302C73.4927 92.1596 73.3683 93.3937 73.2248 94.6231C72.373 94.0586 71.5452 93.4894 70.7269 92.9202Z" fill="#F09D2E"/>
<path d="M69.507 103.731C70.2344 103.477 70.9426 103.204 71.6508 102.893C71.4051 103.793 71.1387 104.686 70.8516 105.573C70.4066 104.97 69.9616 104.338 69.507 103.731Z" fill="#F09D2E"/>
<path d="M70.2382 106.138C69.8649 105.803 69.5156 105.41 69.1328 105.094C68.6303 104.673 68.0226 104.276 67.5489 103.802C67.501 104.353 67.4436 104.898 67.3766 105.444C68.3337 105.664 69.2875 105.895 70.2382 106.138Z" fill="#FA2630"/>
<path d="M67.3583 92.0539C68.0553 91.652 68.7834 91.3064 69.5355 91.0206C70.4782 90.5822 71.3967 90.0936 72.287 89.5569C72.5837 89.3751 73.4498 89.1072 73.7225 88.7389C73.7225 88.7389 73.7225 88.7054 73.7225 88.691H73.6795C72.3061 88.1409 70.9711 87.4473 69.6551 86.8063C68.5019 86.2418 67.2195 85.7491 66.0424 85.1416C66.6253 87.4159 67.0648 89.7245 67.3583 92.0539Z" fill="#FA2630"/>
<path d="M67.6451 102.301C67.693 101.483 67.7312 100.665 67.7456 99.8511C68.0375 100.105 68.3294 100.358 68.6261 100.602L69.3869 101.22C68.7935 101.555 68.248 101.947 67.6451 102.301Z" fill="white"/>
<path d="M67.7701 97.5466C67.7701 97.4701 67.7701 97.3935 67.7701 97.3169C67.7461 96.2881 67.6887 95.2833 67.6121 94.2927C68.0524 94.5846 68.4974 94.8669 68.9137 95.1588C69.4305 95.5273 69.9425 95.9005 70.4545 96.2786C69.5645 96.7475 68.6553 97.1447 67.7701 97.5466Z" fill="white"/>
<path d="M66.9567 89.3701C66.7079 87.9351 66.4112 86.543 66.0475 85.0984C67.2247 85.7059 68.5071 86.1986 69.6603 86.7631L70.4929 87.1745C69.2474 87.793 68.0634 88.5282 66.9567 89.3701Z" fill="white"/>
<path d="M66.9362 105.338C67.1324 102.836 67.185 100.31 67.1898 97.8228C67.1898 97.6171 67.1898 97.4019 67.1898 97.1914C66.1692 99.837 64.7509 102.311 62.9837 104.529C64.3235 104.778 65.6299 105.046 66.9362 105.338Z" fill="#8F0101"/>
<path d="M62.3048 104.396C63.9988 101.861 65.5922 99.2726 67.1857 96.656C67.1857 95.4649 67.1187 94.2642 67.0373 93.054C66.3666 95.0411 65.4605 96.9409 64.3385 98.713C63.1996 100.555 62.0656 102.387 60.7879 104.123L62.3048 104.396Z" fill="#FA2630"/>
<path d="M60.2904 104.041C62.7212 100.32 65.1999 96.6124 66.9561 92.532C66.965 92.5146 66.9782 92.4998 66.9944 92.4889C66.9609 92.0536 66.9178 91.6279 66.8748 91.2021C65.9334 93.5179 64.8135 95.7569 63.5251 97.8992C62.7356 99.2673 61.8551 100.583 61.0321 101.927C60.6588 102.544 60.1755 103.472 59.5391 103.912L60.2904 104.041Z" fill="#8F0101"/>
<path d="M59.3043 103.879C60.4911 101.765 61.9745 99.7605 63.233 97.6605C63.9699 96.4312 64.6015 95.1396 65.2523 93.8671C65.6797 93.0928 66.0615 92.2941 66.3959 91.4753C66.512 91.1993 66.6512 90.9337 66.8123 90.6813C66.6974 89.7246 66.2141 85.8594 65.9366 85.051C65.6638 84.9075 65.3958 84.7592 65.1375 84.6013C61.8883 88.079 59.2948 96.2829 58.6775 96.6847C58.5914 96.7421 54.4043 89.8441 53.0023 88.0742C52.6055 87.8732 52.2933 87.5374 52.1218 87.1271C52.0926 87.4114 51.9985 87.6852 51.8467 87.9274C51.6948 88.1696 51.4894 88.3737 51.2461 88.5239C51.0133 88.6582 50.7549 88.7421 50.4875 88.7699C50.2201 88.7978 49.9499 88.769 49.6944 88.6856C49.4389 88.6021 49.2038 88.4657 49.0046 88.2854C48.8053 88.1051 48.6462 87.8848 48.5377 87.6389C48.533 87.9687 48.4442 88.2918 48.28 88.5778C48.1157 88.8638 47.8813 89.1032 47.5989 89.2736C47.3164 89.444 46.9952 89.5397 46.6655 89.5516C46.3358 89.5635 46.0086 89.4914 45.7145 89.3419C45.7165 89.9047 45.7661 90.4664 45.8628 91.0209C46.4945 92.1116 47.7769 93.0492 48.6382 93.8911C49.7723 95.0343 50.9447 96.1154 52.0309 97.297C53.8336 99.2274 55.4892 101.29 56.9835 103.468V103.497L57.3041 103.54C57.9836 103.659 58.644 103.774 59.3043 103.879Z" fill="#006790"/>
<path d="M55.2035 103.295C55.6485 103.343 56.0887 103.396 56.5338 103.453C54.8491 101 52.9499 98.7012 50.8586 96.5838C49.5905 95.3018 48.2937 94.0581 47.0304 92.757C46.6252 92.3874 46.261 91.9752 45.9442 91.5276C46.0016 91.8624 46.0543 92.1829 46.0973 92.4556C46.0973 92.6039 46.1404 92.7474 46.1595 92.8957C47.7865 94.9718 49.7245 96.8469 51.4758 98.813C52.7583 100.267 54.0168 101.76 55.2035 103.295Z" fill="#8F0101"/>
<path d="M54.462 103.219C53.3231 101.87 52.1938 100.516 51.0358 99.1815C49.4423 97.3542 47.3512 95.5603 46.2506 93.3599C46.3751 94.2145 46.5043 95.0708 46.6382 95.9287C47.7005 97.6986 49.361 99.1863 50.586 100.846C51.1411 101.602 51.744 102.334 52.3517 103.061C53.0408 103.104 53.7538 103.157 54.462 103.219Z" fill="#FA2630"/>
<path d="M51.6384 103.023C51.0116 102.286 50.3991 101.535 49.8392 100.741C48.9444 99.4684 47.3988 98.0716 46.7145 96.5552C46.7145 96.6939 46.7576 96.8326 46.7815 96.9761C47.1117 98.9565 47.5998 100.923 48.1261 102.87C49.2985 102.913 50.4708 102.956 51.6384 103.023Z" fill="#8F0101"/>
<path d="M47.672 102.856C47.471 102.157 47.294 101.449 47.1265 100.741C46.5156 101.55 45.7514 102.232 44.8775 102.746C45.801 102.789 46.715 102.823 47.672 102.856Z" fill="#FA2630"/>
<path d="M43.3659 97.6319C43.8109 97.2588 44.2655 96.8952 44.7057 96.5173C45.1775 96.1086 45.6279 95.6759 46.0551 95.2209C46.1413 95.8189 46.2322 96.4121 46.3422 97.0052C46.4714 97.7323 46.615 98.4642 46.7681 99.1961C45.6436 98.6986 44.5047 98.1772 43.3659 97.6319Z" fill="white"/>
<path d="M45.5994 91.658C45.0826 91.3374 44.5706 91.0168 44.049 90.701C43.2021 90.2225 42.3407 89.7439 41.4698 89.2941C41.7857 89.0884 42.0967 88.8778 42.3982 88.6577C42.5537 88.7121 42.7138 88.7522 42.8767 88.7773C43.176 88.8163 43.4801 88.794 43.7704 88.7117C44.0608 88.6295 44.3315 88.489 44.5658 88.2988C44.7519 88.7345 45.0929 89.0857 45.5229 89.2846C45.4257 90.0749 45.4516 90.8756 45.5994 91.658Z" fill="white"/>
<path d="M47.3849 101.802C47.4758 102.157 47.5715 102.506 47.672 102.855L46.2699 102.803C46.6432 102.472 47.0212 102.142 47.3849 101.802Z" fill="white"/>
<path d="M44.2598 102.721C44.8053 101.765 45.6619 101.147 46.4658 100.444C45.8293 100.282 45.1977 99.9659 44.6187 99.7458C43.5085 99.3631 42.4175 98.9518 41.3361 98.4973C41.9135 99.9133 42.5435 101.307 43.2262 102.678L44.2598 102.721Z" fill="white"/>
<path d="M42.8627 102.669C41.5694 100.189 40.4502 97.6217 39.5131 94.9864C38.8288 93.073 38.336 91.1308 37.8287 89.1791C37.6804 88.6195 37.5273 88.0502 37.3933 87.481C37.2258 89.3131 36.4745 91.1069 35.0007 92.0923C33.948 92.7908 32.1296 92.652 31.053 92.1593C30.4118 91.8723 29.7418 91.5949 29.0767 91.3031C32.3258 94.1732 34.1825 98.7176 34.1777 102.927C37.0627 102.632 39.9653 102.546 42.8627 102.669Z" fill="#006790"/>
<path d="M30.6563 96.761C31.7411 98.7334 32.4791 100.877 32.8384 103.099C33.2355 103.037 33.6375 102.984 34.0394 102.941C33.7571 100.301 33.2355 97.8804 31.9627 95.5795C31.1264 94.1032 30.0821 92.7548 28.8619 91.5756C28.0655 90.9346 27.2154 90.3632 26.321 89.8678C26.3183 89.8472 26.3183 89.8263 26.321 89.8057C26.3093 89.8238 26.2937 89.8391 26.2754 89.8506C26.2572 89.8621 26.2366 89.8695 26.2152 89.8722C26.1938 89.875 26.172 89.873 26.1514 89.8665C26.1309 89.8599 26.112 89.849 26.0961 89.8344L25.3352 90.2266C27.5747 91.8674 29.3165 94.3501 30.6563 96.761Z" fill="#F09D2E"/>
<path d="M67.8516 70.2118C67.8516 70.1879 67.8995 70.2118 67.8947 70.2118C67.8229 70.4654 67.8325 70.738 67.7703 70.9868C67.7605 71.0139 67.7405 71.0361 67.7146 71.0486C67.6886 71.0611 67.6588 71.063 67.6315 71.0537C67.211 70.6479 66.7259 70.3148 66.196 70.0683C65.5862 69.812 64.9406 69.6507 64.2819 69.59C64.2857 69.5716 64.2951 69.5548 64.3088 69.5419C64.3225 69.5291 64.3399 69.5208 64.3585 69.5182C64.9135 69.3699 65.5643 69.633 66.0859 69.81C66.342 69.9028 66.5888 70.0198 66.8228 70.1592C66.8169 69.7103 66.8732 69.2628 66.9903 68.8294C67.0121 68.7369 67.0476 68.6483 67.0956 68.5663C66.9362 68.5578 66.7765 68.5578 66.6171 68.5663C65.6935 68.6141 64.9949 69.1929 64.1336 69.3843C64.0474 69.3843 63.9565 69.2934 64.0283 69.2216C64.7247 68.6511 65.5842 68.3161 66.4831 68.2649C66.5228 68.2602 66.563 68.2602 66.6027 68.2649C66.7654 68.2649 66.9281 68.2362 67.0812 68.2314C67.23 68.2219 67.3774 68.1979 67.5215 68.1597C67.5524 68.1503 67.5815 68.1357 67.6076 68.1166C67.6385 68.0457 67.6861 67.9833 67.7464 67.9348C67.918 67.8336 68.1119 67.7761 68.311 67.7674C67.6076 67.6239 66.9568 67.2891 66.2582 67.0977C65.1672 66.825 64.2771 67.3178 63.3249 67.7052C63.2873 67.7443 63.2474 67.7811 63.2052 67.8152H63.1526L62.7411 67.5761C63.209 66.6235 64.0189 65.8822 65.0093 65.5C65.4811 65.3874 65.9729 65.3874 66.4448 65.5C67.3301 65.6291 69.0958 66.5141 69.938 65.9018L70.0528 65.9257C70.115 66.4341 69.9816 66.9471 69.6796 67.3608C69.335 67.9396 69.0384 67.887 68.4641 67.777L68.3301 67.8344C68.1713 67.8825 68.0289 67.9735 67.9186 68.0975C67.8704 68.1874 67.8432 68.287 67.839 68.3889C67.8349 68.4908 67.8539 68.5924 67.8947 68.6859C68.0122 68.8604 68.101 69.0526 68.1579 69.2551C68.1579 69.3125 68.11 69.3412 68.067 69.3077C67.9355 69.1976 67.821 69.0686 67.7272 68.925C67.7272 69.2455 67.6507 69.5708 67.6363 69.8818C67.6364 70.1433 67.6124 70.4043 67.5645 70.6615L67.6172 70.7045C67.7033 70.5897 67.7703 70.3793 67.8516 70.2118Z" fill="#006790"/>
<path d="M69.0474 67.2754C69.4319 66.9758 69.7225 66.5723 69.8848 66.1127C69.2914 66.6869 68.6885 66.3184 67.8559 66.1127C66.8988 65.8782 65.8222 65.6341 64.8508 65.9691C64.3723 66.1366 63.7071 66.9261 63.2812 67.5291C63.6673 67.2261 64.112 67.0063 64.5872 66.8836C65.0623 66.7609 65.5578 66.7379 66.0423 66.8161C66.4847 66.9187 66.9195 67.0514 67.3438 67.2132C67.9563 67.4381 68.4349 67.7635 69.0474 67.2754Z" fill="#006790"/>
<path d="M62.8271 75.527C63.1479 75.3049 63.543 75.2173 63.9277 75.2829C64.0664 75.3451 64.3583 75.5126 64.1334 75.5987C64.0065 75.6379 63.8892 75.7031 63.7889 75.7901C63.6501 75.9337 63.5305 76.1107 63.6262 76.3117C63.7219 76.5127 64.1047 76.4361 64.2483 76.3691C64.5377 76.2962 64.8128 76.1749 65.0617 76.0103C65.6168 75.6992 66.1623 75.4312 66.7413 75.1633C66.7629 75.1545 66.7824 75.1415 66.7988 75.125C67.2389 75.127 67.6711 75.242 68.054 75.459C68.437 75.6761 68.7577 75.9878 68.9856 76.3644H69.0143C68.8352 76.3752 68.6562 76.3424 68.4927 76.2687C67.684 75.9002 66.8466 76.2017 66.1001 76.7807C65.679 77.1013 65.2436 77.7808 64.789 78.0009C63.832 78.4794 63.0185 78.0009 62.3246 77.2879C61.7648 76.7472 62.2911 75.9002 62.8271 75.527Z" fill="#006790"/>
<path d="M63.3955 77.5366C64.3526 78.3644 65.4675 76.7231 66.0752 76.302C66.4345 76.0168 66.8714 75.8464 67.3289 75.8131C67.7864 75.7798 68.2433 75.8851 68.6401 76.1154C68.4129 75.873 68.1377 75.6806 67.832 75.5504C67.5264 75.4203 67.197 75.3552 66.8648 75.3593C66.4287 75.4564 66.0209 75.6529 65.6733 75.9335C65.1469 76.235 64.4866 76.747 63.8406 76.6178C62.9697 76.4408 63.5247 75.723 64.0942 75.5459C63.9111 75.5058 63.7215 75.5065 63.5388 75.5478C63.356 75.5892 63.1846 75.6702 63.0367 75.7852C62.2567 76.369 62.8596 77.0724 63.3955 77.5366Z" fill="#006790"/>
<path d="M62.7411 81.9464C61.7841 81.2719 60.8557 80.5639 59.8413 79.966C59.2494 79.6799 58.6743 79.3605 58.1186 79.0093V79.4063C58.1186 79.8368 58.1186 80.2626 58.1473 80.6931C58.0731 81.3281 58.0411 81.9673 58.0516 82.6065C58.1306 82.2868 58.3088 82.0003 58.5607 81.7881C58.8125 81.5758 59.1251 81.4487 59.4537 81.425C60.9658 81.1906 61.8128 82.9414 61.9372 84.1373C62.0903 85.5724 60.7983 87.0075 59.3676 87.1175C58.7972 87.2069 58.2138 87.0872 57.7248 86.7803C57.2359 86.4735 56.8744 86.0003 56.707 85.448C56.6896 85.8944 56.5748 86.3317 56.3706 86.7291C56.1665 87.1266 55.8779 87.4746 55.5251 87.7489C55.5251 87.7489 58.3962 91.9489 58.6833 92.5325C58.779 92.7239 62.3296 84.7735 63.0856 83.5441C62.5688 83.2715 62.5401 82.487 62.7411 81.9464Z" fill="#8F0101"/>
<path d="M62.7261 83.1421C62.5858 83.6305 62.3183 84.0729 61.9509 84.4241C61.9557 84.3364 61.9557 84.2486 61.9509 84.161C61.8265 82.9651 60.9939 81.2143 59.4674 81.4487C59.1389 81.4724 58.8262 81.5995 58.5744 81.8118C58.3225 82.024 58.1443 82.3105 58.0654 82.6302C58.0548 81.991 58.0868 81.3518 58.1611 80.7168C58.1611 80.2863 58.1324 79.8605 58.1324 79.43V79.033C58.688 79.3842 59.2632 79.7036 59.855 79.9897C60.8695 80.5876 61.8026 81.2956 62.7548 81.9701C62.61 82.3457 62.5999 82.7598 62.7261 83.1421Z" fill="white"/>
<path d="M58.8746 87.2708C57.9947 87.3297 57.1122 87.2009 56.2859 86.8928C56.4832 86.4974 56.6142 86.0722 56.6735 85.6343H56.7787C56.978 86.1364 57.3414 86.5563 57.8097 86.8257C58.278 87.095 58.8237 87.1979 59.3579 87.1177C59.5051 87.1026 59.6507 87.0754 59.7934 87.0363C59.4982 87.1528 59.1895 87.2316 58.8746 87.2708Z" fill="#FA2630"/>
<path d="M62.6648 84.4006L62.416 84.8791C61.9917 85.6062 61.3931 86.2163 60.6742 86.6544C61.2896 86.2371 61.7253 85.6032 61.8944 84.8791C62.3265 84.5522 62.6662 84.1185 62.8801 83.6206C62.8388 83.8881 62.7666 84.1498 62.6648 84.4006Z" fill="#FA2630"/>
<path d="M56.1132 87.1895C56.8897 87.5046 57.7265 87.6435 58.5632 87.5962C59.7775 87.4797 60.9188 86.963 61.8075 86.1272C61.5156 86.7397 61.2046 87.4096 60.8887 88.0748C60.3603 88.4543 59.748 88.7005 59.1039 88.7925C58.0146 88.9337 56.9076 88.7679 55.9074 88.314L55.5246 87.7589C55.7546 87.6075 55.9542 87.4144 56.1132 87.1895Z" fill="#FA2630"/>
<path d="M56.4094 88.8682C57.2286 89.1489 58.1024 89.2325 58.9599 89.1123C59.5154 89.0332 60.0529 88.8584 60.5486 88.5955C60.0153 89.146 59.2964 89.4788 58.5315 89.5292C57.7667 89.5796 57.0104 89.344 56.4094 88.8682Z" fill="#FA2630"/>
<path d="M56.6678 89.4231C57.2396 89.7226 57.8828 89.8586 58.5269 89.8164C59.171 89.7742 59.791 89.5554 60.3188 89.1838C59.8504 89.673 59.2157 89.9689 58.5398 90.0132C57.864 90.0575 57.1961 89.847 56.6678 89.4231Z" fill="#FA2630"/>
<path d="M57.1792 90.0832C57.6248 90.2725 58.1091 90.3525 58.5918 90.3167C59.0746 90.281 59.5418 90.1303 59.9546 89.8774C59.3134 90.8967 57.9927 90.8297 57.1792 90.0832Z" fill="#FA2630"/>
<path d="M58.1996 91.04C58.1055 90.9931 58.0144 90.9404 57.9269 90.8821C58.4507 91.0196 59.0071 90.9565 59.4868 90.7051C59.4275 90.8148 59.3462 90.9112 59.248 90.9881C59.1498 91.0651 59.0368 91.1211 58.9161 91.1525C58.7953 91.1839 58.6694 91.1901 58.5461 91.1708C58.4229 91.1514 58.3049 91.1069 58.1996 91.04Z" fill="#FA2630"/>
<path d="M58.6788 91.5085C58.9157 91.5054 59.1467 91.434 59.3439 91.3027C59.1729 91.7516 58.9497 92.1789 58.6788 92.5756C58.5879 92.3937 58.2673 91.8817 57.8557 91.2549C58.1027 91.411 58.3868 91.4985 58.6788 91.5085Z" fill="#FA2630"/>
<path d="M34.9438 85.4715C33.7954 85.9738 32.714 86.5957 31.5703 87.1075C29.862 87.8729 28.2207 88.7292 26.5315 89.5854C28.5796 90.4608 30.4793 92.0155 32.7809 92.159C34.0251 92.2356 35.4798 91.7524 36.1306 90.6235C36.5957 89.6869 36.8505 88.66 36.877 87.6146C36.9719 86.7586 37.0071 85.8971 36.9823 85.0362C36.9823 84.8592 36.9823 84.687 36.9823 84.51C36.9582 84.5068 36.9361 84.4949 36.9201 84.4766C36.3006 84.881 35.6377 85.2148 34.9438 85.4715Z" fill="#F09D2E"/>
<path d="M34.2252 86.2084C33.34 86.6007 32.4978 87.079 31.6125 87.4761C30.2918 88.0644 29.0046 88.7294 27.7174 89.3895C29.3013 90.064 30.7703 91.2647 32.5504 91.3795C33.0505 91.4294 33.5549 91.346 34.0122 91.1376C34.4695 90.9292 34.8633 90.6033 35.1535 90.1931C35.5089 89.4664 35.7047 88.6721 35.7278 87.8635C35.8002 87.2012 35.8274 86.5348 35.8091 85.8688C35.8091 85.7348 35.8091 85.5961 35.8091 85.4622H35.7613C35.2796 85.7691 34.7642 86.0195 34.2252 86.2084Z" fill="#FA2630"/>
<path d="M33.3171 86.9019C32.7477 87.1507 32.2118 87.4568 31.6471 87.7104C30.8001 88.0883 29.9771 88.514 29.1493 88.9398C30.1637 89.3751 31.1064 90.1404 32.2453 90.2122C32.5654 90.245 32.8885 90.1918 33.1812 90.0581C33.474 89.9244 33.7257 89.715 33.9105 89.4516C34.1406 88.9869 34.2664 88.4775 34.2789 87.9591C34.3275 87.5368 34.3451 87.1115 34.3316 86.6867C34.3316 86.5958 34.3316 86.5097 34.3316 86.4236C34.3206 86.4262 34.3091 86.4262 34.2981 86.4236C33.9894 86.618 33.6605 86.7784 33.3171 86.9019Z" fill="white"/>
<path d="M38.9961 87.6014C39.1875 87.4866 40.3503 86.7784 40.6996 86.5917C40.6506 86.2264 40.6783 85.8548 40.7809 85.5007C40.2163 85.7804 39.5852 85.898 38.9578 85.8405C38.619 85.7867 38.2945 85.6654 38.0035 85.4837C37.7125 85.302 37.461 85.0637 37.2639 84.783C37.28 84.8506 37.2912 84.9194 37.2973 84.9887C37.4503 86.1147 37.6984 87.2256 38.0391 88.3096C38.3237 88.0304 38.6458 87.792 38.9961 87.6014Z" fill="white"/>
<path d="M43.2161 94.02C42.8716 94.3596 42.5318 94.6945 42.2591 95.0293C41.7519 95.632 41.2446 96.2443 40.6991 96.8184C40.3785 95.9669 40.0723 95.1106 39.7852 94.2352C39.4693 93.2785 39.1727 92.3218 38.8856 91.322C40.302 92.2596 41.7327 93.1781 43.2161 94.02Z" fill="#F09D2E"/>
<path d="M44.3564 100.665C43.8779 101.091 43.3659 101.526 42.8826 101.971C42.404 100.986 41.9686 99.9951 41.5523 98.9902C42.4615 99.5932 43.3946 100.158 44.3564 100.665Z" fill="#F09D2E"/>
<path d="M37.6943 87.0416C37.506 86.3693 37.3731 85.6827 37.2971 84.9887C37.291 84.9194 37.2798 84.8506 37.2636 84.783C37.4612 85.0628 37.7129 85.3002 38.0039 85.4811C38.2948 85.6619 38.6192 85.7825 38.9576 85.8357H39.2447C38.7088 86.2233 38.1872 86.6157 37.6943 87.0416Z" fill="#F09D2E"/>
<path d="M54.6394 78.741C54.6394 77.8417 54.6777 76.9424 54.7064 76.0431C54.7064 75.5408 54.7064 75.0338 54.7064 74.5315C54.7064 71.934 54.7064 69.3365 54.8499 66.739C54.8499 66.7103 54.8882 66.739 54.893 66.739C54.9983 69.1308 55.0222 71.4939 55.0318 73.8761C55.0318 75.1964 55.0796 76.5119 55.1083 77.8274C55.1466 79.3103 55.2806 80.8697 54.8404 82.3096C54.7269 82.6878 54.5523 83.0449 54.3236 83.3668C54.0621 83.6915 53.7343 83.9567 53.3622 84.1448C52.99 84.3329 52.5821 84.4394 52.1655 84.4574H52.0171C52.0506 84.7349 52.0937 85.065 52.1272 85.4142C52.7253 84.5483 54.2518 84.1848 54.6202 85.3615C54.7829 85.8877 54.8882 86.6866 54.2231 86.9401C54.0286 87.035 53.8061 87.0558 53.5974 86.9986C53.3886 86.9413 53.2079 86.81 53.089 86.6292C53.0764 86.6065 53.0698 86.581 53.0698 86.5551C53.0698 86.5291 53.0764 86.5036 53.089 86.4809C53.213 86.633 53.3902 86.7325 53.5847 86.7591C53.7792 86.7857 53.9766 86.7376 54.1369 86.6244C54.3044 86.4843 54.4149 86.2878 54.4475 86.0719C54.4801 85.8561 54.4326 85.6357 54.314 85.4524C54.2365 85.3304 54.1335 85.2265 54.0122 85.1479C53.8908 85.0692 53.7539 85.0177 53.6108 84.9968C53.4677 84.9759 53.3218 84.9861 53.183 85.0268C53.0442 85.0675 52.9159 85.1376 52.8067 85.2324C52.7967 85.2491 52.7855 85.2651 52.7732 85.2802C52.1033 86.0408 52.1702 86.7679 52.9837 87.4711C53.9408 88.2604 55.2806 87.7103 55.8548 86.8205C56.3333 86.1078 56.3333 84.754 56.3908 83.9504C56.4577 83.0415 56.4769 82.123 56.4865 81.2142C56.4865 81.1855 56.5247 81.2142 56.5247 81.2142C56.6648 82.3685 56.7447 83.5293 56.764 84.6918C57.8454 86.8397 59.2188 87.1171 60.6783 86.1987C61.5252 85.6629 61.6736 84.424 61.5635 83.5199C61.2764 81.0898 57.3861 81.5299 58.3287 83.649C58.3915 83.7735 58.4798 83.8833 58.5878 83.9715C58.6958 84.0597 58.8211 84.1242 58.9556 84.1609C59.2762 84.2326 59.8696 84.1609 59.8648 83.6825C59.8648 83.4577 59.8648 83.2376 59.6303 83.1276C59.3958 83.0176 59.1805 83.1707 59.1183 83.0032C59.1204 82.9965 59.124 82.9903 59.1291 82.9853C59.1341 82.9803 59.1402 82.9766 59.147 82.9745C59.5442 82.7928 59.8121 82.8262 59.9796 82.9745C60.0567 83.0807 60.1194 83.1965 60.1662 83.3189C60.2288 83.6379 60.2074 83.9675 60.104 84.2757C60.01 84.4014 59.8846 84.5004 59.7404 84.5627C59.5299 84.6514 59.3024 84.6927 59.0741 84.6836C58.8459 84.6745 58.6224 84.6153 58.4197 84.5101C58.0046 84.1012 57.7644 83.5473 57.7497 82.965C57.6205 79.9848 57.6493 69.2743 57.6636 65.0552L55.5199 65.811C53.4527 66.5381 51.4142 67.337 49.3853 68.1597C49.3279 71.5082 49.615 77.77 49.5193 79.7026C49.5193 79.8795 49.5193 80.0565 49.5193 80.2335C49.7567 79.789 50.1505 79.4481 50.6246 79.2768C50.9053 79.1844 51.2018 79.1499 51.4963 79.1753C51.7907 79.2007 52.0769 79.2854 52.3376 79.4245C52.5984 79.5635 52.8282 79.754 53.0133 79.9843C53.1983 80.2146 53.3348 80.48 53.4144 80.7645C53.4955 79.7073 53.4955 78.6454 53.4144 77.5882C53.4144 76.6315 53.4144 75.6748 53.4144 74.718C53.4527 74.5267 53.4862 74.3306 53.5292 74.1344C53.4957 75.8852 53.6489 77.6504 53.6824 79.3964C53.6824 80.5636 53.8498 81.7547 52.778 82.4723C52.7639 82.4767 52.7489 82.4767 52.7349 82.4723L52.5483 82.5918C52.2781 82.7413 51.9764 82.8249 51.6678 82.8358C51.3814 82.8079 51.1134 82.6824 50.9086 82.4803C50.7039 82.2782 50.5749 82.0119 50.5433 81.726C50.5342 81.605 50.5544 81.4836 50.6022 81.372C50.65 81.2605 50.724 81.162 50.8178 81.0851C50.9117 81.0081 51.0227 80.9549 51.1415 80.9299C51.2603 80.9049 51.3834 80.9089 51.5003 80.9415C51.1175 81.042 50.773 81.3098 50.8926 81.7356C51.0792 82.4101 51.8879 82.4866 52.4574 82.2522C52.6956 82.1419 52.8967 81.9646 53.036 81.7421C53.1754 81.5196 53.247 81.2614 53.2421 80.9989C53.2588 80.8154 53.2275 80.6307 53.1511 80.4629C53.0748 80.2952 52.9561 80.1502 52.8067 80.0422C52.2707 79.4682 51.017 79.5638 50.4141 79.9465C50.1955 80.0771 50.0076 80.2533 49.8631 80.4629C49.7186 80.6726 49.6209 80.9108 49.5767 81.1616C49.5767 81.3481 49.5767 81.5251 49.5767 81.7069C49.6316 82.144 49.7941 82.5608 50.0497 82.9197C50.3052 83.2787 50.6458 83.5687 51.041 83.7638C51.3895 83.8924 51.761 83.9473 52.1319 83.9249C52.5028 83.9026 52.865 83.8035 53.1955 83.634C53.5261 83.4645 53.8179 83.2282 54.0525 82.9401C54.287 82.6521 54.4592 82.3184 54.558 81.9604C54.683 81.3195 54.7296 80.6657 54.6968 80.0135C54.6394 79.583 54.6394 79.162 54.6394 78.741Z" fill="#F09D2E"/>
<path d="M38.2643 66.7438C38.7428 67.8823 39.7907 68.4181 40.9153 68.7625C41.1253 68.8306 41.3494 68.8438 41.566 68.8007C42.1115 68.4755 43.0016 68.0497 43.4801 67.801C42.1498 67.7635 40.8554 67.3614 39.7381 66.6386C38.9246 66.1172 38.1734 64.2468 37.9676 63.0078C37.6566 63.6249 37.9197 65.8971 38.2643 66.7438Z" fill="#FA2630"/>
<path d="M39.987 60.157C39.4271 60.8841 38.9055 61.6399 38.4174 62.41C38.5179 64.0078 38.7907 65.4381 40.1114 66.4713C41.2375 67.2669 42.6175 67.6195 43.9874 67.4615C45.9014 66.5048 47.8155 65.5481 49.7296 64.6488C48.1122 64.2852 46.4182 62.0465 45.8536 60.7693C45.0305 58.9084 44.7578 55.5073 45.9732 53.4934C43.662 55.3494 41.8388 57.7556 39.987 60.157Z" fill="#F09D2E"/>
<path d="M51.8059 68.0881C51.8059 68.2795 51.8537 68.4708 51.8729 68.6622C51.8155 72.0107 52.2126 75.4357 51.9303 78.7986C51.9303 78.8895 51.8107 78.8464 51.8059 78.7986C51.5151 75.2344 51.5151 71.6524 51.8059 68.0881Z" fill="#006790"/>
<path d="M49.5191 86.9116C49.4997 86.8748 49.4898 86.8337 49.4904 86.792C49.5579 86.8438 49.6365 86.8794 49.7199 86.896C49.8034 86.9126 49.8895 86.9099 49.9717 86.8879C50.0539 86.8659 50.13 86.8253 50.194 86.7693C50.258 86.7133 50.3083 86.6433 50.341 86.5647C50.3736 86.4861 50.3878 86.4011 50.3823 86.3162C50.3769 86.2314 50.3519 86.1489 50.3095 86.0751C50.2671 86.0014 50.2083 85.9384 50.1376 85.891C50.0669 85.8436 49.9863 85.8131 49.902 85.8018C49.7153 85.5913 49.4234 85.6966 49.0023 86.1127C48.875 86.328 48.8012 86.5707 48.787 86.8204C48.7729 87.0701 48.8188 87.3195 48.921 87.5478C49.256 88.3706 50.4857 88.4376 51.0695 87.9209C51.9787 87.1173 51.7347 85.6057 51.8447 84.4911C51.6381 84.4803 51.4331 84.4499 51.2322 84.4002C50.8188 84.2792 50.4416 84.0583 50.1337 83.7572C49.8258 83.456 49.5966 83.0838 49.4665 82.6733C49.4015 83.3202 49.2814 83.9603 49.1076 84.5868C48.9937 84.9985 48.7686 85.3709 48.4568 85.6631L48.5286 86.4093C48.854 85.5818 49.7871 85.0125 50.5432 85.797C51.2992 86.5815 50.1412 87.9736 49.5191 86.9116Z" fill="#F09D2E"/>
<path d="M46.2372 60.6355C46.7444 61.7883 48.5723 64.3093 50.0653 64.3093C50.0954 64.3102 50.1248 64.318 50.1513 64.3321C50.1779 64.3462 50.2008 64.3662 50.2184 64.3906L51.5248 63.7592C47.6057 63.8309 46.553 57.1339 46.4429 53.5605C45.194 55.3735 45.4763 58.9612 46.2372 60.6355Z" fill="#FA2630"/>
<path d="M53.3233 50.1689C52.0119 50.4331 50.7297 50.8257 49.4952 51.3409C48.5284 51.758 47.6092 52.2776 46.7533 52.8908C46.7843 52.9308 46.8026 52.9791 46.8059 53.0295C46.8059 56.9425 47.629 63.2042 52.3711 63.3717C54.5465 62.3162 56.7745 61.3726 59.0463 60.5446C59.7498 58.3728 59.946 56.5694 59.0463 54.412C58.0558 51.9819 55.4718 51.2166 53.3042 50.1929L53.3233 50.1689Z" fill="#006790"/>
<path d="M67.7302 49.9058C67.7302 49.9058 73.6591 49.9584 75.4726 52.1014C75.4726 52.1014 75.999 52.9051 75.286 54.1632C75.286 54.1632 75.4774 52.3023 74.1328 51.4604C72.1804 50.2406 67.7302 49.9058 67.7302 49.9058Z" fill="white"/>
<path d="M65.8073 49.9058C65.8073 49.9058 68.3865 51.1447 68.755 53.5509C68.8476 54.4999 68.6579 55.4551 68.2095 56.2966C67.8197 56.9218 67.3897 57.521 66.9223 58.0905C66.9223 58.0905 68.5062 55.3591 67.8793 53.3356C67.4402 52.0582 66.7338 50.889 65.8073 49.9058Z" fill="white"/>
<path d="M52.5143 50.4993C52.5143 50.4993 57.3282 50.4993 59.1848 55.2829C59.1848 55.2829 60.0845 58.6027 58.9552 60.5927C58.9552 60.5687 60.8692 53.4125 52.5143 50.4993Z" fill="white"/>
<path d="M46.8922 53.2542C46.8922 53.2542 46.7965 56.9232 47.8253 59.8125C48.8541 62.7018 50.4858 63.9742 52.7971 63.2327C52.4908 63.3284 49.8398 63.1992 48.5335 59.8842C46.9496 55.8708 46.8922 53.2542 46.8922 53.2542Z" fill="white"/>
<path d="M38.8758 62.3577C38.8758 62.3577 38.3685 65.6057 40.8999 66.7394C41.8816 67.1883 42.9787 67.3204 44.0389 67.1173C44.0389 67.1173 39.4356 67.2752 38.8758 62.3577Z" fill="white"/>
<path d="M35.4739 67.1174C35.4739 67.1174 34.0383 69.9493 35.6748 70.5808C37.3114 71.2122 39.2589 70.2507 39.2589 70.2507C39.2589 70.2507 34.445 71.437 35.4739 67.1174Z" fill="white"/>
<path d="M70.751 58.3486C70.751 58.3486 60.5826 59.7837 47.4138 66.7391C54.8718 63.1194 62.6953 60.3067 70.751 58.3486Z" fill="white"/>
<path d="M57.2419 66.2227L57.4476 82.9174C57.4476 82.9174 56.5624 71.3746 57.2419 66.2227Z" fill="white"/>
<path d="M59.524 82.0708C59.8896 82.1057 60.2405 82.2323 60.5442 82.4388C60.8478 82.6454 61.0944 82.9252 61.261 83.2523C61.9118 84.4195 61.1079 86.2325 59.5193 86.6009C59.5193 86.6009 61.4046 85.4863 61.1701 83.7642C61.072 83.3607 60.8676 82.9908 60.5781 82.693C60.2887 82.3952 59.9247 82.1804 59.524 82.0708Z" fill="white"/>
<path d="M56.0398 83.5293C56.0398 83.5293 56.1307 86.2129 55.4895 86.9783C54.8482 87.7436 53.7716 87.978 53.1782 87.3849C53.1782 87.3849 54.9727 87.7676 55.4895 86.366C55.8101 85.4522 55.9954 84.4966 56.0398 83.5293Z" fill="white"/>
<path d="M54.5186 74.5649V80.7836C54.5186 80.7836 54.5903 83.6538 52.2935 83.826C52.2935 83.826 54.064 83.3476 54.2936 80.9223C54.5233 78.4971 54.5186 74.5649 54.5186 74.5649Z" fill="white"/>
<path d="M51.4998 68.5139V78.9182C51.4998 78.9182 51.1122 71.9007 51.4998 68.5139Z" fill="white"/>
<path d="M48.8198 70.8816V82.5871C48.8198 82.5871 48.2504 74.6941 48.8198 70.8816Z" fill="white"/>
<path d="M44.8351 72.2354V82.0704C44.8351 82.0704 44.3805 75.4404 44.8351 72.2354Z" fill="white"/>
<path d="M46.8442 73.0776V82.5922C46.8442 82.5922 46.3992 76.1774 46.8442 73.0776Z" fill="white"/>
<path d="M42.2554 79.7983C42.2554 79.7983 42.5712 83.6491 40.7481 84.6728C40.1314 85.056 39.3881 85.1796 38.6806 85.0164C37.9731 84.8533 37.359 84.4167 36.9726 83.8022C36.9726 83.8022 38.9154 85.6391 40.9012 84.2184C40.9012 84.2184 42.1932 83.4004 42.2554 79.7983Z" fill="white"/>
<path d="M48.6904 83.9219C48.6904 83.9219 48.2119 86.0991 46.1877 85.7498C46.1877 85.7642 48.0635 85.5249 48.6904 83.9219Z" fill="white"/>
<path d="M48.0789 87.5908C48.0789 87.5908 47.9257 89.3278 46.3945 89.0694C46.795 89.0313 47.1734 88.8679 47.4757 88.6024C47.7781 88.337 47.9891 87.983 48.0789 87.5908Z" fill="white"/>
<path d="M44.4224 86.7058C44.4224 86.7058 44.274 88.4476 42.738 88.1844C43.1385 88.1463 43.5169 87.9829 43.8192 87.7174C44.1216 87.452 44.3326 87.098 44.4224 86.7058Z" fill="white"/>
<path d="M51.5374 86.4812C51.5374 86.4812 51.3651 88.4814 49.6233 88.1799C50.0791 88.1302 50.5082 87.94 50.8511 87.6357C51.194 87.3313 51.4339 86.9279 51.5374 86.4812Z" fill="white"/>
<path d="M26.3009 90.8198C26.3009 90.8198 31.086 94.4745 33.0671 102.927C32.3687 98.1999 29.9615 93.8926 26.3009 90.8198Z" fill="white"/>
<path d="M75.4978 95.8042C75.4978 95.8042 75.6413 101.951 73.7081 106.888C73.7081 106.883 74.469 103.558 75.4978 95.8042Z" fill="white"/>
<path d="M37.3547 87.5522C37.3547 87.5522 39.1683 96.5406 42.5562 102.74C42.5562 102.74 38.2687 97.5691 37.3547 87.5522Z" fill="white"/>
<path d="M65.2717 85.137C65.2717 85.137 68.3151 89.624 66.937 105.338C67.2917 98.5602 66.7316 91.7654 65.2717 85.137Z" fill="white"/>
<path d="M45.7153 89.3416C45.7153 89.3416 46.3804 97.2441 48.1079 102.87C48.127 102.87 46.9451 94.0151 45.7153 89.3416Z" fill="white"/>
<path d="M66.0471 92.3171C66.0471 92.3171 62.3433 99.7795 59.3048 103.879C59.3048 103.879 64.1521 95.0007 66.0471 92.3171Z" fill="white"/>
<path d="M56.9847 103.487C54.5194 98.9158 51.0533 94.9603 46.8449 91.9155C46.8449 91.9155 54.8505 99.5645 56.999 103.535L56.9847 103.487Z" fill="white"/>
</g>

</svg>
